<svg xmlns="http://www.w3.org/2000/svg" viewBox="0 0 1881.98 342.29"><defs><style>.a{fill:#0f467e;}</style></defs><path class="a" d="M37.91,206H0V53.75H36.43v13.5l.94.39c1.28-1.45,2.56-2.88,3.82-4.34C53.37,49.15,73.48,46.8,88.34,51.84a29.62,29.62,0,0,1,18.52,17.7l.71,1.86.77,1.86a102.19,102.19,0,0,1,5.32-9c7.1-9.68,17.17-13.84,28.79-14.7,7.22-.54,14.34.24,21,3.34,9.82,4.58,14.8,13,17.47,23,1.85,7,2.16,14.13,2.16,21.3q0,52.74,0,105.49c0,1-.11,2-.18,3.2h-38v-5.38q0-49.74,0-99.49a58.05,58.05,0,0,0-.66-8.43c-1.7-11.63-9.8-14.44-20.3-11.81-5.56,1.4-8.91,5.5-11,10.7-2.2,5.38-2.35,11-2.35,16.69q0,46,0,92v5.69H72.28v-5.55q0-48.75,0-97.5a77.46,77.46,0,0,0-.33-8.48c-.61-5.65-2.1-11.13-8.08-13.28-6.25-2.25-12.47-1.7-17.92,2.59A19.46,19.46,0,0,0,39,96a64.26,64.26,0,0,0-1,10.9q-.12,46.74-.05,93.49Z"/><path class="a" d="M690,69.86V53.75h36.16c.14,1.32.39,2.72.4,4.13,0,46.65.13,93.3-.1,140a114.8,114.8,0,0,1-2.6,23.21c-3.91,18.31-15.36,29.82-33.53,34.33-16.07,4-32.26,4.51-48.32-.1-17.74-5.1-28.09-19.24-27.64-37.93h35.57c.39.42.78.64.8.89.63,9.16,8.43,14.07,16.81,14.82,8.8.78,15.85-2.81,19.3-11.1a30.51,30.51,0,0,0,2.39-9.59c.56-8.53.66-17.08,1-26.69-3.19,3.44-5.44,6.06-7.9,8.47-16.4,16.09-42.58,11.76-54-1-6.65-7.41-10-16.39-12.25-25.84-2.56-10.72-3.4-21.68-3.67-32.65a227.56,227.56,0,0,1,1.56-35.87c1.33-10,3.73-19.58,8.44-28.52,9.85-18.7,29.81-23.5,45.45-19.5,8.57,2.19,15,7.72,19.44,15.42.66,1.14,1.29,2.3,2,3.43C689.24,69.71,689.48,69.71,690,69.86Zm.1,58.3c-.41-7-.66-13.94-1.25-20.89-.58-6.79-1.72-13.5-5-19.63-2.88-5.38-7.6-7.82-13.48-7.86-6.19,0-11.67,2-14.35,8a45.53,45.53,0,0,0-3.83,12.77,236.25,236.25,0,0,0-1,48.73,41.44,41.44,0,0,0,4.39,16.25c6,11.15,20.33,11.94,27.31,1.33a33.87,33.87,0,0,0,4-9C689.68,148.15,689.91,138.17,690.07,128.16Z"/><path class="a" d="M343.24,53.68h36.15V70l.89.17c.63-.92,1.28-1.82,1.9-2.75,7.61-11.34,18.56-17,31.89-17.73a60.91,60.91,0,0,1,16.28,1.59c10.76,2.36,17.6,9.46,21.57,19.57,2.78,7.1,3.52,14.57,3.55,22,.14,36.33.07,72.66,0,109,0,1.29-.19,2.59-.31,4.11H417.06v-5.91q0-49.49,0-99a48.81,48.81,0,0,0-1.18-10.85c-1.49-6.32-5.56-9.51-12-10.12-12.51-1.18-20.55,5.18-22,17.6a99.37,99.37,0,0,0-.73,11.43q-.09,45.49,0,91v5.78H343.24Z"/><path class="a" d="M554.94,206.06l-4.46-15.33c-1.24,1.81-2.43,3.59-3.67,5.33a30.54,30.54,0,0,1-19,12.67,59,59,0,0,1-21.28.94c-12.59-1.9-20.82-9.29-25.4-20.67-5.67-14.06-5.71-28.53-1.46-43,2.56-8.71,8.08-15.13,15.83-19.75,6.05-3.6,12.63-5.88,19.34-7.8,7.18-2,14.38-4,21.57-6,1.11-.31,2.22-.66,3.3-1.07,7.9-3,11.05-7.38,11-15.85a31,31,0,0,0-1-8.37c-2.39-8.55-10.15-11.69-19-10.54s-14.18,7.54-14.68,16.84c-.11,2.14,0,4.29,0,6.75H481.5c-.77-4.68,0-9.48.77-14.1,3-18.9,14.81-30.92,33.59-34.76a95.34,95.34,0,0,1,42.51,1c19.52,4.83,26.86,17.18,28.5,34.4.24,2.48.18,5,.18,7.49,0,24.82,0,49.63,0,74.45,0,6.31,0,12.66.69,18.92s2.1,12.29,3.21,18.51Zm-4.19-75.37c-3.29,1.66-6.14,3.4-9.21,4.57-4.17,1.59-8.53,2.69-12.77,4.1-5.57,1.86-10.35,5-12.8,10.42-4.08,9-3.74,18.12.65,26.93,2.38,4.77,6.63,6.82,11.92,6.6,11.87-.48,21.49-9.22,22.1-21C551.17,151.89,550.75,141.42,550.75,130.69Z"/><path class="a" d="M243.32,100.24h-33.8c-1.86-20.28,6.28-36.54,20.4-44a57.89,57.89,0,0,1,22.87-6.38c12.33-.94,24.58-.34,36.53,3.38,14.37,4.47,22.37,14.33,24.58,29a88.63,88.63,0,0,1,1,12.91q.12,41.23,0,82.47c0,9.19.56,18.28,4.07,26.93a6.9,6.9,0,0,1,.21,1.54H282.63c-1.44-5-2.89-10-4.39-15.2a7.72,7.72,0,0,0-1.24,1.37c-6.76,12.05-17.49,17.31-30.84,17.89a63.48,63.48,0,0,1-11.94-.45c-12.48-1.85-20.65-9.27-25.44-20.67a53.82,53.82,0,0,1-4-26.79,115.26,115.26,0,0,1,2.13-14.74c2.33-9.76,8.43-16.77,17.07-21.7,8.18-4.66,17.22-6.89,26.15-9.42,5.59-1.58,11.23-3,16.73-4.88,8.45-2.86,11.32-7.06,11.42-16q0-1.5-.09-3C277.47,82,272,76.67,261.71,76.38c-9.86-.28-16.85,5.83-17.85,15.67C243.59,94.67,243.51,97.31,243.32,100.24Zm35.49,29.45c-7.1,5.67-14.75,7.27-22.14,9.61-5.69,1.8-10.66,4.94-13.16,10.64a30.54,30.54,0,0,0,.59,26.49,11.46,11.46,0,0,0,10.26,6.85c9,.42,22.25-5.21,23.5-19.08C278.85,153.17,278.53,142,278.81,129.69Z"/><path class="a" d="M861.51,136H787.33c0,7.51-.27,14.62.08,21.7A39.25,39.25,0,0,0,791.72,174c2.91,5.61,7.13,9.3,13.62,9.33,6.73,0,11.76-3.09,14.87-9.16,2.69-5.26,3.86-10.93,4.71-16.7.12-.8.22-1.61.36-2.65h34.41c-1.26,17.75-4.3,34.43-19.62,46-6.12,4.62-13.17,7.1-20.6,8.35a81.34,81.34,0,0,1-30.74-.66c-17.91-3.84-29.33-14.63-35-31.91a96.39,96.39,0,0,1-4.61-26.45c-.58-15.47-1.14-31,.76-46.41,1.2-9.79,3.4-19.27,7.9-28.16a43.69,43.69,0,0,1,27.51-23,76.1,76.1,0,0,1,38.47-1.29c15.43,3.37,25.58,12.71,31.28,27.24a83.52,83.52,0,0,1,5.55,24.21c.8,10.44.89,20.94,1.26,31.41A9.85,9.85,0,0,1,861.51,136Zm-74.63-23.89H825c.11-8.74-.39-17.14-3.36-25.17-2.91-7.85-10.07-11.81-18.23-10.36-5.82,1-9.89,4.43-12.51,9.64C786.83,94.33,786.56,103,786.88,112.09Z"/><path class="a" d="M1247.06,206.08h-16.45V55.66a122.43,122.43,0,0,1,14.93.08V74.22l.74.2c1.46-2.15,2.86-4.35,4.39-6.45,9.93-13.63,23.75-17.79,39.64-15.12,12.38,2.09,19.68,10.32,22.64,22.43.15.62.28,1.25.59,2.66,1-1.63,1.65-2.64,2.17-3.73,9.6-20.17,28.59-25.54,47.72-20.32,12,3.28,18,12.52,20.34,24.21a60.84,60.84,0,0,1,1.1,11.89q.12,55.23,0,110.46V206h-16.85v-5.45q0-53.73,0-107.46a49.68,49.68,0,0,0-1-9.88c-3-14.47-15.51-18.19-25.52-16.29-13,2.46-19.82,11.5-23.34,23.34a53.06,53.06,0,0,0-2,14.75c-.17,31.82-.09,63.64-.09,95.46V206h-16.52c-.09-1.91-.25-3.82-.25-5.73q0-51.48,0-103a61.88,61.88,0,0,0-.85-12.41c-3.45-16.68-19.79-23.68-34.53-14.9-9.59,5.71-14,14.82-15.9,25.34a66,66,0,0,0-.86,11.41q-.11,46.74,0,93.47Z"/><path class="a" d="M1081.48,55.8h-18.16c-.45-3.9-.8-7.67-1.33-11.4-2.49-17.69-14.38-28.08-32.26-28.45-8.86-.18-17.33,1.16-24.6,6.53-11.77,8.69-15.27,20.92-13.89,34.84,1.3,13.15,8.31,22.8,19.93,28.57,8.29,4.11,17.11,7.21,25.81,10.44,9,3.35,18.2,6.3,26.52,11.3,14.63,8.8,21.86,21.87,22.41,38.77.28,8.68-.28,17.25-2.8,25.68-4.92,16.46-15.22,27.9-31.47,33.47a75.73,75.73,0,0,1-49.48.24c-14.36-4.76-23.77-14.81-28.76-29-3.74-10.64-4.46-21.67-4.3-33.13h17.59c.39,5.67.5,11.3,1.19,16.84,1.51,12,6.47,22,17.19,28.37,7.52,4.45,15.83,5.66,24.48,5,6.17-.47,12.18-1.39,17.87-4a33.27,33.27,0,0,0,18.89-22.52,51.67,51.67,0,0,0,.84-23.72c-1.77-9-6.69-15.8-14.05-21s-15.93-8.15-24.36-11.21c-8.26-3-16.6-5.83-24.73-9.17a52.37,52.37,0,0,1-20.15-14.36c-6.26-7.32-9.18-16-10.3-25.46a64.17,64.17,0,0,1,2.92-29.51C982.07,17.14,993.13,7,1009.1,2.6a71.77,71.77,0,0,1,41.36.93c15.46,5,24.49,16.14,28.12,31.62C1080.12,41.73,1080.5,48.57,1081.48,55.8Z"/><path class="a" d="M883.22,53.75h35.67v19c9.84-15.23,21.65-26,41.6-22.64V87.24c-3.32,0-6.44.11-9.56,0a33.29,33.29,0,0,0-14.64,2.38c-10.52,4.51-15.25,13-15.34,24.07-.15,18.65,0,37.3,0,56v36.26H883.5C882.59,202.47,882.27,60.85,883.22,53.75Z"/><path class="a" d="M1607.31,100.34h-15.93a67.34,67.34,0,0,1,2.07-18.27c4.52-17.93,16.45-27.51,34.61-29.51,8.61-1,17.29-.81,25.75,1.73,12.92,3.87,20.41,12.61,23,25.63a64.09,64.09,0,0,1,1.08,11.9c.08,29.16,0,58.32.07,87.49a34.14,34.14,0,0,0,.63,6.92c1.12,5.35,3.21,7,8.54,7.12,1.13,0,2.27,0,3.68,0v13a26.46,26.46,0,0,1-22.42-1.58c-4.5-2.46-5.71-7.17-6.23-11.91-.25-2.3,0-4.65-.69-7.12-.52,1.09-1.06,2.17-1.56,3.27-5.69,12.27-15.5,19-28.75,20.15a69.19,69.19,0,0,1-18.34-.88c-10.55-1.93-18-8.37-22-18.37a57.91,57.91,0,0,1-1.28-40.51c3.85-11.7,12.1-19.36,23.71-23.13,10.89-3.54,21.93-6.63,32.92-9.84,12.09-3.52,14.74-6.78,14.81-19.5a70.47,70.47,0,0,0-1.15-14.37c-1.65-8.09-7.14-13-15-15a34.76,34.76,0,0,0-17.8.06c-8,2.13-13.64,7.1-16,15C1609.28,88.21,1608.56,94.16,1607.31,100.34Zm53.75,21.53c-4.65,5.27-10.11,7.11-15.75,8.63-5.92,1.58-11.88,3.09-17.73,4.91-9,2.79-17.1,7.09-20.54,16.58a39,39,0,0,0,1.5,31.46,19.89,19.89,0,0,0,13.92,11.09c10.52,2.46,24.78-2.06,32-14.25a48.64,48.64,0,0,0,6.58-25.24c0-7.82,0-15.65,0-23.47Z"/><path class="a" d="M1202.06,131.59h-79.14c0,6.13-.29,12.06.06,18,.56,9.47,1.8,18.93,6,27.58a40.34,40.34,0,0,0,7.42,11.09c11,11,29.62,8.81,38.83-4.09,4.15-5.81,6.14-12.46,7.63-19.3.56-2.6.85-5.25,1.33-8.25h16.45c.47,4.54-.78,9-1.83,13.46-2.55,10.87-7.14,20.71-15.46,28.49a39,39,0,0,1-25.13,10.77,68.18,68.18,0,0,1-13.92-.53c-14.55-2.23-24.18-11-30.41-23.93-4.52-9.39-6.57-19.48-7.86-29.72a202.26,202.26,0,0,1-.9-37.39c.85-14.17,3.15-28.09,9.77-40.89,8.4-16.22,21.55-24.71,40.1-24.69,10.85,0,20.82,2.24,29.14,9.56,6.43,5.67,10.23,13,12.8,21.05a117.1,117.1,0,0,1,5.12,34.88C1202.09,122.1,1202.06,126.56,1202.06,131.59Zm-17.82-14.43c0-11.18-.8-21.77-4.42-31.92-2.6-7.27-6.69-13.62-14.23-16.48-12.89-4.88-31.9-3.67-38.64,17.08a90,90,0,0,0-4,22.52c-.18,2.9,0,5.83,0,8.8Z"/><path class="a" d="M1881.91,131.5h-79c-.13,1.59-.32,2.85-.34,4.11-.16,12.69.45,25.29,4.55,37.45a40.22,40.22,0,0,0,8.07,14.19c10.52,11.77,30.67,10.11,39.68-2.74,4.49-6.4,6.72-13.66,8.11-21.25.41-2.25.78-4.51,1.18-6.88h16.64c-.31,2.61-.5,5-.89,7.4-2.2,13.42-6.81,25.7-17.15,35.14A39.52,39.52,0,0,1,1838,209.36a52.92,52.92,0,0,1-18.78-1.66c-13.93-4.18-22.08-14.11-27.29-27.06-4.2-10.46-6.07-21.47-6.71-32.58-.88-15.62-1.17-31.28,1.69-46.8,2-10.71,5.09-21,11.22-30.14,8.18-12.19,19.72-18.64,34.39-18.82A66,66,0,0,1,1849.29,54c13.79,3.49,21.81,13.34,26.56,26.18,4.09,11,5.57,22.55,6,34.21C1882.09,119.82,1881.91,125.31,1881.91,131.5ZM1864,117.07c.24-10.78-.81-21-4-30.9-1.9-5.78-4.77-11-9.79-14.72-14.85-11-36.54-4.26-43,13.48-3.77,10.27-4.52,21-4.52,32.14Z"/><path class="a" d="M1561.54,206.06h-16.78v-5.42c0-34.33.06-68.66-.07-103a63.61,63.61,0,0,0-1.58-13.31c-3.07-14.19-14.31-19.21-27.06-17.58-14.31,1.83-24.19,11.76-27,26.81a81.47,81.47,0,0,0-1.22,14.89c-.11,30.66,0,61.33,0,92v5.37h-16c-.93-3.13-1.22-143.43-.21-150.08h14.17V75l.82.3c1.09-1.56,2.22-3.09,3.26-4.69,6.13-9.37,14.6-15.48,25.59-17.61a44.64,44.64,0,0,1,25,1.87c13,5,18.67,15.38,20.33,28.44a115.89,115.89,0,0,1,.7,14.44q.08,51,0,102Z"/><path class="a" d="M1713.36,55.64h16.19V77c4.71-7.76,9.59-14.95,17.44-19.58a35.72,35.72,0,0,1,25.52-4.6V69.63c-4.36,0-8.55-.51-12.56.1-13.6,2.06-22.42,10.13-27.14,22.85a51.24,51.24,0,0,0-3.07,18.09q.08,44.73,0,89.47v5.75h-16.13C1712.72,202.66,1712.37,63.61,1713.36,55.64Z"/><path class="a" d="M1436.55,206.1h-15.7c-1-3.47-1.33-142.15-.37-150.3h16.07Z"/><path class="a" d="M720.81,285.14h7.6v55.71l-4.25.39V292.42l-1.15-.16L709.19,340.9H704.5l-13.8-48.52-.85.1v48.37h-5V285.36h8.47c4.6,15.9,8.46,32.23,13.34,48.26l1.1-.18C712.06,317.48,716.38,301.53,720.81,285.14Z"/><path class="a" d="M161.39,341.06h-6.2c-3.92-18.53-7.85-37.11-11.87-56.07l4.79.23c3.21,15.9,6.38,31.56,9.54,47.22l1.2-.06c3-15.67,6.09-31.34,9.17-47.17h5.66c3,15.54,6.13,31.26,9.32,47.54,2.78-3,2.42-6.44,3.05-9.4,2.65-12.48,4.93-25,7.44-38l5-.39-11.85,56h-6.07c-3.43-14.78-5.31-30.12-9.59-45.05-2.8,7.34-3.76,15-5.3,22.45S162.83,333.27,161.39,341.06Z"/><path class="a" d="M588.29,341H582l-20.24-45.84-1.3.23c-.06,3.69-.14,7.39-.17,11.08,0,4,0,8,0,12v23.3l-4.76-.9V285.31H562q10.2,23.07,21,47.57c1.38-4.11,1.86-32,1-47.64h4.24Z"/><path class="a" d="M398.17,311.09c4.23,2.48,7.3,4.12,8.47,7.78,3.67,11.51-1.68,21.83-13.62,22.18-5.72.17-11.44,0-17.41,0V285.14c6.3,0,12.44-.29,18.53.09,5.35.33,9.7,3,11.14,8.44,1.58,6.05,1.13,11.85-4.54,16C400.2,310,399.57,310.31,398.17,311.09Zm-17.68,26.07a22,22,0,0,0,3.56.4c3.46-.19,6.94-.35,10.37-.84,5.07-.73,8.39-4.51,8.67-10,.3-5.88-2-10.28-6.9-11.88-5.18-1.69-10.38-.9-15.7-.81Zm0-27.8c7.21.86,11.5.63,14.86-.7,4.05-1.61,6.25-5.55,5.87-10.49-.37-4.75-2.51-7.37-7-8.48s-9.14-.55-13.76-.5Z"/><path class="a" d="M956.43,340.92h-6.55q-10.5-23.9-21-47.62l-1,.26v47.29h-4.43V285.28h6.39c7.15,15.65,13.72,31.63,20.95,47.3l1.08-.3V285.35h4.56Z"/><path class="a" d="M469.4,341.11V285c5.8,0,11.45-.38,17,.09,9.4.78,14.54,6.44,16,16.7a74.19,74.19,0,0,1-.17,23.28c-1.74,10.05-6.36,15.76-18.09,16C479.4,341.19,474.59,341.11,469.4,341.11Zm5.09-3.52c2.11,0,3.58.07,5.05,0,1.64-.1,3.27-.47,4.92-.52,8.29-.23,11.77-5.1,12.73-12.08a135.29,135.29,0,0,0,.85-19.32c0-2.74-1-5.53-1.84-8.2a11.13,11.13,0,0,0-8.35-7.76c-4.43-1.15-8.81-.5-13.36-.5Z"/><path class="a" d="M633.47,300.64h-4.8c-.2-1.3-.29-2.59-.6-3.83a11,11,0,0,0-9.66-8.74,10.83,10.83,0,0,0-11.16,6.7,28,28,0,0,0-2.41,8.06c-.91,8.11-1.26,16.27.77,24.28a21,21,0,0,0,2.82,6.28,10.18,10.18,0,0,0,17.9-1A27.42,27.42,0,0,0,629,317.12H615.81v-4.33c.88-.05,1.67-.13,2.47-.13,5,0,9.92,0,15.11,0v28.67L630,341v-7.32a28.61,28.61,0,0,0-2.31,2.68c-5.62,8.93-19.61,7.23-24.39-2A33,33,0,0,1,599.63,320a110.5,110.5,0,0,1,.91-19.34,26.57,26.57,0,0,1,4.81-11.26c3.77-5.13,9.45-6.27,15.64-5s10,5,11.52,11C632.91,297,633.11,298.65,633.47,300.64Z"/><path class="a" d="M816,300.48h-5.1c-.19-1.16-.33-2.12-.51-3.06a11.2,11.2,0,0,0-9.69-9.33,10.46,10.46,0,0,0-11.2,6.56,30.45,30.45,0,0,0-2.73,10.48,179.75,179.75,0,0,0,.81,20.35,21.29,21.29,0,0,0,2.37,7c1.81,3.8,5,5.49,9.24,5.56s7.49-1.53,9.33-5.35A25.79,25.79,0,0,0,811,317.09h-12.4c-.19-1.48-.34-2.69-.53-4.19h17.31v28h-3c-.11-2.08-.21-4.19-.36-6.95-.89.94-1.55,1.37-1.83,2-4.08,8.92-19.46,8.28-24.18-1.31a31.35,31.35,0,0,1-3-7.35c-2.13-10.53-2.11-21,1-31.43,3.28-10.9,13.34-13.93,22.09-10.51a16,16,0,0,1,7,6.06C814.72,293.85,815,297.18,816,300.48Z"/><path class="a" d="M338.62,341h-4.2V285.48c6.72,0,13.34-.34,19.9.08,7.86.52,11.32,7.5,10.86,14.66-.4,6.31-1.43,7.68-8,13.4,7,2.69,7.29,8.6,7.44,14.71.11,4.08.63,8.16,1,12.62l-4.53.26c-.33-2-.74-3.88-.91-5.76-.34-3.8-.45-7.61-.84-11.4-.54-5.35-2.88-7.75-8.11-8.3-3.92-.41-7.88-.56-12.51-.87-.05,4.72-.11,9-.13,13.21S338.62,336.37,338.62,341Zm.27-29.56c5.18.08,10.12.81,14.9-1,5.14-2,7.3-6.53,6.4-13.12-.63-4.61-4.06-7.84-9.19-8.17-3.93-.25-7.89-.05-12.11-.05Z"/><path class="a" d="M3.48,284.74c6.47.3,12.62.23,18.67,1,6.53.78,10.81,4.82,12.52,11.18a61.59,61.59,0,0,1-.13,32.91c-1.91,6.9-7.53,11-14.78,11.23-5.3.19-10.62,0-16.28,0Zm4.37,52.84c3.1,0,5.59.14,8.07,0,9-.59,13.1-3.7,14.8-11.93a56.9,56.9,0,0,0-.58-27.11c-1.4-5-4.67-8.59-10-9.23-4-.49-8.17-.1-12.31-.1Z"/><path class="a" d="M674,299h-4.36c-.38-1.3-.72-2.54-1.11-3.78-1.51-4.74-4.31-7-9-7.18s-9.24,2.15-10.71,5.86c-2,4.95-.73,9.69,2.65,12.19a31.93,31.93,0,0,0,6.49,3.56c2.89,1.24,6,2,8.88,3.24,6.42,2.88,9.18,7.84,8.54,14.8-.68,7.35-4.71,12.68-11.45,13.87-5.71,1-11.64,1.53-16.61-2.77-4.43-3.83-5.63-8.76-4.9-14.59h3.66a63.75,63.75,0,0,0,2.31,8.14c2.09,4.88,6.8,6.63,13.56,5.43a10,10,0,0,0,8.42-9.15c.63-6.25-.94-9.29-6.7-11.91-3.45-1.57-7.17-2.55-10.7-4-5.85-2.35-9.67-6.26-9.78-13-.1-6.14,1.72-11.21,7.62-13.94,6.55-3,13.1-2.6,18.78,1.77,2,1.52,2.77,4.72,3.85,7.27C673.92,296,673.78,297.37,674,299Z"/><path class="a" d="M118.3,299h-4.46c-.16-.79-.34-1.56-.49-2.34q-1.42-7.84-8.86-8.56A10.67,10.67,0,0,0,93.06,295a10.52,10.52,0,0,0,4.1,12.26,58.29,58.29,0,0,0,7.7,3.38c3,1.28,6.21,2.33,9.13,3.84a9.82,9.82,0,0,1,5.65,9.25,31.85,31.85,0,0,1-.56,7.9A13.9,13.9,0,0,1,105.93,342a34.11,34.11,0,0,1-8.93-.4c-7.16-1.65-11.2-8.86-10-17,.27-.17.55-.47.83-.49,1-.06,2,0,3.09,0a6,6,0,0,1,.46,1.31,31,31,0,0,0,.5,4.95c1.87,6.5,8.63,9.54,15.74,7.2,6.15-2,9.14-8.69,6.69-14.94-1.32-3.35-4-5.2-7.18-6.47-4-1.62-8.09-2.94-12-4.65-5.92-2.57-8.17-8.57-7.38-14.41,1.11-8.36,6.74-13,15.47-13C113.52,284,118.44,289.76,118.3,299Z"/><path class="a" d="M47.92,340.91h-5c5.57-18.83,11-37.32,16.5-55.81h6.22c5.44,18.44,10.89,36.92,16.44,55.72l-4.92.61c-1.05-3.85-2.14-8-3.3-12.09-1.26-4.41-1.29-4.43-5.69-4.45-5,0-9.94,0-15.41,0C51.1,330.33,49.5,335.65,47.92,340.91Zm23.54-20.33C68.52,310,65.78,300.05,63,290.13l-1,.1c-2.86,10-5.81,20-8.2,30.35Z"/><path class="a" d="M752.63,285.16h6.24l16.51,55.72-5,.28c-1.59-5.42-3.11-10.62-4.7-16H745.8c-1.48,5.1-3,10.3-4.56,15.73h-5.07C741.67,322.26,747.09,303.89,752.63,285.16Zm3.7,5.15-1.25.09c-2.71,10-5.42,19.89-8.19,30.09h17.77C761.79,310.11,759.06,300.21,756.33,290.31Z"/><path class="a" d="M861.4,341h-5c-1.54-5.29-3.06-10.49-4.62-15.84H831.91c-1.53,5.15-3.08,10.35-4.7,15.76h-5c3.11-10.57,6.12-20.88,9.17-31.17,1.92-6.51,4-13,5.82-19.53,1.58-5.52,1.51-5.54,7.81-4.72C850.41,303.7,855.83,322.09,861.4,341Zm-19-50.66-1.45,0c-2.15,10-5.88,19.69-7.66,30.15H850.7C847.85,310.09,845.14,300.2,842.44,290.3Z"/><path class="a" d="M324.44,285.26V289h-22.7c-.26,7-.08,13.65-.09,20.75h21.42v4.08H302v23.53h23c.14,1.34.24,2.25.37,3.51H296.81V285.26Z"/><path class="a" d="M513.21,285.22h4.4v37.91a34.59,34.59,0,0,0,.12,5c1.5,10,9,11.6,16.68,8.87,4.78-1.7,5.69-6.26,5.76-10.7.14-9.83,0-19.65,0-29.47V285.21h4.47v4.49c0,12.49-.23,25,.08,37.46.21,8.48-5.19,15.37-14.71,14.91-1.33-.06-2.67.07-4,0-7.52-.55-12.59-5.17-12.75-12.72C513,314.7,513.21,300.07,513.21,285.22Z"/><path class="a" d="M206.35,341.12V285.26h27.08c.07,1,.14,2.13.24,3.73H211v20.57h21v4.18H211.08v23.64c7.67.5,15.27,0,23.16.3.06,1.05.11,2,.19,3.44H206.35Z"/><path class="a" d="M867.34,289.05v-3.84h29.95c1,3,.11,5.47-1.36,8q-10.36,17.86-20.59,35.83c-1.45,2.54-2.72,5.17-4.38,8.36h27c.14,1.22.24,2.14.39,3.4H865.78c-1.18-2.52,0-4.69,1.28-6.85L887.26,299c1.72-3,3.4-6,5.33-9.4-4.49-1.12-8.6-.44-12.64-.56S871.67,289.05,867.34,289.05Z"/><path class="a" d="M1436.66,3.84v28.9h-16.24V3.84Z"/><path class="a" d="M289.46,285.23v3.84H275.32c0,9-.05,17.54-.06,26.11s0,17.25,0,26.24l-5.05.28V289.22H255.79v-4Z"/><path class="a" d="M433.85,285.1h4.6V337c3.57.07,6.66.16,9.76.17,3.83,0,7.66,0,11.49-.09,1.61,0,2.55.43,2.6,2.18s-.57,2.48-2.31,2.47c-8.61,0-17.23,0-26.14,0Z"/><path class="a" d="M248.05,341.36l-4.39.47V285.16l4.39-.21Z"/><path class="a" d="M422.06,341.37l-4.4.45V285.25h4.4Z"/><path class="a" d="M907.32,285.83l4.11-.87v55.89l-4.11.23Z"/></svg>