<?xml version="1.0" encoding="utf-8"?>
<!-- Generator: Adobe Illustrator 24.2.1, SVG Export Plug-In . SVG Version: 6.00 Build 0)  -->
<svg version="1.1" id="svg2403" xmlns:svg="http://www.w3.org/2000/svg"
	 xmlns="http://www.w3.org/2000/svg" xmlns:xlink="http://www.w3.org/1999/xlink" x="0px" y="0px" viewBox="0 0 566.9 82.9"
	 style="enable-background:new 0 0 566.9 82.9;" xml:space="preserve">
<style type="text/css">
	.st0{fill:#FFCC0F;}
	.st1{fill:#1B171B;}
</style>
<g id="layer1">
	<g id="g3204" transform="translate(197.32956,-147.16287)">
		<polyline id="polyline11" class="st0" points="-197.3,230 368.5,230 368.5,215.2 -197.3,215.2 		"/>
		<path id="path13" class="st1" d="M344.3,198c0,3-0.5,3.6-3.4,5.5l0.1,0.6h16.1l0.2-0.6c-2.8-1.9-3.4-2.5-3.4-5.5v-45.2
			c9.4,0,11.3,2,15.2,6.5l0.6-0.3l-3-10.7h-35.2l-2.9,10.7l0.6,0.3c3.8-4.6,5.8-6.5,15.1-6.5 M311,147.2c-9.1,0-17.2,5.3-17.2,15.1
			c0,9.2,5.8,13.9,11.7,17.7l4.3,2.8l3.8,2.8c2.2,2,3.7,4.2,3.7,7.2c0,5.3-3.7,8.7-8.1,8.7c-7.7,0-12.6-4.3-13.6-11.4l-0.7-0.3
			l-3,11c0,0,8.4,4.8,17.3,4.8c9.6,0,17.4-5.4,17.4-15.2c0-9.6-5.9-14-11.7-17.6l-4.3-2.6l-3.7-2.8c-2.2-2-3.6-4.3-3.6-7.5
			c0-5.2,2.7-8.7,7.8-8.7c7.7,0,10.8,4.2,11.8,11.2l0.6,0.3l3-10.6C326.4,152,319.3,147.2,311,147.2z M266.1,152
			c7.8,0,13.3,8.3,13.3,24.2c0,16.5-4.8,24.3-13.3,24.3c-7.8,0-13.2-8.2-13.2-24.3C253,160,257.6,152,266.1,152z M266.1,147.6
			c-13.7,0-23.6,11.6-23.6,28.6c0,17,9.9,28.7,23.6,28.7c13.7,0,23.7-11.4,23.7-28.4C289.9,159.5,279.9,147.6,266.1,147.6z
			 M214.3,182h-2.1v-29.2h3.8c9.1,0,12.5,5.1,12.5,15.1C228.4,179.7,222.9,182,214.3,182z M216.3,148.4h-16.5l-0.2,0.6
			c2.4,1.9,3,2.5,3,5.5V198c0,3-0.5,3.6-3,5.5l0.2,0.6h16l0.2-0.6c-3.3-1.9-3.9-2.5-3.9-5.5v-11.6h2.1c15,0,24.6-5.4,24.6-18.9
			C238.9,155.9,232.2,148.4,216.3,148.4z M145.2,204.1h27.5l4.6-10.6l-0.5-0.4c-3.9,4.6-8,6.5-14.4,6.5l-4.8-0.5v-22.6h2.5
			c5.8,0,8.8,0.2,12,1.2l0.5-0.2l1.7-6.2l-0.5-0.2c-3.2,1-6.2,1.1-12,1.1h-4.2V153l3.2-0.1c9.6,0,11.5,2,15.2,6.5l0.5-0.3l-2.9-10.7
			h-28.4l-0.1,0.6c2.4,1.9,2.9,2.5,2.9,5.5V198c0,3-0.5,3.6-2.9,5.5L145.2,204.1z M128,198c0,3-0.5,3.6-2.9,5.5l0.1,0.6h14.9
			l0.2-0.6c-2.4-1.9-3.1-2.5-3.1-5.5v-43.5c0-3,0.6-3.6,3.1-5.5l-0.2-0.6h-14.9l-0.1,0.6c2.4,1.9,2.9,2.5,2.9,5.5v17.2h-18.2v-17.2
			c0-3,0.6-3.6,3-5.5l-0.2-0.6h-15l-0.2,0.6c2.4,1.9,3,2.5,3,5.5V198c0,3-0.5,3.6-3,5.5l0.2,0.6h15l0.2-0.6c-2.4-1.9-3-2.5-3-5.5
			v-21.4H128V198z M67.9,175.9c0-15.7,5.1-24,13.8-24c5.6,0,8.2,5,8.7,11.9L91,164l3.4-12.2c-3.5-2.7-7.5-4.2-12.3-4.2
			c-14.5,0-24.9,11.2-24.9,27.4c0,17.6,9.3,29.9,24.3,29.9c5.8,0,10.1-2.5,13.6-6.1l-2.4-4.8h-0.6c-2.6,4.2-5.3,6.5-10.1,6.5
			C73.4,200.5,67.9,191.9,67.9,175.9z M38,147.2c-9.1,0-17.2,5.3-17.2,15.1c0,9.2,5.8,13.9,11.7,17.7l4.3,2.8l3.8,2.8
			c2.2,2,3.7,4.2,3.7,7.2c0,5.3-3.7,8.7-8,8.7c-7.7,0-12.6-4.3-13.6-11.4l-0.7-0.3l-3,11c0,0,8.4,4.8,17.3,4.8
			c9.6,0,17.4-5.4,17.4-15.2c0-9.6-5.9-14-11.7-17.6l-4.3-2.6l-3.7-2.8c-2.2-2-3.6-4.3-3.6-7.5c0-5.2,2.6-8.7,7.8-8.7
			c7.8,0,10.8,4.2,11.9,11.2l0.6,0.3l3-10.6C53.5,152,46.3,147.2,38,147.2z M2.4,198c0,3-0.5,3.6-3.1,5.5l0.2,0.6h15l0.1-0.6
			c-2.4-1.9-3-2.5-3-5.5v-43.5c0-3,0.6-3.6,3-5.5l-0.2-0.6H-0.4l-0.2,0.6c2.4,1.9,3,2.5,3,5.5L2.4,198L2.4,198z M-16.9,204.1h7.5
			v-49.6c0-3,0.5-3.6,3.4-5.5l-0.2-0.6h-11.4l-0.1,0.6c3.1,1.9,3.6,2.5,3.6,5.5v33.6l-22.2-39.7h-11.6l-0.1,0.6
			c2.8,1.9,3.4,2.5,3.4,5.5V198c0,3-0.6,3.6-3.4,5.5l0.1,0.6h11.4l0.2-0.6c-3.1-1.9-3.7-2.5-3.7-5.5v-34.5L-16.9,204.1z M-64.9,198
			c0,3-0.5,3.6-3,5.5l0.2,0.6h15l0.1-0.6c-2.4-1.9-3-2.5-3-5.5v-43.5c0-3,0.6-3.6,2.9-5.5l-0.1-0.6h-14.8l-0.1,0.6
			c2.4,1.9,2.9,2.5,2.9,5.5V198L-64.9,198z M-103.8,204.1h27.5l4.6-10.6l-0.5-0.4c-3.9,4.6-8.1,6.5-14.4,6.5l-4.9-0.5v-22.6h2.5
			c5.9,0,8.8,0.2,12,1.2l0.6-0.2l1.7-6.2l-0.6-0.2c-3.2,1-6.2,1.1-12,1.1h-4.2V153l3.2-0.1c9.6,0,11.6,2,15.2,6.5l0.6-0.3l-2.9-10.7
			h-28.4l-0.1,0.6c2.4,1.9,3,2.5,3,5.5V198c0,3-0.5,3.6-3,5.5L-103.8,204.1z M-120.9,198c0,3-0.6,3.6-3,5.5l0.2,0.6h14.9l0.2-0.6
			c-2.4-1.9-3-2.5-3-5.5v-43.5c0-3,0.6-3.6,3-5.5l-0.2-0.6h-14.9l-0.2,0.6c2.4,1.9,3,2.5,3,5.5v17.2h-18.2v-17.2c0-3,0.6-3.6,3-5.5
			l-0.2-0.6h-15l-0.1,0.6c2.4,1.9,2.9,2.5,2.9,5.5V198c0,3-0.5,3.6-2.9,5.5l0.1,0.6h15l0.2-0.6c-2.4-1.9-3-2.5-3-5.5v-21.4h18.2V198
			z M-180,181.4l-4.7-0.3v-28.3h3c9.4,0,13.9,4.7,13.9,14.1C-167.8,177.3-172.8,181.4-180,181.4z M-180,148.4H-197l-0.2,0.6
			c2.4,1.9,3,2.5,3,5.5V198c0,3-0.5,3.6-3,5.5l0.2,0.6h15.2l0.2-0.6c-2.4-1.9-3.1-2.5-3.1-5.5v-12.1h4.3l11.7,18.2h13l0.2-0.6
			c-2.9-1.9-4.1-3-5.9-5.5l-9.7-13.6c6.9-2.3,13.8-7.7,13.8-17.8C-157.3,155.4-164.6,148.4-180,148.4z"/>
	</g>
</g>
</svg>
