<?xml version="1.0" encoding="utf-8"?>
<!-- Generator: Adobe Illustrator 24.2.1, SVG Export Plug-In . SVG Version: 6.00 Build 0)  -->
<svg version="1.1" id="svg5766" xmlns:svg="http://www.w3.org/2000/svg"
	 xmlns="http://www.w3.org/2000/svg" xmlns:xlink="http://www.w3.org/1999/xlink" x="0px" y="0px" viewBox="0 0 536.1 222.4"
	 style="enable-background:new 0 0 536.1 222.4;" xml:space="preserve">
<style type="text/css">
	.st0{fill:#1A5681;}
	.st1{fill:#FFFFFF;}
</style>
<g id="layer1" transform="translate(-76.960778,-416.16971)">
	<path id="path442" class="st0" d="M600.9,416.2H77v222.4h426c0,0,21.1-0.2,29.5-19.5l79.3-186.6
		C611.7,432.5,618.5,416.2,600.9,416.2"/>
	<path id="path446" class="st1" d="M299.9,444c-12,0-22.6,6-22.6,19c0,10.3,8.2,15.7,18.5,19.3l1.8,0.7c4.3,1.7,13.6,6.2,13.6,14.9
		c0,8.4-5.4,13.5-14.1,13.5c-9.2,0-15.3-7.2-17.8-18.2h-3.2l1,15.7c4.3,4,12.5,5.9,19.3,5.9c17.4,0,24.3-9.9,24.3-19.9
		c0-11.6-7.9-17.1-19.3-21.3l-3.1-1.2c-6.6-2.5-12.1-6.7-12.1-12.6c0-7.2,4.3-12.5,12.6-12.5c8.4,0,13.1,4.8,14.7,14.7h3.1v-13.8
		C313.3,445.7,306.6,444,299.9,444L299.9,444z M103.1,445.5v2.8c5.8,0.3,6.7,0.6,8.3,6.4c2.3,7.8,5.1,17.6,7.8,27.4l8.3,31.3h7.6
		l15.4-54.4h0.2c6,18.7,11.4,36.8,16.4,54.4h7.5l9.8-35c3.1-11.1,5.4-19.7,6.8-23.5c2-5.7,3-6.2,9.1-6.6v-2.8h-22.5v2.8l6.1,0.6
		c2.4,0.3,2.5,1.7,2.2,3.8c-0.6,3.6-2.7,11.7-5.2,20.9l-7.3,28.1h-0.3c-5.6-18.2-11.2-36.3-16.6-54.4h-7.4l-15,54.4h-0.2
		c-5.1-16.9-9.4-33.4-13.4-48.8c-0.8-3.2-0.3-3.8,2.1-4l4.9-0.5v-2.8L103.1,445.5L103.1,445.5z M207.5,445.5v2.8
		c8.6,0.6,8.8,0.8,8.8,6.3v49.7c0,5.5-0.2,5.7-8.8,6.3v2.8h52l1.2-17h-3c-2.3,12-6.7,13.6-19,13.6c-4.6,0-8.1-0.2-10.2-1
		c-2.1-0.9-2.5-2.5-2.5-7.3v-21.7h13.8c8.3,0,8.7,2.3,9.6,8.5h3v-20.7h-3c-0.9,6.1-1.3,8.5-9.6,8.5H226v-23.8c0-3.1,0.5-3.5,3.6-3.5
		h9.6c11.2,0,13.4,2.5,14.8,12.7h2.9v-16.1L207.5,445.5L207.5,445.5z M333.8,445.5v2.8c8.6,0.6,8.8,0.8,8.8,6.3v49.7
		c0,5.5-0.2,5.7-8.8,6.3v2.8h52l1.2-17h-3c-2.3,12-6.7,13.6-19,13.6c-4.6,0-8.2-0.2-10.2-1c-2.1-0.9-2.4-2.5-2.4-7.3v-21.7h13.8
		c8.3,0,8.7,2.3,9.6,8.5h3v-20.7h-3c-0.9,6.1-1.3,8.5-9.6,8.5h-13.8v-23.8c0-3.1,0.5-3.5,3.6-3.5h9.6c11.2,0,13.4,2.5,14.8,12.7h2.9
		v-16.1L333.8,445.5L333.8,445.5z M401.1,445.5v2.8c8.6,0.6,8.8,0.8,8.8,6.3v49.7c0,5.5-0.2,5.7-8.8,6.3v2.8h27.4v-2.8
		c-8.5-0.6-8.8-0.8-8.8-6.3v-22.9h6.8c5.9,0,10.4,1.9,12.1,8.5c0.7,2.7,1.8,10.5,2.8,15c1.5,6.3,5.2,8.4,11,8.4h8v-2.8
		c-7.7-0.8-9.2-6.3-10.1-13c-1.2-8.7-2.9-15.3-13.3-17.8v-0.2c9.2-1.8,16-7.9,16-17.3c0-9.4-5.9-16.8-23.1-16.8L401.1,445.5
		L401.1,445.5z M426.8,448.9c7.3,0,15.5,2.7,15.5,14.3c0,10.3-5.4,14.8-14.9,14.8h-7.8v-24.2C419.7,449.7,420.4,448.9,426.8,448.9z
		 M110.5,537.8v2.8c8.6,0.6,8.8,0.8,8.8,6.3v49.7c0,5.5-0.2,5.7-8.8,6.3v2.8h27.4v-2.8c-8.5-0.6-8.8-0.8-8.8-6.3v-25.9h0.2l0.1,0.4
		c5.6,8.5,12.4,17.8,20,26.4c5.7,6.5,10.9,8.2,17,8.4l6.2,0.3v-2.3c-4-0.9-7.2-3.6-11.4-8.1c-8.7-9.3-17-19.2-23.6-29.3
		c6.5-7.2,14-14.6,20-19.8c5.1-4.5,7.1-5.6,15.4-6.1v-2.8h-23.8v2.8l3.7,0.3c2.1,0.2,2.3,1.4,0.1,3.9c-5.7,6.4-16.8,18-23.9,25.2
		v-23.2c0-5.5,0.3-5.7,8.8-6.3v-2.8H110.5L110.5,537.8z M180.8,537.8v2.8c8.6,0.6,8.8,0.8,8.8,6.3v34c0.1,5.8,1,11,2.7,14.3
		c4.5,9.6,14.8,12,24.4,12c9.7,0,20-2.3,24.5-12c1.7-3.4,2.7-8.6,2.7-14.5v-33.8c0-5.5,0.3-5.7,8.8-6.3v-2.8h-27.4v2.8
		c8.6,0.6,8.8,0.8,8.8,6.3v31.8c0,9.3-1.5,15.2-4.4,19.1c-3,3.9-7.4,5.9-13.1,5.9c-5.6,0-9.9-2-12.9-5.9c-2.9-3.9-4.4-9.8-4.4-19.1
		v-31.8c0-5.5,0.3-5.7,8.8-6.3v-2.8H180.8z M264.7,537.8v2.8c8.6,0.6,8.8,0.8,8.8,6.3v49.7c0,5.5-0.2,5.7-8.8,6.3v2.8h27.4v-2.8
		c-8.5-0.6-8.8-0.8-8.8-6.3v-22.8h6.8c5.9,0,10.4,1.9,12.1,8.5c0.7,2.7,1.8,10.5,2.8,15c1.5,6.3,5.2,8.4,11,8.4h7.9v-2.8
		c-7.7-0.8-9.2-6.3-10.1-12.9c-1.2-8.7-3-15.3-13.4-17.9v-0.2c9.2-1.8,16-8,16-17.3c0-9.4-5.9-16.8-23.1-16.8H264.7z M335.6,537.8
		v2.8c8.6,0.6,8.8,0.8,8.8,6.3v49.7c0,5.5-0.2,5.7-8.8,6.3v2.8H363v-2.8c-8.5-0.6-8.8-0.8-8.8-6.3v-49.7c0-5.5,0.3-5.7,8.8-6.3v-2.8
		H335.6z M379,537.8v2.8c8.6,0.6,8.8,0.8,8.8,6.3v49.7c0,5.5-0.2,5.7-8.8,6.3v2.8h52l1.2-17h-3c-2.3,12-6.7,13.5-19,13.5
		c-4.6,0-8.1-0.2-10.2-1c-2.1-0.9-2.5-2.5-2.5-7.3v-21.7h13.8c8.3,0,8.7,2.4,9.6,8.6h2.9V560h-2.9c-0.9,6.1-1.3,8.4-9.6,8.4h-13.8
		v-23.8c0-3.1,0.5-3.5,3.6-3.5h9.6c11.2,0,13.4,2.5,14.8,12.7h2.9v-16.1H379z M446.2,537.8v2.8c8.6,0.6,8.8,0.8,8.8,6.3v49.7
		c0,5.5-0.2,5.7-8.8,6.3v2.8h27.4v-2.8c-8.5-0.6-8.8-0.8-8.8-6.3v-22.8h6.8c5.9,0,10.4,1.9,12.1,8.5c0.7,2.7,1.8,10.5,2.9,15
		c1.5,6.3,5.2,8.4,11,8.4h8v-2.8c-7.7-0.8-9.2-6.3-10.1-12.9c-1.2-8.7-2.9-15.3-13.3-17.9v-0.2c9.2-1.8,16-8,16-17.3
		c0-9.4-5.9-16.8-23.1-16.8H446.2z M290.4,541.2c7.3,0,15.5,2.6,15.5,14.2c0,10.3-5.4,14.8-14.9,14.8h-7.8v-24.2
		C283.3,542,283.9,541.2,290.4,541.2z M471.9,541.2c7.3,0,15.5,2.6,15.5,14.2c0,10.3-5.4,14.8-14.9,14.8h-7.8v-24.2
		C464.7,542,465.4,541.2,471.9,541.2z"/>
</g>
</svg>
