<?xml version="1.0" encoding="utf-8"?>
<!-- Generator: Adobe Illustrator 24.2.1, SVG Export Plug-In . SVG Version: 6.00 Build 0)  -->
<svg version="1.1" id="svg5003" xmlns:svg="http://www.w3.org/2000/svg"
	 xmlns="http://www.w3.org/2000/svg" xmlns:xlink="http://www.w3.org/1999/xlink" x="0px" y="0px" viewBox="0 0 811 768"
	 style="enable-background:new 0 0 811 768;" xml:space="preserve">
<style type="text/css">
	.st0{fill:#009037;}
</style>
<path id="path4902" d="M131.3,127.3v510.8H287c90.9,0,159.2-40.9,159.2-146.7c0-60.7-31.7-112.2-92.3-119.2v-1.4
	c52.1-12.7,70.4-60,70.4-106.5c0-81.8-47.9-136.9-151.4-136.9L131.3,127.3z M461.6,127.3v64.9h109.2v445.9h71.8V192.2h109.2v-64.9
	L461.6,127.3z M203.1,192.2h65.5c45.1,0,83.8,24,83.8,75.5s-38.7,75.5-83.8,75.5h-65.5L203.1,192.2L203.1,192.2z M203.1,408.1h78.2
	c59.2,0,93,36.7,93,82.5c0,54.3-26.8,82.6-88.8,82.6h-82.4V408.1z"/>
<path id="path4910" class="st0" d="M62.4,407V62.3h311.3L406,21.7H21.9V407H62.4z"/>
<path id="path4914" d="M748.6,360.8v344.9H443.4l-38.2,40.5H789V360.8H748.6z"/>
</svg>
