<svg xmlns="http://www.w3.org/2000/svg" viewBox="0 0 326.39 37.36"><defs><style>.a{fill:#0a0b0b;}.b{fill:#080809;}.c{fill:#1e1e1e;}.d{fill:#0b6ba4;}.e{fill:#191919;}.f{fill:#11669c;}.g{fill:#0b4062;}.h{fill:#064b75;}.i{fill:#02446b;}.j{fill:#186090;}.k{fill:#163e5d;}.l{fill:#1f3b55;}.m{fill:#125581;}.n{fill:#2d2d2e;}.o{fill:#0f5b8c;}.p{fill:#2a6d9d;}.q{fill:#194769;}.r{fill:#2a6087;}.s{fill:#4e6c86;}.t{fill:#3b6c92;}.u{fill:#d9e2ec;}.v{fill:#769cb9;}.w{fill:#4e7b9f;}.x{fill:#c3d1df;}.y{fill:#95b7d2;}.z{fill:#eff2f6;}</style></defs><path class="a" d="M120.63,23.83c1.66-6.08,3.32-12.17,5-18.31h7.44c1.65,6.06,3.32,12.17,5,18.28h.24c1.57-6.08,3.15-12.16,4.74-18.3h7.07c-2.52,9-5,17.89-7.55,26.87h-8.3c-1.6-5.42-3.21-10.9-4.88-16.61A32.28,32.28,0,0,0,128,19.91c-.43,1.41-.83,2.83-1.25,4.24s-.8,2.75-1.21,4.12-.81,2.73-1.23,4.13h-8.28c-2.51-8.92-5-17.86-7.56-26.9h7.16l4.76,18.29Z"/><path class="b" d="M176.22,21.48H157.58A6.13,6.13,0,0,0,160.65,26a8.08,8.08,0,0,0,6.73.29,33.31,33.31,0,0,0,3.58-1.8L175.08,29c-.42.36-.78.71-1.18,1a14.1,14.1,0,0,1-6.19,2.69,18.5,18.5,0,0,1-7.84-.14,12.23,12.23,0,0,1-9.21-9,16.19,16.19,0,0,1,.59-10.89c2.07-4.89,5.87-7.39,11.1-7.8a13.14,13.14,0,0,1,6.11.85c4.27,1.77,6.62,5.09,7.56,9.49A19,19,0,0,1,176.22,21.48Zm-18.61-5.21H169c-.5-3.21-2.55-5.16-5.48-5.19S158.34,12.46,157.61,16.27Z"/><path class="a" d="M0,32.46V5.54a3.87,3.87,0,0,1,.67-.1c3.71,0,7.43-.05,11.14,0a14.06,14.06,0,0,1,7.38,2.12A12.38,12.38,0,0,1,25,17.73a15.16,15.16,0,0,1-.57,5.67,12.12,12.12,0,0,1-9.16,8.54,17.87,17.87,0,0,1-4.13.49c-3.32.07-6.63,0-9.94,0Zm6.5-6.22a58.23,58.23,0,0,0,5.92,0,5.91,5.91,0,0,0,5.2-4,9.2,9.2,0,0,0,.1-6.21,5.82,5.82,0,0,0-4.55-4.12c-2.2-.49-4.42-.21-6.67-.25Z"/><path class="a" d="M60.06,26.46v5.92H39.39V5.5H59.92A12,12,0,0,1,60,8.43c0,1,0,1.9,0,3H46.33v4.46H59.12V21.8a30.19,30.19,0,0,1-3.16.06c-1.08,0-2.16,0-3.24,0H46.33v4.6Z"/><path class="a" d="M216.55,11.66h-7.63V32.41H202c0-1.39,0-2.78,0-4.16V11.67h-7.55a27.32,27.32,0,0,1-.08-6.17h22.25A23.53,23.53,0,0,1,216.55,11.66Z"/><path class="b" d="M186.62,26.28H198v6c-.87.22-16,.3-18.1.08V5.51h6.77Z"/><path class="a" d="M35.08,32.42H28.33c-.24-.85-.3-25.5-.06-26.91H35C35.23,6.34,35.29,30.75,35.08,32.42Z"/><path class="c" d="M275.2,17.67v6.58l1.35.34.09.8h-5.1v-.76l1.25-.36V21.08c0-.75,0-1.52,0-2.27-.17-1.81-1.38-2.49-3-1.75a9,9,0,0,0-.84.48v6.73l1.38.31.14.81h-5.23v-.81l1.3-.29V22.77c0-1.35,0-2.71,0-4.06,0-1.06-.08-1.95-1.33-2.08-.27-.62.1-.78.51-.9l3.06-.84.18,1.4.7-.37a13.19,13.19,0,0,1,1.81-.89,2.64,2.64,0,0,1,3.24,1.1l.32.43a6.24,6.24,0,0,1,1-.69,10.63,10.63,0,0,1,2.17-.94,2.59,2.59,0,0,1,3.14,1.9,7.51,7.51,0,0,1,.22,1.89c0,1.83,0,3.66,0,5.53l1.38.35v.79h-5.09l0-.75,1.25-.37c0-1.84.13-3.67,0-5.48C278.87,16.59,277.17,16.12,275.2,17.67Z"/><path class="d" d="M104.15,14.49l.1.52c-.28.2-.23.35.07.46l.12.51c-.17.42-.33.83.12,1.18v2.39c-.76.1-1.09-.45-1.47-.95a5.46,5.46,0,0,0-2.64-2.17A3.67,3.67,0,0,0,99,13.67l.21-1.09c-.34.1-.61.09-.71.22a4.39,4.39,0,0,0-.42.84c-.42-.47-.82-1-1.28-1.4-1.39-1.35-2.84-2.64-4.22-4-1-1-1.89-2-2.8-3.05-.14-.15-.11-.44-.15-.67l2,.35,1-.33.62-.77L94,3.38l-1-.53-.87-.45.21-.55-2.13-1L90.41.6l.44.06.53.15a18.65,18.65,0,0,1,12.45,12.44,9,9,0,0,1,.23,1A.27.27,0,0,0,104.15,14.49ZM92.28,5.33c-.27.14-.54.27-.81.42,0,0,0,.11,0,.29l.87.1V5.58C92.3,5.47,92.28,5.35,92.28,5.33Zm8.09,7c-.06.24-.12.35-.1.45a.32.32,0,0,0,.17.22s.2-.09.2-.15S100.56,12.7,100.37,12.35Z"/><path class="c" d="M287.33,25.57v4.25l1.57.28.1.84h-5.47l.09-.83.63-.13.62-.14c0-.29.1-.56.1-.82V18.73c0-.2,0-.4,0-.59a1.24,1.24,0,0,0-1-1.42,2.47,2.47,0,0,1-.42-.17v-.61l3.68-1.07c.05.57.1,1.06.15,1.66.46-.33.83-.61,1.23-.87a3.7,3.7,0,0,1,5,.85c2.29,3,.93,8-2.74,9.06A7.38,7.38,0,0,1,287.33,25.57Zm-.05-2.13.63.53c1.5,1.28,3.06.92,3.82-.9a5.77,5.77,0,0,0,.15-4.07c-.75-2.37-2.84-2.82-4.6-.94v5.38Z"/><path class="c" d="M252.71,24.58v.8h-3.54l-2.81-4.62-.82.58v2.9l1.2.38.14.53c-.27.37-2.63.44-5.07.22v-.76l1.22-.32V12.36c-.3-.68-1.55-.37-1.53-1.54l4-1.15v10.1l.24.1c.91-1.06,2.25-1.72,2.92-3.23L247.48,16l0-.71h5v.78c-1.83.44-3,1.84-4.38,3.1.32.49.6,1,.91,1.41.58.86,1.19,1.7,1.76,2.56A2.48,2.48,0,0,0,252.71,24.58Z"/><path class="c" d="M311.94,25.4h-5v-.78l1.29-.33V12.22l-1.48-.72,0-.69,3.87-1.13c0,.91,0,1.72,0,2.53V19.8l.23.09c.94-1.08,2.44-1.68,2.84-3.32L312.57,16v-.71h5.07l-.11.79c-1.85.45-3,1.88-4.41,3.09,1.09,1.57,2.12,3.13,3.24,4.62a5.81,5.81,0,0,0,1.49,1l0,.61h-3.57c-.95-1.54-1.9-3.1-2.88-4.71l-.8.73v2.83l1.29.38Z"/><path class="e" d="M302.15,24.31a13.73,13.73,0,0,1-1.48,1.12,2.8,2.8,0,0,1-3.7-.87,2.5,2.5,0,0,1,.76-3.56,20.7,20.7,0,0,1,3.14-1.43,12,12,0,0,1,1.31-.39c.18-2.63-1.1-3.57-3.49-2.61a8.09,8.09,0,0,1,.34.86,1.14,1.14,0,0,1-.53,1.34,1.5,1.5,0,0,1-1.67-.18,1.11,1.11,0,0,1-.09-1.52,1.87,1.87,0,0,1,.37-.47,6.08,6.08,0,0,1,4.57-1.73,2.7,2.7,0,0,1,2.87,2.88c.08,1.7,0,3.42,0,5.13,0,.38.05.76.09,1.32l1.48-.52.32.41C304.92,26.37,303.26,26.46,302.15,24.31Zm0-4.21a7.49,7.49,0,0,0-1.16.39,8.11,8.11,0,0,0-1.71,1,1.44,1.44,0,0,0-.16,1.95,1.52,1.52,0,0,0,1.9.49,12.37,12.37,0,0,0,1.13-.67Z"/><path class="e" d="M263.84,20.21a5.44,5.44,0,0,1-7.14,5.34,4.67,4.67,0,0,1-3.24-3.5,5.52,5.52,0,0,1,2.28-6.26,5.19,5.19,0,0,1,5.54-.3A4.8,4.8,0,0,1,263.84,20.21Zm-2.49.45c-.16-1-.24-1.83-.45-2.63a2.43,2.43,0,0,0-4.79-.12,1.45,1.45,0,0,0-.09.22,8.28,8.28,0,0,0,.38,5,2.37,2.37,0,0,0,4.47-.1A14.26,14.26,0,0,0,261.35,20.66Z"/><path class="f" d="M89.67,4.51c0,.23,0,.52.15.67.91,1,1.82,2.08,2.8,3.05,1.38,1.37,2.83,2.66,4.22,4,.46.43.86.93,1.28,1.4.45.75,1.17,1.32,1.3,2.28.06.44.55.62,1,.51a5.46,5.46,0,0,1,2.64,2.17c.38.5.71,1,1.47.95l0,1.19c-.46.23-.18.64-.25,1l.18.25-.07.44-.1.27h0l-.42,0,0-.43c.14-.69.46-1.41-.37-1.91h0l-.19-.28h0l-.14-.47-.38.44-.93.31-.26,0,0,0c-.12-.69-1-.37-1.24-.94,0-.06-.28,0-.43,0-.42-.38-.87-.74-1.26-1.15C98,17.4,97,16.78,96.86,15.6l.52-.33c-.1-.81-.83-.75-1.17-1l-.46-.93-.42,1.24-1-.68c-.86-.8-1.73-1.59-2.58-2.4-.31-.31-.6-.63-1.1-.52l-.07-1,.25-.16v-1c.37.09.73.15.92-.61l-.94.55L90,8.51a1.26,1.26,0,0,1-.25-1.45c.19-.37.12-.64-.32-.81L89,7.58l-.71-.35-.82-.4V5.35C88.37,4,88.63,3.94,89.67,4.51Z"/><path class="g" d="M82.94,20.47l.49-.75h.19l0,.08c-.13.63.35.93.7,1.28L95.16,31.85c.27.28.51.59.76.89l0,.67,0,0-.48.36-1.09.63a5.27,5.27,0,0,1-1-.58c-.92-.88-1.79-1.8-2.71-2.68a5.91,5.91,0,0,0-1-.61c0-.3-.06-.49-.4-.5l0,0c-.15-.25-.32-.26-.51,0H88a.63.63,0,0,0,0-.19l.28-.5c-.49-.57-1-1.18-1.51-1.74-1.38-1.41-2.8-2.79-4.18-4.2a5.54,5.54,0,0,1-.6-1c.15-.35.3-.69.46-1s.19-.41.28-.61Z"/><path class="h" d="M98.79,28.65l-1.53,1.48a18.54,18.54,0,0,1-1.79-1.34c-2.57-2.52-5.1-5.06-7.64-7.61-.41-.42-.74-.93-1.15-1.34a3.92,3.92,0,0,0-.88-.54,5.85,5.85,0,0,1,3.4-.64l.09,1.27,2.53.85c.41.35.84.69,1.23,1.07q2.61,2.58,5.2,5.19c.34.34.66.71,1,1.07L99,28.4Z"/><path class="c" d="M321.68,13.08l.95.17v2h3.67l-.18,1.36H322.8a6.83,6.83,0,0,0-.2,1.07c-.05,1.43-.1,2.87-.09,4.3,0,1.72.89,2.39,2.56,2l1.32-.33c-.1.37-.09.67-.23.82a4.21,4.21,0,0,1-3.92,1.3,2.73,2.73,0,0,1-2-2.88c0-1.4.05-2.79.08-4.18,0-.6,0-1.19,0-1.89l-1.61-.24a.9.9,0,0,1,.36-1.15Z"/><path class="i" d="M85.8,19.3a3.92,3.92,0,0,1,.88.54c.41.41.74.92,1.15,1.34,2.54,2.55,5.07,5.09,7.64,7.61a18.54,18.54,0,0,0,1.79,1.34.71.71,0,0,0-.08.18l-.32.48-.51,1.44-.43.51c-.25-.3-.49-.61-.76-.89L84.37,21.08c-.35-.35-.83-.65-.7-1.28l.4-.11.32.11c.15.29.3.31.48,0Z"/><path class="j" d="M96.86,15.6c.18,1.18,1.14,1.8,1.88,2.57.39.41.84.77,1.26,1.15a1.44,1.44,0,0,0,1,1.68l.62-.72,0,0v.26l.19.23.33.41v.6a5.63,5.63,0,0,1-3.4,4v-.11a4.82,4.82,0,0,0-.19-1.5c-.51-1.14-1.14-2.23-1.7-3.3l-.51.14-.51-1a1.55,1.55,0,0,0,.59-2.13l-2.24.1-.51-1.42L94,16l.48.21A2.45,2.45,0,0,1,96.86,15.6Z"/><path class="k" d="M82,22.39a5.54,5.54,0,0,0,.6,1c1.38,1.41,2.8,2.79,4.18,4.2.55.56,1,1.17,1.51,1.74l-.28.5-.2,0a1.07,1.07,0,0,0-1.22-.06A3.89,3.89,0,0,1,81,28.17a4.92,4.92,0,0,0-.5-1.92l0-.39V24.49a.2.2,0,0,1,.06-.15l.23-.5h0l.24-.49.31-.44.19-.2Z"/><path class="l" d="M77.7,36.53C72.86,34.64,68.48,29.26,68,26.3c.16,0,.35-.06.43,0,.59.49,1.16,1,1.75,1.5s1,.82,1.56,1.26a4.09,4.09,0,0,1,1,1c.55,1,1.57,1.24,2.45,1.71.59.31,1.25.5,1.82.84s.47,1.1.38,1.7l1,1.37-.14.61Z"/><path class="m" d="M98.79,25.65v.11l.11.57,1.57-.72a4.65,4.65,0,0,1-1.22,2.5c-.33-.36-.65-.73-1-1.07q-2.59-2.61-5.2-5.19c-.39-.38-.82-.72-1.23-1.07.71.07.34-.8.9-.94.76-.11.76-.11,2.14.39l.32-.13.7-.16.51,1c.51,1.24,1,2.49,1.55,3.71A4.43,4.43,0,0,0,98.79,25.65Z"/><path class="k" d="M89.65,30.55a5.91,5.91,0,0,1,1,.61c.92.88,1.79,1.8,2.71,2.68a5.27,5.27,0,0,0,1,.58,7.24,7.24,0,0,1-4.52,2.94l-.27-2.6.62-.85a.76.76,0,0,0,0-1.19l-.71-1Z"/><path class="n" d="M229.74,33.88c-.23-.1-.36-.13-.36-.16q-.07-14.56-.12-29.13a3.8,3.8,0,0,1,.25-.8,5.93,5.93,0,0,1,.27.83,4.31,4.31,0,0,1,0,.72V32.59C229.79,33,229.76,33.41,229.74,33.88Z"/><path class="k" d="M67.51,12.51a.47.47,0,0,1,.06-.15l.27-.71.72-1.44a2.81,2.81,0,0,1,2.63,1.9l-.23.27-.44,0c-.37-.52-.65-.32-.94.05l.25.45-.2.93.85.29-1.27.67-.54-.33a1.73,1.73,0,0,1-.19.28,11.13,11.13,0,0,0-1.6,3.1,2.51,2.51,0,0,1-.24-.46c-.08-.24-.11-.49-.17-.74l.42-2.15,1-.25C67.76,13.59,68.06,13,67.51,12.51Z"/><path class="m" d="M83.89,14.56c0-.5.48-.25.7-.4a2.76,2.76,0,0,0,1.53-1.28l.18,0,.27-.42,0,0,.4-.29,0,0,.28.06,1.88,2c.27.28.63.52.48,1-.6.15-.17.52-.16.8l-.32.3-.92-.48-.85.65-.73-.15-1-.79-.51.27L85,15.34l-.23-.3-.66-.28Z"/><path class="o" d="M80.85,5.21l-.77.46h-.73c-.07-.77-.76-1-1.22-1.49l-.69.3c.2-.88,1-1.22,1.54-1.86l1.32-1,.49-.2.72,0a2.19,2.19,0,0,0,.35.7,1.38,1.38,0,0,1,.41,1.06.21.21,0,0,1-.08.17l-.2.22,0,0-.23.21h0c-.42,0-.49.24-.4.59l0,.39a1.29,1.29,0,0,0-.44,0C80.43,4.88,80.51,5.06,80.85,5.21Z"/><path class="m" d="M77.44,4.47l.69-.3c.46.47,1.15.72,1.22,1.49a1.62,1.62,0,0,1,0,.22h0l-.45.25c-.14.14-.27.37-.43.4-1.36.25-2,1.31-2.72,2.31a2.63,2.63,0,0,1-.29.25,1,1,0,0,1-.51-1.37,4,4,0,0,1,1.37-2.18,3.64,3.64,0,0,0,.54-.62A.21.21,0,0,0,77,4.75Z"/><path class="p" d="M82.27,3.1A1.38,1.38,0,0,0,81.86,2a2.19,2.19,0,0,1-.35-.7c-.27-.34-.51-.38-.72,0l-.49.2c-.08-.07-.18-.2-.23-.19-.43.15-.84.33-1.26.5a.43.43,0,0,1-.19,0l-.08-.16-.1.2c-.24.67-.78.44-1.25.39V1.82A13.68,13.68,0,0,1,84.68.06Z"/><path class="q" d="M71.19,12.11a2.81,2.81,0,0,0-2.63-1.9l.75-1.42c.11.28.22.55.34.82l.12-.16.81-.94,1.56-1.84c.4.43.06.86-.06,1.32l.46.25a7.54,7.54,0,0,1-.29.74A3,3,0,0,0,72,11.23c0,.12-.06.27-.09.41l-.19.28h0Z"/><path class="h" d="M85.13,15.72l.51-.27,1,.79c-.17.33-.12.8-.63.94a.63.63,0,0,0-.35.45,2.28,2.28,0,0,1-1.77,1.79l.17.27-.4.11,0-.08-.19-.38-.83-.41-.11-.82c.49-.48.12-1.09.24-1.63l.46-.05a1.08,1.08,0,0,0,1.44,0,.37.37,0,0,1,.18-.05L85,16.1Z"/><path class="j" d="M87.42,6.83l.82.4.71.35a1.38,1.38,0,0,0,.47,1.36v1.39l-.49.56c-.15-.08-.37-.11-.44-.23-.22-.4-.39-.82-.63-1.34l-.71.64h-.08c-1,0-.81-.85-1-1.42Z"/><path class="r" d="M77.19,1.82v.47c0,.16,0,.38,0,.46a13.31,13.31,0,0,0-2.39,3.14c-.38.05-.44-.2-.46-.5.24-.35.46-.71.73-1s.38-.5,0-.83l-1,1.13c-.45.32-1.14.34-1.31,1a.2.2,0,0,0-.11.18L72.18,6l-.5.14-.29,0a14.81,14.81,0,0,1,5.3-4.07L77,1.9Z"/><path class="r" d="M84.35,13.53l-.54.06-.12-1.47v0l.4,0-.16-.5-.39-.4-.24-.79L84,10l1.66,2.85c-.25.17-.49.35-.75.5A4.15,4.15,0,0,1,84.35,13.53Z"/><path class="s" d="M96.39,33l1.27-.59a5.64,5.64,0,0,1-2.93,2.88c.18-.68.76-1,1.08-1.41l.07-.42,0,0,.5-.14V33Z"/><path class="t" d="M82,7.42c-.61.38-1.11.93-1.88.3v-.9l1.69-.13Z"/><path class="u" d="M71.68,6.15l.5-.14,0,.66L70.58,8.51l-.81.94c.09-.36.16-.73.27-1.08s.29-.7.44-1h0c.33-.13.56-.33.49-.73h0Z"/><path class="t" d="M74.29,5.39c0,.3.08.55.46.5l-2,1.55-.07-.78c.24-.19.39-.38,0-.58a.31.31,0,0,1,0-.23.2.2,0,0,1,.11-.18l1.07-.26Z"/><path class="s" d="M66.47,16.67c.06.25.09.5.17.74a2.51,2.51,0,0,0,.24.46c0,.59,0,1.18,0,1.77a7.12,7.12,0,0,1-.1,1.23A7.78,7.78,0,0,1,66.47,16.67Z"/><path class="t" d="M83.53,11.2l.39.4-.24.54v0c-.32.47-.5,1.14-1.36.89V12Z"/><path class="s" d="M71.19,12.11l.52-.2c-.54.7.22,1.5-.2,2.29l-1-.56L71,12.38Z"/><path class="v" d="M92.22,3.41c-.24,0-.59.11-.72,0-.67-.62-1.61-1-2.15-2C90.62,1.73,91.16,2.88,92.22,3.41Z"/><path class="s" d="M67.51,12.51c.55.47.25,1.08.35,1.76l-1,.25Z"/><path class="w" d="M87.07,10h.08l.84.5v.95l-.72.73L87,12.08l.43-.32Z"/><path class="v" d="M103.89,22.63l.42,0a3.22,3.22,0,0,1-.54,2C103.45,23.86,103.9,23.25,103.89,22.63Z"/><path class="w" d="M70.48,7.33c-.15.34-.32.68-.44,1s-.18.72-.27,1.08l-.12.16c-.12-.27-.23-.54-.34-.82C69.6,8.23,69.79,7.58,70.48,7.33Z"/><path class="x" d="M84.35,13.53a4.15,4.15,0,0,0,.53-.2c.26-.15.5-.33.75-.5l.49.05a2.76,2.76,0,0,1-1.53,1.28Z"/><path class="s" d="M77.7,36.53l.46-.24,1.1.65A1.71,1.71,0,0,1,77.7,36.53Z"/><path class="v" d="M78.81,1.9c.42-.17.83-.35,1.26-.5.05,0,.15.12.23.19L79,2.61Z"/><path class="s" d="M80.53,26.25a4.92,4.92,0,0,1,.5,1.92C80.41,27.65,80.52,26.93,80.53,26.25Z"/><path class="v" d="M93,2.85l1,.53-.74.38-.41-.12Z"/><path class="v" d="M103.56,20.29c.83.5.51,1.22.37,1.91Z"/><path class="s" d="M89.65,30.55l-.22,1.21a1.66,1.66,0,0,1-.24-.57,10.88,10.88,0,0,1,.06-1.14C89.59,30.06,89.69,30.25,89.65,30.55Z"/><path class="s" d="M69.83,12.93l-.25-.45c.29-.37.57-.57.94-.05Z"/><path class="y" d="M90.41.6l-.24.26L89.09.58l0-.21Z"/><path class="p" d="M104.56,17.16c-.45-.35-.29-.76-.12-1.18Z"/><path class="t" d="M82.73,16.48c-.12.54.25,1.15-.24,1.63,0-.43,0-.86,0-1.29C82.51,16.7,82.65,16.59,82.73,16.48Z"/><path class="w" d="M96.4,33.27l-.5.14,0-.67.43-.51,0,.74h0l-.32.1Z"/><path class="p" d="M104.3,21.71c.07-.33-.21-.74.25-1l0,1Z"/><path class="t" d="M84.63,16.44a1.08,1.08,0,0,1-1.44,0Z"/><path class="p" d="M80.85,5.21c-.34-.15-.42-.33,0-.49a1.29,1.29,0,0,1,.44,0Z"/><path class="s" d="M90.14,32.72a.76.76,0,0,1,0,1.19Z"/><path class="w" d="M71.68,6.15,71,6.62l.44-.49Z"/><path class="s" d="M80.49,24.49v1.37A1.3,1.3,0,0,1,80.49,24.49Z"/><path class="w" d="M71,6.61c.07.4-.16.6-.49.73Z"/><path class="p" d="M81.32,4.32c-.09-.35,0-.58.4-.59Z"/><path class="v" d="M102.84,20l.38-.44.14.47Z"/><path class="t" d="M79.34,5.88a1.62,1.62,0,0,0,0-.22h.73Z"/><path class="s" d="M67.84,11.65l-.27.71Z"/><path class="w" d="M95.88,33.43l-.07.42-.41-.06Z"/><path class="s" d="M80.78,23.84l-.23.5Z"/><path class="w" d="M102.18,21.76v-.6C102.44,21.36,102.41,21.56,102.18,21.76Z"/><path class="p" d="M104.32,15.47c-.3-.11-.35-.26-.07-.46Z"/><path class="o" d="M86.57,12.42l-.27.42Z"/><path class="o" d="M87,12.1l-.4.29Z"/><path class="s" d="M81,23.35l-.24.49Z"/><path class="z" d="M83.43,19.34l.19.38h-.19Z"/><path class="t" d="M78.87,6.14l.45-.25Z"/><path class="u" d="M72.68,6.08c.37.2.22.39,0,.58Z"/><path class="s" d="M88.7,30c.19-.22.36-.21.51,0Z"/><path class="h" d="M96.86,30.79l.32-.48Z"/><path class="y" d="M91.38.81,90.85.66Z"/><path class="g" d="M81.51,22.71l-.19.2Z"/><path class="p" d="M77,1.9l-.26.16Z"/><path class="v" d="M78.44,1.9l.1-.2.08.16Z"/><path class="w" d="M84.81,15l.23.3Z"/><path class="s" d="M71.71,11.92l.19-.28Z"/><path class="p" d="M81.74,3.72,82,3.51Z"/><path class="o" d="M77,4.75a.21.21,0,0,1-.13.18Z"/><path class="v" d="M103.37,20l.19.28Z"/><path class="m" d="M98.79,28.65,99,28.4Z"/><path class="s" d="M87.79,29.82l.2,0A.63.63,0,0,1,88,30Z"/><path class="v" d="M104.3,21.71l.21,0,0,.27Z"/><path class="h" d="M82.94,20.47l-.22.28Z"/><path class="p" d="M82,3.49l.2-.22Z"/><path class="v" d="M104.31,22.67l.1-.27Z"/><path class="p" d="M104.15,14.49a.27.27,0,0,1-.09-.21Z"/><path class="x" d="M83.89,14.56l.26.2Z"/><path class="w" d="M85,16.1l-.21.29Z"/><path class="w" d="M101.85,20.75l-.19-.23h.11l.11,0A.76.76,0,0,1,101.85,20.75Z"/><path class="u" d="M101.88,20.54l-.11,0h-.11v-.26l.26,0Z"/><path class="u" d="M100.46,16.43c-.49.11-1-.07-1-.51-.13-1-.85-1.53-1.3-2.28a4.39,4.39,0,0,1,.42-.84c.1-.13.37-.12.71-.22L99,13.67A3.67,3.67,0,0,1,100.46,16.43Z"/><path class="v" d="M100.37,12.35c.19.35.29.44.27.52s-.15.17-.2.15a.32.32,0,0,1-.17-.22C100.25,12.7,100.31,12.59,100.37,12.35Z"/><path class="o" d="M87.27,12.14l.72-.73c.32.44.64.08,1,0l1.71-.48c.5-.11.79.21,1.1.52.85.81,1.72,1.6,2.58,2.4l-.2.43-.12.3L94,16l-.26.52a.71.71,0,0,0-.93.5c0,.36.64.78,0,1.13l-.87-.75-.36-.95-1.89-1.3c.15-.48-.21-.72-.48-1Z"/><path class="u" d="M90.66,10.94,89,11.42l0-.53.49-.56V8.94A1.38,1.38,0,0,1,89,7.58l.52-1.33c.44.17.51.44.32.81A1.26,1.26,0,0,0,90,8.51l.78.16,0,.06v1l-.25.16Z"/><path class="z" d="M94,16l0-1.38.12-.3.2-.43,1,.68.42-1.24.46.93c.34.29,1.07.23,1.17,1l-.52.33a2.45,2.45,0,0,0-2.4.58Z"/><path class="u" d="M101.67,20.28l-.62.72a1.44,1.44,0,0,1-1-1.68c.15,0,.41,0,.43,0C100.66,19.91,101.55,19.59,101.67,20.28Z"/><path class="y" d="M90.84,8.73l0-.06.94-.55C91.57,8.88,91.21,8.82,90.84,8.73Z"/><path class="z" d="M91.88,17.37l.87.75c.68-.35,0-.77,0-1.13a.71.71,0,0,1,.93-.5l.51,1.42,2.24-.1a1.55,1.55,0,0,1-.59,2.13l-.7.16-.32.13c-1.38-.5-1.38-.5-2.14-.39-.56.14-.19,1-.9.94l-2.53-.85-.09-1.27a5.85,5.85,0,0,0-3.4.64l-.93.52-.48,0-.32-.11-.17-.27a2.28,2.28,0,0,0,1.77-1.79.63.63,0,0,1,.35-.45c.51-.14.46-.61.63-.94l.73.15.85-.65.92.48a11.09,11.09,0,0,1,1,.81,4.22,4.22,0,0,1,.5.85l-.83.37.82.3v-.69c.58.11.41-.52.69-.71Zm-3.52.48c.41-.32.5-.6-.12-.76Zm5.52.92v-.16l-.48.06v.15Z"/><path class="h" d="M84.39,19.8l.48,0C84.69,20.11,84.54,20.09,84.39,19.8Z"/><path class="z" d="M98.79,25.65a4.43,4.43,0,0,1-.85-.95c-.56-1.22-1-2.47-1.55-3.71l.51-.14c.56,1.07,1.19,2.16,1.7,3.3A4.82,4.82,0,0,1,98.79,25.65Z"/><path class="j" d="M94.86,20.23l.32-.13Z"/><path class="u" d="M91.88,17.37l-.57-.22a3.31,3.31,0,0,0-.54-.52c-.42-.27-.87-.48-1.3-.71,0-.28-.44-.65.16-.8l1.89,1.3Z"/><path class="w" d="M89.47,15.92c.43.23.88.44,1.3.71a3.31,3.31,0,0,1,.54.52c-.28.19-.11.82-.69.71v0a4.22,4.22,0,0,0-.5-.85,11.09,11.09,0,0,0-1-.81Z"/><path class="v" d="M80.79,1.39c.21-.43.45-.39.72,0Z"/><path class="x" d="M88.93,10.89l0,.53c-.32.07-.64.43-1,0v-.95l-.84-.5.71-.64c.24.52.41.94.63,1.34C88.56,10.78,88.78,10.81,88.93,10.89Z"/><path class="v" d="M74.29,5.39l-.46,0,.24-.76,1-1.13c.36.33.19.56,0,.83S74.53,5,74.29,5.39Z"/><path class="x" d="M74.07,4.65l-.24.76-1.07.26C72.93,5,73.62,5,74.07,4.65Z"/><path class="f" d="M94.14,14.29l-.12.3Z"/><path class="t" d="M88.36,17.85l-.12-.76C88.86,17.25,88.77,17.53,88.36,17.85Z"/><path class="w" d="M90.62,17.86v.69l-.82-.3.83-.37Z"/><path class="v" d="M93.88,18.77l-.48.05v-.15l.48-.06Z"/></svg>