<svg xmlns="http://www.w3.org/2000/svg" viewBox="0 0 403.61 130.09"><path d="M141.92,64.88c.47-3.21-2.11-5.9-1.69-9.4h17.41c5.37,18.44,10,37.13,15.54,56.62,2.55-5,3-9.79,4.45-14.19,1.55-4.74,2.65-9.62,3.94-14.44,1.24-4.66,2.45-9.33,3.72-14s2.61-9.24,4-14h15.82c1,1.58.28,2.8-.1,4q-8.5,27.14-17,54.27c-1.54,4.9-2.72,9.92-4.79,14.78H162.28Q153.45,100.23,144.65,72c-.88,0-.83.63-.78,1,1.48,10.27.52,20.61.77,30.91.2,8.12-.49,16.25.78,24.27-1.78,1-3.48.67-5.1.63-3.47-.07-7,.44-10.27-.36-2.08-2.46-.12-5.75-2-8.12-1.91.19-2.42,1.82-3.4,2.85-9.09,9.42-26.21,8.57-33.93.4C80.47,112.71,84,93.82,97.72,88a48.3,48.3,0,0,1,17.45-3.8c4-.14,7.94,0,11.7,0,3-8.42-2-16.56-10.15-17.31A32,32,0,0,0,99.28,70.1c-1.63.8-3.24,1.62-5.11,2.56-1.94-4.31-1.11-8.59-1.16-12.9a37.21,37.21,0,0,1,10.84-4,51.92,51.92,0,0,1,23.23-.34c5.29,1.15,10.08,3.47,13.2,8.29a8.17,8.17,0,0,0,1.4,1.35l.51,1.39C142.4,65.57,142.4,65.57,141.92,64.88ZM127.71,93.23a35.71,35.71,0,0,0-19,2.26,12,12,0,0,0-4.73,3.6c-5.07,6.16-2.55,16.67,4.84,18.63,6.75,1.79,14,.66,17.46-8.28C128.28,104.32,128.28,99.06,127.71,93.23Z"/><path d="M382.65,128.6H365.32c-.79-5.21-.26-10.34-.35-15.44s0-10.27,0-15.9c-5.13-.81-9.92-.32-14.66-.41s-9.33,0-14,0H322.36c-2.33,2.74-.9,5.11-.53,7.23,1.29,7.39,6.93,12.34,14.35,13.09,8.12.83,15.92-.11,23.21-4.65a35.42,35.42,0,0,1,1.12,12.38c-.87,1.33-2.2,1.61-3.45,2-9,3-18.15,4.1-27.51,2.17-12.93-2.67-20.72-10.75-23.9-23.32-3.13-12.38-2-24.45,3.87-35.86C314.61,60.05,323,54.54,334,54.38c11.77-.17,22.42,3.82,27.43,18.05,1.1,3.11,1.84,6.34,3,9.52.87-8.35.24-16.74.62-25,3.42-1.27,8.28-1.46,14.94-.62,1.43,3.48,0,7.44,1.42,11.79,3.77-6.08,7.4-11.49,14.32-13,2.39-.53,4.81-1.7,7.73.51a117.79,117.79,0,0,1-.17,14.85c-2.4.48-4.46-.59-6.64-.22-8.56,1.44-13.85,7.77-14,17.37-.13,10.16,0,20.32,0,30.47ZM347.16,86.11c.64-5.53-.64-11.68-2.88-15a11.16,11.16,0,0,0-17.3-2c-4.48,4.46-6,10.06-5.52,16.94C330.13,86.18,338.52,86.13,347.16,86.11Z"/><path d="M254.5,112.56c.18,4.25,1.53,8.25.9,12.63-4.23,2.83-9.24,3.5-14.08,4.28a46.91,46.91,0,0,1-15.9-.12c-13.13-2.42-21.42-10.3-24.8-23-3.47-13-2.18-25.72,4.4-37.67,5.23-9.5,17-16.14,29.12-13.87a36.59,36.59,0,0,1,6.34,1.3,23.8,23.8,0,0,1,12.94,10.41A37.17,37.17,0,0,1,258.67,83c.21,3.49,1.25,6.89.9,10.42-.09,1-.16,1.93-.27,3.38-14.45.11-28.67,0-42.74.08-1.79,9.91,4.14,18.85,13.18,20.1,8,1.11,15.93.63,23.11-3.81A9.46,9.46,0,0,1,254.5,112.56ZM215.83,85.31c5,1.12,22.31,1.08,26.52,0-.06-4.25-.47-8.47-2.35-12.45-3.74-7.9-13-9.37-18.94-3C217.06,74.18,216.26,79.53,215.83,85.31Z"/><path d="M40.23,128.84c-5.79.06-11.24.36-17.24-.23-.09-14.15,0-28.09,0-42s0-27.94,0-42c-3.87-1.58-7.54-.69-11.12-.84s-7.31,0-10.9,0A28.59,28.59,0,0,1,.69,30.18H63.4c.66,4.29.29,8.55.25,13.31-7.41.64-14.7-.05-21.68.39-1.57,2.12-1,4.19-1,6.13q-.06,36.22,0,72.44C40.88,124.41,41.17,126.41,40.23,128.84Z"/><path d="M247.82,35.14c-.65-2.23-2.3-2.74-3.83-3.36a21.91,21.91,0,0,1-5.34-2.68,9.42,9.42,0,0,1-3.54-9.79c.69-3.73,3-6.09,6.7-7.29,4.21-1.34,8.18-.63,12.11.5,1,.88.71,1.94.71,2.9A4.51,4.51,0,0,1,254,18.6c-3.27.45-7.62-3-10.29,1.42.23,2.46,1.76,3.22,3.28,3.93,1.2.56,2.49.95,3.69,1.52,4.81,2.28,6.87,6.36,5.79,11.44A9.07,9.07,0,0,1,247.32,44c-3.95,0-8,.48-11.2-.91-1.56-1.32-.47-2.72-1.27-3.67-.31.11-.74.13-.87.33-2,3.13-4.95,4.3-8.51,4.29s-7.29.26-10.52-.79c-1.19-1.24-1-2.45-1-3.59a4.65,4.65,0,0,1,.6-3.18c4,.64,8.65,3.68,12.35-1.69-3.43-3.9-9-3.52-11.78-7.8-.68.81-1,1.16-1.27,1.52l-.93,1.2c-5.57.76-11.26-.43-16.8.69.56,5.73,4,8.46,9.52,7.58A59.43,59.43,0,0,0,212,36.29c1.18,2,.4,3.92.65,6a24.79,24.79,0,0,1-16.31,1c-4.11-1-6.7-4.21-8.1-8.22-.36-1-.52-2.11-1-4-1.17,4.6-.21,8.48-1,12.38a23.78,23.78,0,0,1-7.63.17c-1.27-1.69-.88-3.24-.9-4.69-.05-4,0-8-.05-12a30.32,30.32,0,0,0-.6-4.93,3.31,3.31,0,0,0-3.37-3.07,3.76,3.76,0,0,0-3.78,2.73,19,19,0,0,0-1,6.87c.06,4.82,0,9.64,0,14.43-2.87,1.38-5.5.8-8.06.68-1-3.52-1.29-23-.47-31,2.13-1.08,4.4-.51,6.75-.36l1.52,2.87c.51.39.86.38,1.08,0,1.47-2.29,3.81-3.18,6.27-3.71a7.9,7.9,0,0,1,9.61,5.82c.64,2.21,1,4.5,1.68,7.45,1.46-6.93,4.4-11.78,11.22-13.14,6.6-1.31,11.21,1.63,14.73,7.36,4.43-9.33,11.9-8.11,19.66-6.5,1.16,2.08.74,4-.53,6.17-3.34.29-7.24-2.68-10,1.2a3.06,3.06,0,0,0,1.79,3.41,7.45,7.45,0,0,0,1.78.9c5.68,1.61,9.49,4.81,9.22,10.91C241,38.94,244.51,38.93,247.82,35.14Zm-51.6-10.43a20.83,20.83,0,0,0,9.06.13c.53-4.61-1.15-7.65-4.16-7.9C198,16.67,195.94,19.76,196.22,24.71Z"/><path d="M278.11,128.6c-5.37.7-10.8.23-16.05.28-.31-.34-.43-.46-.53-.59s-.27-.25-.29-.39a14.76,14.76,0,0,1-.2-2q0-56.4,0-112.81a7.52,7.52,0,0,1,.42-1.63H278c1.34,1.68.74,3.75.75,5.66q.06,36.2,0,72.38c0,11.15,0,22.3,0,33.45C278.73,124.75,279.11,126.61,278.11,128.6Z"/><path d="M284.21,11.45a105.12,105.12,0,0,1,16,0c.84,3.91,1.09,110.3.33,116.54-3.45,1.17-11.09,1.31-16.06.29C283.71,124.59,283.43,19.3,284.21,11.45Z"/><path d="M68.78,68.62c4.73-9.38,10.89-14.89,21.53-14.05.62,5.37.28,10.45.26,15.85-2.83.42-5.42-.47-8,.19C76.87,72,73,75.2,71.27,80.78a33.71,33.71,0,0,0-1.53,10.33c.05,10.66,0,21.33,0,32v5.49c-5.59.45-10.83.2-15.88.18-1.75-1.77-1.14-3.71-1.14-5.46,0-17.32,0-34.65,0-52,0-3.66.16-7.32-.57-11a5,5,0,0,1,.59-4.12c4.59-.73,9.36-.3,14.15-.27C68.65,59.79,67.11,63.81,68.78,68.62Z"/><path d="M71.13,43.53c-.79-6.88-.57-38.21.33-42.32,6-.28,12.11-.6,18.19.18,3.82.48,6.64,4.13,7,8.06.6,5.66-.21,7.45-5.48,12,.34.33.62.77,1,.94,6,2.59,6.28,7.87,5.08,13.67-1,4.82-5.08,7-9.58,7.55A80.93,80.93,0,0,1,71.13,43.53Zm8.52-18c.1,3.94-.56,7.52.43,11.19,3.4.75,6.16.16,8-2.68a5.37,5.37,0,0,0-.27-6.52C85.9,25.12,83.26,24.5,79.65,25.54Zm.19-7.63c3.27.8,5.4.42,6.81-1.28a5.39,5.39,0,0,0,.75-6c-1.46-3.08-4.3-3-7.45-3.07A36.7,36.7,0,0,0,79.84,17.91Z"/><path d="M146.32,12.81a16.26,16.26,0,0,1,.11,6.35c-3.77-.59-7.49-3.13-10.75.67.08,3.12,2.41,3.79,4.56,4.65,3.39,1.36,6.76,2.75,8.73,6.57V11.59a24.06,24.06,0,0,1,8.18-.12c1,4.41,1,26.67,0,31.15a17.39,17.39,0,0,1-7.11.26c-1.64-1.34-.58-3.32-1.71-5.15-2.56,6-7.53,6.73-13,6.33-2.62-.19-5.38.26-7.92-1.44a6.13,6.13,0,0,1,.35-6.12c4.12.57,8.62,3.86,12-1.12-.45-2.34-2.1-2.84-3.6-3.54a34.58,34.58,0,0,1-5.35-2.65,9.09,9.09,0,0,1-3.94-9.6,9.22,9.22,0,0,1,6.59-7.47C137.45,10.85,139.1,10.9,146.32,12.81Z"/><path d="M125.76,42.48a13.88,13.88,0,0,1-6.56.38c-1.6-.62-1-2.18-1.78-3a1,1,0,0,0-1.28.42,8.5,8.5,0,0,1-5.34,3.41c-6.18,1.31-10.67-1.93-10.87-8.28-.25-7.79-.06-15.6-.06-23.45,2.71-1.32,5.35-.44,7.68-.72,1.41,1.33,1,2.74,1,4,0,4.49,0,9,0,13.48a29.84,29.84,0,0,0,.07,3c.31,3,1.54,4.46,3.67,4.52s3.69-1.29,4.27-4.09a25.59,25.59,0,0,0,.34-5c0-5.12,0-10.24,0-15.5,3-.78,5.58-.38,8.57-.32C126.17,21.9,125.56,32.11,125.76,42.48Z"/><path d="M149.42,7.89a27.07,27.07,0,0,1-.28-7.24c2.76-1.09,5.33-.48,7.94-.5,1.24,2.49.84,4.74.46,7.1C154.91,8.49,152.31,7.72,149.42,7.89Z"/></svg>