<?xml version="1.0" encoding="utf-8"?>
<!-- Generator: Adobe Illustrator 24.2.1, SVG Export Plug-In . SVG Version: 6.00 Build 0)  -->
<svg version="1.1" id="Ebene_2" xmlns="http://www.w3.org/2000/svg" xmlns:xlink="http://www.w3.org/1999/xlink" x="0px" y="0px"
	 viewBox="0 0 2138 467" style="enable-background:new 0 0 2138 467;" xml:space="preserve">
<style type="text/css">
	.st0{fill:#862567;}
</style>
<g>
	<g>
		<path class="st0" d="M2138,455c-0.6,1.1-1.1,2.3-1.8,3.7c-47.1,0-94.5,0-142.1,0c0-7.5,0-14.7,0-22.2c10.6-2.3,20.9-4.5,32-6.9
			c0.3-7.6,0.9-15.3,1-23.1c0.4-54,0.8-108,0.8-161.9c0-7.7-1.2-15.6-3-23.2c-3.4-14.3-13.1-21.7-27.5-23.6
			c-16.1-2.2-28.4,4.6-39.5,15.1c-12.1,11.4-21.1,25.3-29,39.8c-5.2,9.5-9.8,19.2-14.6,28.9c-0.8,1.6-1.2,3.5-1.2,5.2
			c-0.1,46.8,0,93.7,0,140.5c0,0.7,0.1,1.3,0.2,2.3c9.9,2.1,19.7,4.4,29.6,6.3c2.8,0.5,3.8,1.7,4.4,4.4c1.3,6.2,1,12.2-1,18.5
			c-49.6,0-99.1,0-148.9,0c0-7.3,0-14.4,0-22.1c12.4-2.3,24.9-4.6,37.6-7c0.3-1.5,0.7-3,0.8-4.4c0.5-12.6,1.2-25.3,1.3-37.9
			c0.1-63.3,0.1-126.7,0.1-190c0-1.2,0-2.3,0-4c-12-1.8-24-3.5-36.1-5.3c0-7.6,0-14.8,0-22.7c36.6-0.9,72.9-1.8,109.5-2.7
			c0.4,5.1,0.8,9.2,1,13.3c0.5,8.3,1.1,16.6,1.3,24.9c0.1,3.1-0.4,6.3-1.3,9.3c-3.5,12.6-7.3,25.2-10.9,37.8
			c-0.2,0.6-0.3,1.2,0.4,2.2c0.9-1.6,1.9-3.1,2.7-4.8c7.3-15,15.7-29.4,26.2-42.4c16.7-20.6,36.8-36.1,63-42.3
			c22.7-5.5,45.3-4.8,67,4.4c23.2,9.8,36.9,27.7,41.8,52.3c1.4,7.1,2,14.5,2,21.8c0.1,61.3,0.1,122.7,0.1,184c0,2,0,4,0,6.4
			c8.3,1.8,16.6,3.6,24.8,5.4c0.8,0.2,1.6,0.4,2.5,0.4c3.7,0.1,6,2,6.9,5.6C2138,445.7,2138,450.3,2138,455z"/>
		<path class="st0" d="M1609,467c-5.7-1-11.3-1.9-17-3c-25.4-4.7-48.1-15.1-66.9-33.2c-17.4-16.7-28.4-37.1-35.1-60
			c-4.6-16-6.8-32.4-7.3-49.2c-0.7-25,1.6-49.5,9.6-73.3c15.9-47.3,48.9-75.8,97.3-86.3c32.1-7,64.5-7.3,96.3,2.2
			c42.8,12.9,70.7,41.5,85.1,83.5c5.8,16.9,8.5,34.4,9.3,52.3c1.2,26.9-1.7,53.2-11.3,78.4c-17,44.6-49.3,71.9-95.4,83.3
			c-8.2,2-16.7,2.8-25,4.2c-0.5,0.1-1,0.6-1.5,0.9C1634.3,467,1621.7,467,1609,467z M1700.8,311.5c-0.6-14-0.9-28-2-41.9
			c-1.1-13.9-3.3-27.7-7.9-41c-6.4-18.5-16.8-33.2-36.7-39c-12.1-3.5-24.3-3.5-36.6-1c-21.1,4.3-34.5,17.7-42.7,36.9
			c-8.2,19.3-10.9,39.8-11.8,60.4c-1.3,27.8-1.3,55.6,2.8,83.2c2,13.2,5,26.1,11.1,38.1c8.1,16,20.7,26.2,38.5,29.4
			c10.9,2,21.9,1.6,32.7-1.1c14-3.5,25-11.4,33-23.4c8-12.2,12.1-25.8,14.8-39.9C1699.8,352.1,1700.6,331.8,1700.8,311.5z"/>
		<path class="st0" d="M927,467c-5.1-1-10.2-2-15.3-3c-21.2-4.1-40.7-12.1-57.7-25.6c-22.3-17.7-36-41.1-43.8-68.1
			c-7.2-25.1-8.5-50.7-6.4-76.6c1.5-18.7,5.1-36.8,12.2-54.2c16.7-41,47.3-65.7,89.8-76.3c17.9-4.5,36.1-6.1,54.4-5.6
			c25.9,0.6,50.8,5.6,73.7,18.6c28.4,16.2,47.1,40.4,57.1,71.1c14.4,44.5,14.4,89.2-2.3,133c-16.7,44-49.4,70.7-94.9,81.8
			c-8.7,2.1-17.7,2.9-26.5,4.3c-0.7,0.1-1.4,0.5-2.2,0.8C952.3,467,939.7,467,927,467z M882.3,313.2c0.9,15.8,1.5,31.6,2.9,47.3
			c1.3,14.2,4.2,28.3,9.8,41.5c7.1,16.6,18.3,28.9,36.3,33.5c10.9,2.8,22,2.9,33.1,0.9c8.6-1.6,16.6-4.8,23.6-10
			c11.6-8.5,18.3-20.5,22.9-33.7c7.5-21.6,9.1-44.2,9.8-66.8c0.7-22.1,0-44.3-2.7-66.3c-1.8-14.4-4.7-28.5-11.1-41.7
			c-6.8-14-17.2-24-32.3-28.5c-8.2-2.4-16.7-2.9-25.2-2.4c-22.7,1.3-39.9,11.3-50.8,31.6c-5.2,9.6-8.4,19.9-10.6,30.5
			C883.7,270.2,882.7,291.7,882.3,313.2z"/>
		<path class="st0" d="M0,293c0.7-4.4,1.4-8.7,2-13.1c3.1-23.5,9.6-45.9,22.3-66.1c15-23.7,36-39.9,62.6-48.5
			c30.4-9.8,61.5-10.8,92.6-3.6c39.1,9.2,63.9,33.7,75.5,71.9c4.5,14.9,7,30.2,7,45.7c0,13.5-0.7,26.9-1.2,40.4
			c-0.1,1.9-0.6,3.9-1,6c-60.3,0-120.2,0-180.3,0c-0.3,0.8-0.6,1.4-0.6,2c0.4,19.9,2.7,39.5,10.1,58.1c9.3,23.2,26.5,35.9,51.4,38.2
			c32.3,3,61.9-5.3,89.4-21.9c0.4-0.3,0.9-0.5,1.8-0.9c5.5,8,11,15.9,16.9,24.4c-2.1,1.8-3.9,3.6-6,5.2
			c-25.8,20.1-54.7,32.4-87.5,35.2c-0.7,0.1-1.3,0.6-2,0.9c-8.3,0-16.7,0-25,0c-0.8-0.3-1.6-0.8-2.5-1c-10.3-1.7-20.8-2.7-30.9-5.2
			c-26.2-6.6-48.3-20-65.1-41.6c-16.1-20.8-23.8-45-27.5-70.6c-0.7-4.5-1.3-9-2-13.5C0,321,0,307,0,293z M184.2,293.2
			c0.8-5.7,1.5-11.1,2.2-16.5c2.3-18.3,1.6-36.5-3.5-54.3c-2.8-9.9-7.4-18.8-15.2-25.9c-11.8-10.6-25.9-12-40.7-10.1
			c-17.4,2.2-29.1,12.2-35.9,28c-2,4.7-3.7,9.6-5.1,14.5c-4.8,17.4-6,35.3-6.9,53.3c-0.2,3.6,0,7.2,0,11
			C114.1,293.2,148.7,293.2,184.2,293.2z"/>
		<path class="st0" d="M1216,467c-2-0.6-3.9-1.4-5.9-1.8c-31-5.9-50.5-25.4-56-56.5c-1.4-8-2.2-16.2-2.2-24.3
			c-0.2-60.5-0.1-121-0.1-181.5c0-1.8,0-3.6,0-5.9c-16.1,0-31.9,0-48.4,0c0-6.2-0.1-12,0.1-17.7c0-0.9,1.9-2,3.1-2.5
			c13.5-4.7,26.7-10,39.1-17.3c21.5-12.7,37.6-30.6,50.2-51.8c4.2-7,8.1-14.2,11.8-21.4c1.2-2.2,2.4-3.2,5-3.1
			c5.3,0.2,10.6,0,16.3,0c0,27.4,0,54.4,0,81.9c21.3,0,42.2,0,63.4,0c0,8.5,0,16.4,0,24.5c-21.6,2.7-43,5.4-64.6,8.1
			c-0.1,1.6-0.3,2.9-0.3,4.2c-0.2,35.5-0.4,71-0.5,106.4c-0.1,25.7-0.4,51.3,0.2,77c0.2,9.2,1.8,18.6,3.9,27.6
			c2.3,9.7,8.1,17.5,18.9,18.8c6.5,0.8,13.3,0.1,19.9-0.3c3.9-0.3,7.8-1.4,12.2-2.3c3.2,7.6,6.5,15.3,9.9,23.2
			c-12.9,7.2-26.4,11.6-40.7,13.6c-0.9,0.1-1.7,0.6-2.5,1C1238,467,1227,467,1216,467z"/>
		<path class="st0" d="M1394,0c1.7,0.6,3.3,1.2,5,1.7c22.2,6.4,37.8,27.2,36.9,49.4c-1,23.5-18,42.8-41.4,47.1
			c-30.6,5.6-58.2-18.3-57.8-49.6c0.2-20.6,14.7-41.7,37.8-47.6c0.9-0.2,1.7-0.7,2.6-1.1C1382.7,0,1388.3,0,1394,0z"/>
		<path class="st0" d="M753.9,429.6c9.9,2.2,19.4,4.4,29,6.2c2.8,0.5,3.8,1.8,4.3,4.4c1.3,6.2,1,12.2-1,18.4c-47.3,0-94.5,0-142,0
			c0-7.3,0-14.6,0-22.1c10.8-2.3,21.4-4.7,32.9-7.1c0-6.2,0-12.3,0-18.4c0.2-55.8,0.6-111.6,0.6-167.4c0-7.6-1.1-15.3-2.7-22.7
			c-4.7-21.7-23.3-24.1-37.3-19.1c-9.8,3.5-17.4,10.3-24.3,17.8c-15.3,16.7-26.6,36.1-36.5,56.4c-0.7,1.4-0.9,3.2-0.9,4.8
			c0,48.7,0,97.3,0,146c0,0.8,0.1,1.6,0.2,2.8c9.9,2.1,19.8,4.4,29.7,6.2c2.7,0.5,3.7,1.7,4.2,4.1c1.3,6.3,1.2,12.6-1.1,18.9
			c-47.6,0-95.2,0-143.4,0c0-6.8-0.1-13.6,0.1-20.4c0-0.9,1.9-2.1,3-2.4c9.7-2.2,19.4-4.3,29.5-6.5c0.4-10.6,1.1-21,1.2-31.5
			c0.3-52.3,0.5-104.6,0.4-156.9c0-7.7-1.6-15.6-3.6-23c-4-14.8-16.6-21.2-33-17.3c-9.8,2.3-17.1,8.7-23.8,15.8
			c-13.6,14.4-23,31.7-32.7,48.8c-6.6,11.7-9.1,23.6-8.9,37c0.6,40.5,0.2,81,0.2,121.5c0,1.8,0,3.6,0,5.6c10.2,2.2,20.1,4.4,30,6.3
			c2.4,0.5,3.4,1.5,4,3.6c1.6,6.4,1.3,12.6-1.1,19.3c-49.4,0-98.8,0-148.6,0c0-7.4,0-14.6,0-22.3c12.5-2.3,25-4.6,38-7
			c0.3-7.6,0.9-15,0.9-22.5c0.4-70.5,0.6-140.9,0.9-211.4c0-0.7-0.1-1.3-0.2-2.4c-12.1-1.8-24.2-3.5-36.5-5.3c0-7.4,0-14.5,0-22.6
			c36.5-0.9,73-1.8,109.6-2.8c0.4,1.8,0.9,2.9,0.9,4c0.7,11.8,1.4,23.6,2,35.4c0.1,2.3-0.5,4.6-1.1,6.8
			c-3.6,12.8-7.4,25.5-11.1,38.3c-0.3,0.9-0.3,1.8,0.3,3c1-2,2.1-4,3.1-6.1c10.9-21.5,24.1-41.4,41.6-58.2
			c14.4-13.7,30.6-24.4,50.6-27.2c27.9-3.9,53.4,1.5,74,22.2c10.3,10.3,15.8,23.3,18.7,37.4c0.4,2.1,0.8,4.2,1.3,7.1
			c1.2-2,2.2-3.5,3.1-5.1c12.9-21.7,28.8-40.7,51.6-52.2c33-16.7,65.6-15,96.1,6.4c14.9,10.4,22.5,26,25.7,43.6
			c1.3,7.2,1.9,14.5,1.9,21.8c0.1,61.2,0.1,122.3,0.1,183.5C753.9,425.5,753.9,427.4,753.9,429.6z"/>
		<path class="st0" d="M1430,429.6c12.1,2.2,23.8,4.4,35.6,6.3c2.7,0.4,3.7,1.7,4.2,4c1.2,6.3,1.3,12.6-1.1,18.9
			c-51,0-102.1,0-153.5,0c0-7.3,0-14.6,0-22.2c12.8-2.3,25.5-4.6,38.4-7c0-78.3,0-156.6,0-235.3c-11.9-1.7-23.8-3.5-36-5.2
			c0-7.9,0-15.4,0-23.6c36.6-1.2,73-3.7,109.9-2.4c0.4,5.7,0.8,11.1,1.1,16.5c0.5,11,1.3,21.9,1.3,32.9c0.1,70.3,0.1,140.6,0.1,211
			C1430,425.5,1430,427.4,1430,429.6z"/>
	</g>
</g>
</svg>
