<?xml version="1.0" encoding="utf-8"?>
<!-- Generator: Adobe Illustrator 24.2.1, SVG Export Plug-In . SVG Version: 6.00 Build 0)  -->
<svg version="1.1" id="Ebene_1" xmlns="http://www.w3.org/2000/svg" xmlns:xlink="http://www.w3.org/1999/xlink" x="0px" y="0px"
	 viewBox="0 0 425.9 69.9" style="enable-background:new 0 0 425.9 69.9;" xml:space="preserve">
<style type="text/css">
	.st0{fill:#020202;}
	.st1{fill:#060606;}
	.st2{fill:#080808;}
	.st3{fill:#0A0A0A;}
	.st4{fill:#070707;}
	.st5{fill:#0C0C0C;}
	.st6{fill:#0F0F0F;}
	.st7{fill:#141414;}
	.st8{fill:#030303;}
	.st9{fill:#0B0B0B;}
	.st10{fill:#454545;}
	.st11{fill:#1C1C1C;}
	.st12{fill:#131313;}
	.st13{fill:#1B1B1B;}
	.st14{fill:#353535;}
	.st15{fill:#5A5A5A;}
	.st16{fill:#292929;}
	.st17{fill:#1D1D1D;}
	.st18{fill:#515151;}
	.st19{fill:#151515;}
	.st20{fill:#1A1A1A;}
	.st21{fill:#525252;}
	.st22{fill:#757575;}
	.st23{fill:#111111;}
	.st24{fill:#1E1E1E;}
	.st25{fill:#181818;}
	.st26{fill:#707070;}
	.st27{fill:#242424;}
	.st28{fill:#303030;}
	.st29{fill:#202020;}
	.st30{fill:#262626;}
	.st31{fill:#2C2C2C;}
	.st32{fill:#343434;}
	.st33{fill:#161616;}
	.st34{fill:#2B2B2B;}
	.st35{fill:#1F1F1F;}
	.st36{fill:#171717;}
	.st37{fill:#4D4D4D;}
	.st38{fill:#272727;}
	.st39{fill:#3E3E3E;}
	.st40{fill:#050505;}
	.st41{fill:#656565;}
	.st42{fill:#555555;}
	.st43{fill:#121212;}
	.st44{fill:#373737;}
	.st45{fill:#949494;}
	.st46{fill:#7C7C7C;}
	.st47{fill:#040404;}
	.st48{fill:#2F2F2F;}
	.st49{fill:#4C4C4C;}
	.st50{fill:#010101;}
	.st51{fill:#5F5F5F;}
	.st52{fill:#0E0E0E;}
	.st53{fill:#323232;}
	.st54{fill:#0D0D0D;}
	.st55{fill:#414141;}
	.st56{fill:#3A3A3A;}
	.st57{fill:#8A8A8A;}
	.st58{fill:#808080;}
	.st59{fill:#B6B6B6;}
	.st60{fill:#727272;}
	.st61{fill:#101010;}
	.st62{fill:#3C3C3C;}
</style>
<g>
	<path class="st0" d="M64.3,67.4c5.2-5.2,5.8-21,1.7-25.4c-6.9,2.5-8,5.9-7.4,21.4c0.1,2,3.1,1.4,3.2,4.2c-4.7,0.5-9.5,0.6-14.2,0.2
		c-0.8-2.9,2.4-2.4,2.8-4.1c-0.6-7.2,1.4-14.6-1.4-22.4c-10.8,5.4-7.8,14.5-8.3,21.4c0.4,2.6,2.7,2.4,3.4,4.7H29.1
		c-0.7-2.6,2.4-1.7,3.1-4.2V42.3c-0.3-2-3-1.1-3.1-3.4c3.3-1.9,7-0.6,10.6-1l1.2,4.6c5.9-6,11.8-8.3,17.3-0.3
		c1.7-0.2,2.2-1.6,3.2-2.4c3.1-2.3,6.4-3.5,10.2-1.8s4.6,4.9,4.6,8.6c0,5.5,0,11,0.1,16.5c0.1,2,3,1.6,3.1,4.3
		C74.4,68,69.3,68,64.3,67.4z"/>
	<path class="st1" d="M122.7,29.4c2.3,2.8,0.6,5.6,1.7,7.8c1.6,1.7,4.3-0.3,6,2c-1.2,2.8-4.6,1.1-6.6,3.4c0,6.7-0.9,13.9,0.9,21
		c1.2,2,4.4-0.1,5.1,3.1c-2.9,2.5-6.3,2.1-9.5,1s-4.2-4-4.2-7.1c-0.1-6.1,0-12.3,0-18.5l-6.2-1.9C116.1,37.8,119.5,33.7,122.7,29.4z
		"/>
	<path class="st1" d="M198.4,41.8c-7.4,5.8-5.6,13.9-5.6,20.8c0.4,2.5,2.9,2.1,3.1,4.7c-5,0.6-10,0.6-15,0.1c-0.2-3.1,2.9-2,3.6-3.8
		V41.4c-0.1-1-3-0.1-3.4-2.4c3.3-2.1,6.9-0.8,10-1c2.3,0.7,1,2.9,2.3,3.9l3.6-2.4c0.4,0.1,0.7,0.4,1,0.7l0.3,0.5
		C198.4,41,198.4,41.4,198.4,41.8z"/>
	<path class="st1" d="M198.4,41.8l-2.3-0.1l0,0l0.9-2.3c8.1-5,14.7-1.7,14.9,7.6c0.1,5.5,0,11,0.1,16.4c0.3,1.7,2.9,1.4,2.8,4
		c-4.6,0.7-9.4,0.4-14,0.2c-0.8-3,2.4-2.4,2.8-4.1c0.1-7,0.8-14.1-0.3-20.4C201.4,41.2,199.9,41.9,198.4,41.8z"/>
	<path class="st2" d="M143.9,37.8V62c0.8,3.3,3.5,2.5,4.2,5.1h-15.4c-0.2-2.6,2.7-1.7,3.4-3.9V42.2c-0.8-1.8-3-1.1-3.6-3.2
		C135.9,36.7,139.7,38.3,143.9,37.8z"/>
	<path class="st3" d="M286.9,53.8c-1.1-1.8-1.7-3.8-1.8-5.8c0-1.8-1.4-3.2-3.1-3.3c0,0-0.1,0-0.1,0c-0.2-0.4-0.3-0.8-0.3-1.3
		c1.5-2.1,3-4.1,2.8-6.8c0.5-1.3,1.3-2.4,2.2-3.4c2-1,2.7-3.5,4.7-4.5c0.9-0.9,1.5-1.9,1.9-3.1c0.2-0.6,0.5-1.2,0.8-1.7
		c0.3-0.6,0.6-1.1,1-1.7c0.4-0.5,0.7-1.1,1.1-1.6c0.5-0.9,1-1.8,1.5-2.8c0.4-0.8,0.8-1.6,1.2-2.3s0.9-1.7,1.4-2.5
		c0.6-1.2,1.7-2,3-2.3c0.5-0.1,1.1-0.1,1.6,0.1c0.5,0.2,0.9,0.5,1.1,1c0.2,1,0.1,2.1-0.4,3l0-0.1c-2.2,2.5-2.4,6.1-4.2,8.8l-0.1,0.1
		c-0.2,0.4-0.6,0.7-0.8,1.1l0-0.1c-0.8,0.9-1.5,2-2,3.1v-0.1c-0.5,0.3-0.9,0.8-1,1.4c-1.5,3.1-5,5.1-5.1,9c0.6,1.5,0.4,3.1,0.4,4.7
		c0.1,0.5,0.1,1,0,1.5c-0.2,0.4-0.6,0.7-1,0.9c-0.5,0.1-1.1,0.1-1.6,0.1c-1,0.6-1.4,1.7-1,2.8c0.3,0.6,0.6,1.1,1,1.6
		c0.2,0.4,0.4,0.7,0.5,1.1c0.1,0.4,0.1,0.8,0.1,1.3c0,0.7,0,1.3-0.2,1.9c-0.2,0.4-0.4,0.8-0.8,1.1c-0.4,0.2-0.9,0.3-1.3,0.2
		C287.7,54.9,287.5,54.1,286.9,53.8z"/>
	<path class="st4" d="M250.1,25.1l-0.1-0.3l0.2-0.2c0.3-0.4,0.6-0.7,0.9-1.1l0,0c0.4-0.3,0.8-0.7,1-1.2l-0.2,0.2
		c0.5-0.2,0.9-0.7,1.2-1.2l-0.2,0.2c0.5-0.2,0.9-0.7,1.2-1.2l-0.2,0.2c0.5-0.2,0.9-0.6,1.2-1l0,0c1.4-0.5,2.8-1.1,4.1-1.8
		c0.1-0.2,0.4-0.4,0.7-0.2c2.1-0.7,4.3-0.6,6.3,0.1l0,0c0.5,1.7,2,3.2,1.1,5.1l0.1-0.1c-0.9,0.9-1.6,1.9-2.1,3l0,0
		c-0.6,0.5-1.6,0.5-2.2,0v0.1c-0.4-0.7-0.3-1.5-0.9-2.1l0,0c-0.5-0.9-1.2-1.6-2.2-1.9l0.2,0.1c-1.7-1.3-3-1-3.9,1l0.1-0.2
		c-1.2,1.3-0.7,2.8-0.8,4.3c0,0.8,0,1.7,0.1,2.5c0.4,1.6,0.9,3.2,1.5,4.7c0.4,0.5,0.6,1.1,1.1,1.5l0,0c0.5,0.8,0.6,1.7,0.5,2.6
		c-0.2,0.4-0.6,0.7-1,0.9c-1,0.1-1.9-0.5-2.2-1.4l-0.1-0.2c0,0.1,0.1,0.2,0.1,0.3c0,0,0,0.3,0,0.3c0,0.3,0,0.7,0,1
		c-0.3,1.5-0.7,3-1.3,4.4c-0.3,0.3-0.7,0.6-1.1,0.8c-0.4,0-0.9-0.1-1.2-0.4l0,0c-0.5-1.5-0.7-3-2-4.1v0.1c-0.5-4.1-2.4-8-1-12.2v0.1
		C249.8,27,249.7,26,250.1,25.1z"/>
	<path class="st5" d="M331.1,60.5c1.3-1.9,2.7-3.9,4-5.8c0.8-1.3,1.1-2.9,1.8-4.3c0.3-0.4,0.6-0.7,1-0.9c1.1-0.3,2.2-0.2,3.2,0.4
		l1.2,0.4l0.5,0.3c0.3,0.3,0.5,0.6,0.7,1c0.1,0.4,0,0.8-0.4,1c-2.8,6.3-8.3,9.8-14,13.1c-0.3,0.3-0.8,0.5-1.2,0.3
		c-2.2-0.4-4.5,0-6.7-0.3c-0.4,0-0.9-0.1-1.3-0.3c-0.4-0.2-0.7-0.5-1-0.8c-0.3-0.3-0.5-0.7-0.7-1.1c-0.4-1-0.5-2.1-0.5-3.2
		c0.1-0.4,0.2-0.8,0.5-1.2l0.5-0.4l0.6-0.3l1.1-0.3c0.4,0,0.7,0,1.1,0.2c0.3,0.1,0.6,0.2,0.9,0.4c0.1,0,0.2,0,0.3,0.1l-0.4-0.2
		c-0.3-0.2-0.4-0.5-0.5-0.9c-0.1-0.8,0.1-1.6,0.8-2.1c0.4-0.2,0.8-0.3,1.2-0.3c0.4,0.1,0.8,0.4,1,0.8
		C326.4,58.1,327.5,61.1,331.1,60.5z"/>
	<path class="st6" d="M363.3,58.7c1,1.2,1.6,2.9,3.5,3.2c2-1.1,2.2-3.5,3.5-5.1c1-1.2,1.1-3.1,2.9-3.7c2.5,0.3,4.2,1.1,3.1,4
		c-2.2,5.2-6.8,7.9-11.4,10.4c-2.7,1.5-5.8,1.3-7.7-1.9c-0.8-0.3-0.4-1.4-1.1-1.8c-0.2-0.2-0.3-0.6-0.2-0.9c0.2-1.3,0.8-2.5,1.6-3.4
		c0.7-1,1.1-2.3,1-3.5c-0.1-1.2,0.1-2.3,0.4-3.4c0.4-0.6,1.1-1,1.8-1c0.8,0.4,0.8,1.1,0.8,1.8c0.2,1.2-0.5,2.4,0.6,3.4v-0.1
		C362.7,57.2,362.5,58.2,363.3,58.7z"/>
	<path class="st7" d="M361.2,60.7c0.7,1.5,0.3,2.3-1.3,2.1c-1.3-0.2-2.6-0.5-3.8,0l-0.8-2c-0.6-7.7-1.4-15.5,0.4-23.2
		c0.4-2.1-0.3-4.4,0.6-6.5l0.1-1.5c0.8-4.1,0.7-4.3-2-3.8l0.2-0.1c-0.8,0.3-1.6,0.4-2.5,0.5c-0.4-0.1-0.8-0.3-1-0.6
		c-0.1-0.4-0.1-0.8,0.1-1.2c0.6-0.5,1.7-0.2,2.2-1l-0.1,0.1c0.3-0.2,0.7-0.3,1.1-0.4c0.4,0,0.7-0.2,1-0.5l1.6-0.2
		c0.8-0.3,1.6-0.4,2.4-0.3c0.5,0.1,1,0.2,1.7,1.9c0.2,0.5-1.4,1.6-1.2,3.1c0,1.9,0,3.8,0,5.7c-0.2,1.3-0.6,2.5-0.3,3.8
		c0.2,1.5,0.3,2.9,0.3,4.4c0,0.5,0,1,0,1.4c-0.2,1.6-0.7,3.2-0.8,4.8c0,0.4-0.1,0.9-0.1,1.3c-0.2,1.7,0,3.5,0.4,5.2
		c0.1,0.8,0,1.7,0.1,2.5C359,58.1,359.7,59.8,361.2,60.7z"/>
	<path class="st5" d="M331.2,35.7l0.1-1c0.3,0,0.6,0,0.9-0.1c0.5-0.6,1.6-0.3,1.9-1.3c4-3.8,9-5.8,14-7.7c0.6-0.4,1.3-0.5,1.9-0.5
		c0.5,0,0.9,0.2,1.2,0.5l0,0c0.7,1.9-1.8,1.1-1.9,2.3c-1.9,1-3.8,1.9-5.6,2.9c-1.4,0.8-3.2,1.3-2.4,3.6c0.1,0.6,0.6,1,1.2,1.2l0-0.1
		c0.5,1.1,0.6,2.4,0.3,3.6c0,2.5-0.8,4.4-3.7,4.5c-1-0.2-1.7-0.9-2-1.8c-0.2-0.4-0.5-0.7-0.9-1l0,0c-0.3-0.4-0.7-0.7-0.9-1.1l-4-3
		c-0.3-0.2-0.4-0.4-0.3-0.6S331.1,35.7,331.2,35.7z"/>
	<path class="st6" d="M307.7,61.7l1.8-0.1c1-0.1,2.4-1.1,2.5,1.1H312c-0.2,0.4-0.6,0.7-0.9,0.9l-0.1,0.1c-0.8,0.9-2.1,1.2-2.8,2.3
		c-5.5,3.5-9.3,3.2-14.1-1.2l0.1-0.6c0.1-0.4,0.3-0.8,0.4-1.2c0.2-1.1,0.3-2.1,0.2-3.2c-0.3-1.4-0.2-2.8,0.3-4.1
		c0.4-0.6,1-1.1,1.7-1.3c0.5,0,1,0.1,1.4,0.4l0,0c0.5,0.8,1.1,1.5,1.9,2.1l0.1,0.1c0.4,0.2,0.7,0.5,0.9,0.9l0.1,0.1
		c0.4,0.2,0.7,0.5,0.9,0.8l0.1,0.1c0.4,0.3,0.7,0.5,1,0.9l0,0c0.5,0.6,1.5,0.4,2,1l0,0C306,61.2,306.8,61.5,307.7,61.7z"/>
	<path class="st8" d="M251.5,61.6c0.1-0.1,0.4-0.1,0.5,0c0,0,0,0,0.1,0.1c0.5,0.7,1.3,0.5,2,0.6c0.7,0.3,1.4,0.4,2.1,0.4
		c0.6,0,1.1,0,1.7-0.1c0.6-0.1,1.1-0.3,1.7-0.4c0.6,0,1.1-0.2,1.5-0.6l0,0c0.3-0.2,0.7-0.4,1-0.6c0.4-0.5,0.6-1.1,0.5-1.7
		c-0.6-1.2-0.7-2.6-1.6-3.7l0.1,0.1c-0.6-0.7-0.5-1.8,0.1-2.5c0.4-0.3,0.8-0.4,1.2-0.5c0.4,0,0.8,0.1,1.2,0.3
		c0.7,0.3,1.4,0.6,2.2,0.7c0.4,0,0.7,0,1.1-0.1c0.6-0.1,1.2-0.1,1.7,0c0.8,0.2,1.5,0.3,2.3,0.5c0.3,0.3,0.5,0.6,0.6,1
		c-0.1,0.4-0.3,0.8-0.6,1c-0.8,1-2,1.6-2.7,2.6l0.2-0.2c-0.6,0.2-1,0.6-1.2,1.2l0.2-0.2c-0.5,0.2-1,0.6-1.2,1.2l0.2-0.2
		c-0.9,0.4-0.6,1.4-1.2,2l0,0c-0.4,0.4-0.8,0.7-0.9,1.3l0.2-0.2c-1.9,2.5-4.7,3.9-7.4,5.3c-1.1,0.1-2.3,0.2-3.4,0.1
		c-2.3-0.1-2.8-2.7-4.5-3.5c-0.6-0.3-1.2-0.5-1.8-0.9c-0.4-0.3-0.7-0.6-1-0.9c-0.5-0.4-1-0.9-1.4-1.5c-0.2-0.4-0.2-0.9-0.2-1.3
		c0.2-0.4,0.5-0.8,0.9-1c0.9-0.1,1.8,0,2.6,0.4h-0.1C249.1,61.7,250.5,61,251.5,61.6z"/>
	<path class="st9" d="M262.1,53.7c-0.4,0.7-0.7,1.4-1.1,2.1c-2.9-4.1-7-7.3-9.1-12l1.2-0.1l0,0l1-6c1.9-1,2.1,1.9,3.7,1.5
		c0.8,0.1,1.6,0.4,2.3,0.9c0.4,0.1,0.8,0.3,1.1,0.5l0,0c0.3,0.6,0.5,1.1,0.7,1.7c0.1,0.4,0,0.8,0,1.1c-0.1,0.3-0.2,0.5-0.3,0.8
		c0.1,0,0.1,0.3,0.2,0.3c0.3,0.2,0.5,0.5,0.6,0.8c0.2,0.4,0.3,0.7,0.5,1.1c0.4,0.8,0.7,1.6,1,2.4C264.7,50.7,263.9,52.8,262.1,53.7z
		"/>
	<path class="st9" d="M144.9,26.5c-0.5,2.8-2,4.9-5.1,5.1s-5-1.7-5.2-4.7c-0.2-3.4,2-5.4,5.1-5.5C142.6,21.3,144.4,23.4,144.9,26.5z
		"/>
	<path class="st10" d="M397.2,60.8c3.3-0.3,2-2.9,2.2-4.6c0.1-1.8,0-3.7-0.2-5.5c0.9-4.5,2.9-8.9,2.5-13.7c0-1,0-1.9,0.1-2.9
		c0.1-0.5,0.2-0.9,0.5-1.3c0.3-0.4,0.5-0.8,0.8-1.2l0.8-1.1c0.5-0.8,1.4-1.3,2.3-1.4c0.5,0,0.9,0.2,1.2,0.6c-4.2,7-3.3,14-0.2,21
		c-0.5,2.1,1.6,5.4-2.6,5.9c-1.2-0.2-1.9-1.2-2.9-1.8c-0.3-0.3-0.5-0.6-0.7-1c0,0,0-0.1,0,0c0.3,0.6,0.5,1.2,0.7,1.8
		c0.1,0.7,0.2,1.4,0.3,2.1c0.2,0.8,0.3,1.5,0.2,2.3c-0.8,2.3-2.2,3.2-4.6,2.3C397,62,396.9,61.3,397.2,60.8z"/>
	<path class="st11" d="M382.8,57.8l-0.6-1.1v-0.6c0.1-1-0.1-2-0.6-2.9c-0.2-0.4-0.3-0.8-0.4-1.2c-0.2-0.6-0.5-1.2-0.9-1.7
		c-0.2-0.4-0.4-0.8-0.5-1.2c0-0.5-0.1-0.9-0.1-1.4s0-1,0-1.4c0.2-2,0-4.1,2.2-5.2c0.5-0.2,1-0.2,1.5,0c0.6,0.4,1.1,1,1.2,1.7
		c0.2,1.4,0.6,2.7,1,4c0.2,0.8,0.5,1.6,0.9,2.4c0.3,0.5,0.6,1.1,0.9,1.6c0.2,0.5,0.6,1,1,1.5c0.3,0.3,0.6,0.5,0.9,0.8
		c0.2,0.3,0.4,0.6,0.6,1c0.2,0.7,0.3,1.5,0.5,2.2c0.2,0.7,0.5,1.4,0.9,1.9l0.7,0.9c0.2,0.3,0.4,0.6,0.6,1c0.4,1,0.6,1.9,0.9,2.9
		c0.3,0.6,0.5,1.2,0.6,1.8c0,0.4,0,0.9-0.2,1.3c-0.2,0.4-0.6,0.7-1,0.8c-3.9-0.9-7.2-3.5-9-7.1C383.6,59.3,383.8,58.2,382.8,57.8z"
		/>
	<path class="st12" d="M381.2,48.7v1c-0.8,1.4-2.1,1.2-3.1,1.2c-1.5-0.9-1.7-2.3-2.4-3.4c-0.2-0.4-0.3-0.9-0.2-1.4
		c0.1-0.9,0.4-1.8,0.7-2.7c1.1-3.6,2.6-6.7,7.1-6.8c1.4-0.9,2.2-0.4,2.5,1.2c-0.1,0.7-0.2,1.4-0.5,2c-0.3,0.6-0.8,1.1-1.5,1.3
		c-0.5,0.1-0.9,0.2-1.3,0.4c-0.1,2.1,0.1,4.2-1.1,6.1c-0.5,0-0.6,0.2-0.4,0.6C381,48.6,381.1,48.7,381.2,48.7z"/>
	<path class="st13" d="M416.6,60.9c-0.4-3.1-0.1-5.5,2.9-6c2.4-0.3,5.5-1.3,6.4,2.9C423.1,59.7,421.1,63.5,416.6,60.9z"/>
	<path class="st14" d="M403,36.5c0.3,5.2,0,10.2-3.9,14.2c-0.9-5.8-1.4-11.6,1-17.2c1,0.3,1.3,1.2,1.8,2c0.1,0,0.3,0.4,0.4,0.3
		C402.5,36.1,402.7,36.3,403,36.5z"/>
	<path class="st15" d="M253.1,68.7l4.1-0.3c0.3-0.2,0.8-0.1,1,0.3c0,0,0,0.1,0,0.1c-7.6,2.9-14.3-0.6-21.1-3
		c-0.3-0.3-0.6-0.7-0.9-1.1c-0.2-0.4-0.4-0.8-0.6-1.2c-0.4-0.9-0.2-1.9,0.5-2.6c3.4-0.9,6.4-0.4,8.7,2.5c1,2,3,2.3,5,2.8
		C251,67,251.9,68.1,253.1,68.7z"/>
	<path class="st13" d="M297.1,1.3c3.3-1.8,6.5-2,9.3,1.1c0.3,2.6,1.2,5.3-0.5,7.8c-0.4,0.2-0.9,0.3-1.4,0.3
		c-1.2-0.1-2.3-0.8-3.1-1.7c-0.6-1.2-1.4-2.3-2.3-3.3c-0.7-1-2.1-1.6-2.3-3C296.7,2.1,296.8,1.7,297.1,1.3z"/>
	<path class="st16" d="M376.2,46.7c2.7-0.8,2,4.3,5,3l0,0c0.4,0.4,0.6,1,0.5,1.6c0,0.4,0,0.8,0,1.2c0.1,0.4,0,0.8-0.2,1.1l-0.6,0.2
		c-0.4-0.7-0.9-1.3-1.4-2.2c-2.1,1.3-1.4,4.1-3.2,5.4l-3.2-3.3c-0.5-0.6-0.2-1.1,0.1-1.7c0.4-0.5,0.7-1,1.1-1.6
		C375.3,49.5,374.7,47.6,376.2,46.7z"/>
	<path class="st17" d="M248.3,60.6l-3.2,0.1l-0.6,0.3c-0.5,0.5-1.1,0.7-1.8,0.7c-2.2,0.3-3.8-1.4-5.8-1.7c-0.4-0.2-0.8-0.5-1.1-0.8
		c-1.2-1.9-4.1-3-3.2-6l0.5-0.5l3,2c0.4,0.4,0.9,0.7,1.4,0.8L248.3,60.6z"/>
	<path class="st18" d="M383,40.6l1.1-1.1c0.5-0.1,0.8-0.5,1-0.9c-0.1-1.1-1-1.5-1.9-1.9c0.7-0.7,1.7-0.8,2.5-0.3l1.3,8.4l-0.3,0.4
		l-0.2,0.4l0,0.5c0.1,0.3,0.2,0.7,0.3,1c0.2,0.5,0.3,1.1,0.3,1.6c0.1,0.6,0,1.2-0.2,1.8c-0.2,0.4-0.6,0.6-1,0.8
		c-0.7,0.1-1.3,0.1-1.8-0.5c0-1-0.1-2-0.1-2.9c-1-1.2,0.2-2.9-0.9-4l-0.3-1.8C382.7,41.5,382.7,41,383,40.6z"/>
	<path class="st19" d="M400.2,38.6l-0.1-5.1c-0.1-0.3,0.1-0.6,0.3-0.8l0.7-1.1l0,0c0.2-0.1,0.4-0.3,0.6-0.5c0.1-0.3,0.1-0.5,0.1-0.8
		c0.1-0.2,0.3-0.4,0.5-0.6l0,0c0.5-0.9,1-1.6,1.7-2.3c0.4-0.4,1-0.6,1.6-0.6c0.4,0.1,0.7,0.2,1,0.5c0.2,0.3,0.4,0.6,0.4,1
		c0,0.4-0.2,0.7-0.4,1c-0.1,0.2-0.2,0.3-0.3,0.5l-1.2,1.9c-0.2,0.4-0.5,0.8-0.9,1.1l0,0c-0.3,0.3-0.7,0.7-1,1
		c-0.1,1-0.1,1.9-0.2,2.9c-2,1.1-1.6,3.6-2.8,5.1C399.4,40.8,399.4,39.5,400.2,38.6z"/>
	<path class="st20" d="M356.1,37.7c-2,7.6-0.5,15.4-1,23.1c-1.9-7.6-1.9-15.5-0.1-23.2l0.6-0.6L356.1,37.7z"/>
	<path class="st14" d="M285.1,36.7c0,2.7-1.4,4.8-3,6.8c-0.6,1.2-1,2.5-2.2,3.3c-0.4,0.3-0.8,0.4-1.2,0.4c-0.4-0.1-0.7-0.5-0.7-0.9
		c6-4.1,5.4-10.7,6.1-16.7l0.6,0.3c0.5,0.5,0.8,1.2,0.9,1.9C285.6,33.5,285.5,35.1,285.1,36.7z"/>
	<path class="st21" d="M358.3,41.8l-0.1-5c0.8-0.9,0.2-2.1,0.8-3c0.1-2,0.2-3.9,0.4-5.8l0.3-0.9l0.6,0.7c-0.4,4.4,0.3,8.6,1,12.9
		c-1.2,0.8,0.2,2.8-1.6,3.2C358.5,43.6,358.7,42.5,358.3,41.8z"/>
	<path class="st22" d="M231.1,61.8c-1.7-2.2-1.7-4.7-1.1-7.3c0.4-1.9,1.1-3,3.2-1.8c0.2,0.3,0.3,0.6,0.3,0.9
		c-1.3-0.2-0.8,0.8-0.9,1.4c0.1,0.4,0.3,0.7,0.5,1c0.3,0.4,0.7,0.8,1.1,1.1c0.3,0.2,0.6,0.5,0.8,0.7c0.3,0.3,0.5,0.6,0.7,0.9
		c0.3,0.5,0.4,1.1,0.3,1.7c-0.2,0.4-0.4,0.8-0.6,1.1c-0.3,0.4-0.6,0.6-1,0.8c-0.4,0.1-0.9,0.1-1.3-0.1
		C232.4,62,231.7,61.8,231.1,61.8z"/>
	<path class="st23" d="M404.1,54.8c3.2,0.3,1.4-3.1,3-4.1c1,2.9,1.1,6.1,0.2,9.1l-0.6-0.1c-2-0.8-4.4,1-6.2-1.1c0-0.6,0-1.1,0-1.7
		C401.3,55.6,402,53.9,404.1,54.8z"/>
	<path class="st24" d="M305.1,9.6c1.4-2.3-0.5-5,1.1-7.3c2.9,4.4,0.8,8.4-1,12.4l-0.1-3.2C304.6,11.1,304.6,10.3,305.1,9.6
		C305.1,9.7,305.1,9.7,305.1,9.6z"/>
	<path class="st8" d="M316.2,59.7c-0.7-2.6-0.7-5.4-0.1-8c0.6-0.9,1.2-1.7,2.5-1c1.7,1.8,1,4.3,1.9,6.4c0,0.5-0.1,1-0.3,1.5
		c-0.3,0.4-0.6,0.8-1,1.2l0,0c-0.7,0.6-0.2,1.8-1.1,2.3C316.3,62.1,316.9,60.4,316.2,59.7z"/>
	<path class="st25" d="M316.2,59.7l2,2c0.7,0.5,0.4,1.5,1,2l0,0l1,1l0,0c2.5,1,5.2,0,7.7,0.8l1.2,0.2
		C321.8,68.9,317.9,67.1,316.2,59.7z"/>
	<path class="st6" d="M294.1,64.8l-1-0.9c-0.3-0.4-0.6-0.8-1-1.1l0,0c-0.3-0.3-0.6-0.7-0.9-1l0,0c-0.8-1.4-1.1-3-1-4.6
		c0.2-0.4,0.4-0.8,0.8-1.2c0.4-0.2,0.8-0.4,1.3-0.5c1.9,0.1,3.3,1.6,3.4,3.5l0.2,0.6c0.2,0.3,0.4,0.7,0.6,1c0.6,1.4,0,2.3-1.1,3.1
		c-0.3,0.2-0.6,0.5-0.9,0.8L294.1,64.8z"/>
	<path class="st26" d="M344.3,38.7c0.3,2,0.6,4,0.9,6c-0.8,0.8-0.4,2.9-2.5,2.2c-0.9-0.7-1.5-1.6-1.8-2.6c0-1.9,1-3.7,1.1-5.6
		C342.7,38,343.6,38.1,344.3,38.7z"/>
	<path class="st27" d="M374.1,52.7c-0.3,0.4-0.7,0.7-1,1.1c-0.9,1-1.9,2-2.8,2.9c0.8-2.9,2-5.6,3.8-8c1-0.3,0.2-2.7,2.1-2l0,0l-1,5
		C375.2,52.3,374.7,52.7,374.1,52.7C374.2,52.7,374.2,52.7,374.1,52.7z"/>
	<path class="st25" d="M420.4,17.8l-5.2,2.8c-0.5-0.5,0.2,0.2-0.3-0.3c-0.1-0.1,0,0,0.2,0.3l-2.5,2.2c-0.4,0.3-1,0.3-1.5,0.1
		c-0.8-1.5,0.4-2.4,1-3.5l3.1-1.8c0.8,0,1.6-0.3,2.2-0.8c0.6-0.2,1.2-0.3,1.8-0.2c0.4,0.1,0.7,0.3,1,0.6L420.4,17.8z"/>
	<path class="st12" d="M318.2,50.7l-2.1,1c0.1-3.9,1.2-7.7,3-11.1c0.5,0.2,0.9,0.6,1.1,1c0.3,1,0.4,2,0.3,3c-0.5,1.9-0.5,4-1.8,5.7
		L318.2,50.7z"/>
	<path class="st5" d="M257,34.7c-1.1-1.9-1.7-3.9-1.9-6.1c-0.2-0.1-0.3-0.4-0.3-0.6c0.1-0.2,0.1-0.3,0.2-0.3c-0.5-1.8,0-3.7,1.3-5
		c-0.5,3.6-0.2,7.2,1,10.7c0.3,0.3,0.4,0.8,0.1,1.2C257.3,34.6,257.1,34.7,257,34.7z"/>
	<path class="st5" d="M249.1,27.6c0.3,4.1,0.7,8.2,1,12.2C248.1,36.1,247.7,31.7,249.1,27.6z"/>
	<path class="st20" d="M271.1,54.7h-3l-0.7,0c-0.4-0.1-0.8-0.3-1.2-0.6c-0.3-0.3-0.5-0.7-0.6-1.2c0-0.4-0.1-0.9-0.1-1.3
		c0-0.9,0-1.7,0.2-2.6c0.2-0.4,0.4-0.7,0.7-1l0.6-0.3c2,1.5,1.2,4.3,2.8,5.9c0.3-0.2,0.7-0.3,1.1-0.3c0.3,0.2,0.5,0.6,0.5,0.9
		L271.1,54.7z"/>
	<path class="st28" d="M386.1,50.6l0.1-1c0.5-0.5,0.4-1.2,0.6-1.8c0.3-0.3,0.8-0.3,1.1-0.1l1.3,3.9l-0.1,0.6c-0.3,0.6-0.6,1.1-1,1.5
		c-2.5,1-2.3-0.5-2-2.1C385.5,51.4,385.5,51,386.1,50.6z"/>
	<path class="st14" d="M359.2,43.7l2-3.1l0.1,9l-0.6,0.4c-1.9,0.1-2-1.5-2.5-2.7c-0.1-0.4-0.2-0.9-0.2-1.3c-0.1-0.7,0.1-1.3,0.5-1.9
		L359.2,43.7z"/>
	<path class="st24" d="M301.1,23.6c0.7-3.3,1.4-6.6,4.2-8.8C304.5,17.9,303.1,20.9,301.1,23.6z"/>
	<path class="st6" d="M258.2,68.8l-1-0.4l7.2-4.6C263.3,66.4,261,68.3,258.2,68.8z"/>
	<path class="st29" d="M360.3,27.7c-0.3,0-0.6,0.1-1,0.2c-0.2-2.1,1.2-5-2.6-5.4l4.9-1.4C361.1,23.8,360.7,25.8,360.3,27.7z"/>
	<path class="st23" d="M261.1,61.6l-2,1.3c-0.4,0.2-0.7,0.5-1,0.8h-2c-0.5-0.6-1.4-0.4-2-0.9l-2-1.2
		C255.1,61.8,258.1,62.3,261.1,61.6z"/>
	<path class="st30" d="M416.3,16.7c2.1-2.2,4.7-2.1,7.3-1.9c0.2,1.5-0.6,1.6-1.4,1.9h-0.6c-0.4,0-0.8,0-1.1,0
		c-0.6,0.1-1.1,0.2-1.6,0.4c-0.6,0-1.1,0-1.7,0.1C416.9,17.2,416.5,17,416.3,16.7z"/>
	<path class="st23" d="M393.1,67c0-0.4,0.1-0.9,0.1-1.3c0.1-0.5,0.4-0.9,0.7-1.3c0.6-0.5,1.3-0.7,2.1-0.7c1.7,0.2,3.6-0.5,4.9,1.2
		l0.3,0.7C398.6,67,396.1,68.8,393.1,67z"/>
	<path class="st31" d="M328.1,30.5c1.6-0.9,3.3-1.4,5.2-1.4c0.4,1.8-0.8,2.1-2,2.5h-0.6c-0.6,0.1-1.3,0.1-1.8-0.2
		C328.4,31.3,328.2,30.9,328.1,30.5z"/>
	<path class="st14" d="M412.1,19.4l-0.9,3.2c-0.1,0.4-0.4,0.8-0.6,1.1L410,24c-0.4,0-0.8-0.2-1.1-0.5c-0.4-0.6-0.2-1.3,0.3-1.6
		c0,0,0,0,0,0C409.9,20.7,410.9,19.8,412.1,19.4z"/>
	<path class="st32" d="M285.9,18.5c0.1-2.5,0.7-4.9,1.9-7c0.5,0,0.9,0.2,1.2,0.5c0.6,1,0.7,2.2,0.5,3.3c-0.1,0.7-0.3,1.3-0.6,1.9
		c-0.4,0.8-0.9,1.6-1.9,1.8C286.6,19.1,286.2,18.9,285.9,18.5z"/>
	<path class="st33" d="M261.1,42.7c0-0.7,0.1-1.4,0.1-2.1c1.4,1.7,2.8,3.3,4.2,5c-0.1,0.4-0.4,0.7-0.8,0.9c-0.4,0.1-0.8,0.1-1.2,0
		c-0.4-0.2-0.7-0.4-1-0.7l-0.4-0.5c-0.2-0.3-0.4-0.7-0.5-1l-0.1-0.6C261.5,43.3,261.4,43,261.1,42.7z"/>
	<path class="st23" d="M291.1,57.7v4c-1-0.7-1.7-1.8-2-3c-0.4-0.2-0.5-0.6-0.3-1c0-0.1,0.1-0.2,0.2-0.2
		C289.7,57.1,290.6,57.2,291.1,57.7z"/>
	<path class="st29" d="M354.2,25.9c4.5-0.8,2.7,1.8,2,3.8C355.5,28.5,357.6,25.7,354.2,25.9z"/>
	<path class="st34" d="M343.1,52.6l-0.2-1c-0.6-0.2-1.2-0.7-1.6-1.3c-0.2-0.4-0.2-0.9-0.1-1.4c0.2-0.7,0.7-1.2,1.3-1.5
		c0.5-0.1,0.9-0.1,1.4,0c0.9,0.7,0.8,1.6,0.4,2.5C344.3,51,344.2,52,343.1,52.6z"/>
	<path class="st14" d="M409.2,21.8v1.9c0,0.2,0,0.4,0.1,0.6c0,0.4-0.1,0.8-0.3,1.1c-0.1,0.1-0.3,0.3-0.4,0.4
		c-0.3,0.3-0.6,0.5-0.9,0.7c-0.4,0.1-0.8,0.2-1.2,0.1c-0.4-0.1-0.8-0.2-1.1-0.5l-0.3-0.6L409.2,21.8z"/>
	<path class="st35" d="M282.1,44.6c3.1-0.7,3.1,1.3,2.9,3.4c-0.7-1.1-0.7-3-2.8-2.2l-0.4-0.3C281.7,45.2,281.8,44.8,282.1,44.6z"/>
	<path class="st14" d="M284.1,29.6l0.9-7.1l0.8,0.4c1.3,2,1.3,4.5,0.1,6.5c-0.4,0.4-1,0.6-1.5,0.4L284.1,29.6z"/>
	<path class="st36" d="M293.3,43.6l2,6.1c-0.4,0.4-0.9,0.5-1.4,0.4c-2-1.3-2.6-3-1.4-5.2C292.5,44.3,292.8,43.8,293.3,43.6z"/>
	<path class="st29" d="M349.3,28l1.9-2.3l3.2,0.1L349.3,28z"/>
	<path class="st37" d="M344.3,50l-1.2-2.3c-0.2-0.3-0.2-0.7,0.1-0.9l2-2C345.8,46.5,345.4,48.5,344.3,50z"/>
	<path class="st5" d="M266.1,17.6l-6.3-0.1C261.9,16.2,264.1,15.9,266.1,17.6z"/>
	<path class="st6" d="M261,55.7c1.4,1.3,2.2,3.1,2.1,5c-0.3,0.3-0.7,0.4-1,0.4l-0.2-0.6L261,55.7z"/>
	<path class="st29" d="M356.1,37.7l-1.1,0c0.4-2.2,0.7-4.3,1.1-6.5L356.1,37.7z"/>
	<path class="st38" d="M344.3,38.7l-1.8,0.2l-0.7,0.6l-0.6-0.7l1.2-3.2C343.5,36.2,344.2,37.4,344.3,38.7z"/>
	<path class="st5" d="M267.3,22.8l-1.1-5.2C267,19.3,268.9,20.6,267.3,22.8z"/>
	<path class="st16" d="M376.2,46.7l-2.1,2c0.1-1.9,0.8-3.7,2-5.2L376.2,46.7z"/>
	<path class="st29" d="M297.1,1.3l0.1,1.3L297,3.3c-0.3,0.6-0.8,1-1.3,1.4c-0.4,0.2-0.9,0.2-1.3,0.2c-0.4-0.1-0.8-0.4-1.1-0.7
		L293,3.5C294.1,2.3,295.5,1.6,297.1,1.3z"/>
	<path class="st31" d="M330.1,33.3l-1.6,1.6c-0.4-0.2-0.7-0.6-0.9-1c0-2.2,1.3-2.7,3.1-2.5l0.6,0.3L330.1,33.3z"/>
	<path class="st5" d="M259.1,17.8c-1,1.2-2.5,1.9-4.1,1.8C256.1,18.2,257.7,18.2,259.1,17.8z"/>
	<path class="st32" d="M284.9,22.5c0.3-1.3,0.6-2.7,1-4l0.6,0.3c2.2,2,1.7,3.3-1,4L284.9,22.5z"/>
	<path class="st6" d="M268.2,59l2.7-3.3c0.4,0.1,0.5,0.3,0.5,0.5s-0.2,0.4-0.3,0.4C270.4,57.6,269.4,58.5,268.2,59z"/>
	<path class="st5" d="M256.2,22.8c0.9-2.2,2.2-2.3,3.9-1C258.8,21.5,257.3,21.9,256.2,22.8z"/>
	<path class="st5" d="M250.1,39.7c1.4,0.9,2.2,2.5,2,4.1C250.9,42.8,250.2,41.3,250.1,39.7z"/>
	<path class="st36" d="M292.1,43.8c0-1.9,0-3.7,0.1-5.6c0.3,1.8,0.7,3.6,1.1,5.4l-0.5,0.4C292.5,44.3,292.2,44.2,292.1,43.8z"/>
	<path class="st39" d="M361.2,53.6l-0.3-1.7c-0.5-0.6-0.5-1.5,0-2.1c0.2-0.1,0.4-0.1,0.6-0.1c0.2,1.4,0.5,2.7,0.7,4.1l-0.5,0.7
		L361.2,53.6z"/>
	<path class="st35" d="M276.2,51.7l-2.1,2c-0.3,0.2-0.8,0.2-1.1-0.1c-0.1-0.2-0.2-0.4-0.3-0.5v-0.6c0.2-0.4,0.4-0.7,0.8-1
		c0.3-0.3,0.7-0.5,1.1-0.6c0.4,0,0.8,0.1,1.2,0.3L276.2,51.7z"/>
	<path class="st19" d="M298.2,54.7h-1.1c-1,0-1.7-0.9-1.7-1.8c0-0.1,0-0.3,0.1-0.4c0.2-0.4,0.5-0.7,0.9-0.9
		C297.3,52.3,298,53.5,298.2,54.7z"/>
	<path class="st33" d="M308.2,66c0.5-1.1,1.6-2,2.8-2.3C310.5,64.8,309.4,65.7,308.2,66z"/>
	<path class="st14" d="M404.3,27.9l-2,1.8c0.2-1.3,0.9-2.4,2-3l0.4,0.3C404.8,27.4,404.6,27.7,404.3,27.9z"/>
	<path class="st40" d="M260.1,40.7l-2-1c-0.3-0.2-0.4-0.4-0.3-0.7s0.2-0.3,0.3-0.3l0,0c0.4-0.5,1.1-0.6,1.6-0.2
		c0.1,0.1,0.1,0.1,0.2,0.2c0.2,0.1,0.4,0.3,0.4,0.6C260.6,39.8,260.5,40.4,260.1,40.7z"/>
	<path class="st41" d="M233.2,61.7l0.9,0.1c0.6,0,1.2,0.5,1.4,1.1c0.1,0.6-0.4,1.2-1,1.3c-0.3,0-0.5,0-0.8-0.2l-1.7-1.2
		C232.1,62.2,232.6,61.7,233.2,61.7z"/>
	<path class="st8" d="M416.3,16.7c0.3,0.1,0.6,0.2,0.9,0.3v0.6c-0.6,0.4-1.4,0.4-2-0.1L416.3,16.7z"/>
	<path class="st33" d="M312.1,62.6l-2.5-1l2.6-1C313.2,61.5,312.9,62.1,312.1,62.6z"/>
	<path class="st42" d="M233.2,61.7l-1.1,1.1l-1-1C231.7,61.2,232.6,61.2,233.2,61.7z"/>
	<path class="st5" d="M265.2,25.8c0.2-1.3,1-2.4,2.1-3C267,24,266.2,25.1,265.2,25.8z"/>
	<path class="st33" d="M260,38.7h-1.8c0-1,0-2,0-3.1L260,38.7z"/>
	<path class="st24" d="M298.2,27.8c0.1-1.3,0.9-2.4,2-3.1C300,26,299.2,27,298.2,27.8z"/>
	<path class="st43" d="M319.3,41.7l-0.2-1.1l0.9-2.2l0.6,0.5C321.1,40.3,321.2,41.5,319.3,41.7z"/>
	<path class="st29" d="M287.8,11.5l1.2-2.9l0.5,0.4c0.4,1.2,0.6,2.3-1.1,2.5C288.3,11.6,288.1,11.5,287.8,11.5z"/>
	<path class="st11" d="M382.2,56.7c-0.4-1-0.8-1.9-1.3-2.9c0.2,0,0.3,0,0.5-0.1c2,0.2,1.2,1.4,1,2.5L382.2,56.7z"/>
	<path class="st35" d="M273.2,50.8l1.7-1.4c0.4,0.1,0.7,0.6,0.6,1c-0.3,0.6-0.8,1-1.3,1.4l0,0c-0.3,0.4-0.8,0.4-1.2,0.2
		c-0.3-0.3-0.3-0.7,0-1C273,50.9,273.1,50.8,273.2,50.8z"/>
	<path class="st25" d="M286.9,53.8l1.4,1c0.3,0.3,0.4,0.6,0.5,1l-0.2,0.6l-0.5,0.4C287.1,56,287.1,54.9,286.9,53.8z"/>
	<path class="st33" d="M361.2,53.6c0.3,0,0.6,0.1,0.9,0.1l0.1,3C361.9,55.6,361.6,54.6,361.2,53.6z"/>
	<path class="st23" d="M251.5,61.6c-1.2,0.2-2.5-0.2-3.4-1L251.5,61.6z"/>
	<path class="st29" d="M353.1,23.5l-1.9,1.3l-0.6,0.3l-0.5-0.5L353.1,23.5z"/>
	<path class="st44" d="M273.2,50.8l0.1,1c0.2,0.2,0.2,0.6,0,0.8c0,0-0.1,0.1-0.1,0.1v-0.1c-0.3,0.5-1,0.7-1.6,0.5l-0.4-0.4
		L273.2,50.8z"/>
	<path class="st45" d="M228.8,50.5c-0.1,0-0.3-0.1-0.4-0.1s0-0.3,0-0.4l0.6,0.2L228.8,50.5z"/>
	<path class="st14" d="M397.2,60.8c0,0.3,0,0.6,0,0.9c-1.5,0.7-2-0.2-2.3-1.4l0.4-0.5L397.2,60.8z"/>
	<path class="st14" d="M407.3,29.7l-1.1,0l-0.2,0c-0.2-0.3-0.2-0.7,0-0.9c0,0,0.1-0.1,0.1-0.1l0,0c0.3-0.5,0.6-1.1,1.2-1.3
		c0.4-0.1,0.8,0.1,1,0.5L407.3,29.7z"/>
	<path class="st33" d="M300.1,56.8c-0.9-0.4-1.6-1.2-1.9-2.2C298.8,55.4,299.4,56.1,300.1,56.8z"/>
	<path class="st5" d="M259.9,21.8c1,0.2,1.9,0.9,2.2,1.9L259.9,21.8z"/>
	<path class="st19" d="M294.2,49.7l1.2-0.1l1,2l-0.4,0.3C294.5,51.9,293.7,51.3,294.2,49.7z"/>
	<path class="st28" d="M390.3,53.6l1.1,1.7c0.3,0.5,0.2,0.8-0.4,0.8c-1.2-0.2-1.3-1.1-1.2-2L390.3,53.6z"/>
	<path class="st29" d="M289.1,8.6l1.1-1.9l0.3,0.6c0.1,0.7-0.4,1.4-1.1,1.5c0,0,0,0,0,0L289.1,8.6z"/>
	<path class="st31" d="M320.1,38.5c0.4-0.6,0.7-1.2,1.1-1.8c0.1,0.2,0.3,0.3,0.4,0.5c0.3,0.8-0.1,1.6-0.9,1.9
		c-0.1,0-0.3,0.1-0.4,0.1C320.2,39,320.1,38.7,320.1,38.5z"/>
	<path class="st30" d="M422.3,16.7l-1.9,1.1c-0.2-0.1-0.4-0.2-0.5-0.4c-0.1-0.4,0-0.7,0.3-1c0.5-0.3,1.1-0.3,1.6,0L422.3,16.7z"/>
	<path class="st25" d="M289.3,57.6l-0.2,1l-1.1-1.9l0.2-0.2l0.6-0.1l0.5,0.5C289.4,57.1,289.4,57.4,289.3,57.6z"/>
	<path class="st33" d="M363.3,58.7l-1.1-2.1L363.3,58.7z"/>
	<path class="st24" d="M382.8,57.8c0.4,0.7,0.9,1.4,1.3,2.1C383.7,59.3,383.2,58.5,382.8,57.8z"/>
	<path class="st25" d="M410.2,23.6l1-1l1.4,0.1l-1,1C411.2,24.1,410.6,24.1,410.2,23.6C410.2,23.7,410.2,23.7,410.2,23.6z"/>
	<path class="st33" d="M305.1,60.7l-2-1L305.1,60.7z"/>
	<path class="st5" d="M262.1,23.6c0.3,0.7,0.6,1.4,0.9,2.1C262.7,25.1,262.4,24.4,262.1,23.6z"/>
	<path class="st31" d="M334.1,33.3l-1.9,1.3L334.1,33.3z"/>
	<path class="st23" d="M407.3,59.8c0.1,0.8-0.3,1.6-1,2l-0.5-0.5c-0.1-1-0.1-1.8,1.3-1.6L407.3,59.8z"/>
	<path class="st14" d="M410.2,23.6l1.4,0.2l-1.4,1.8l-0.4-0.4C409.5,24.6,409.7,24,410.2,23.6L410.2,23.6z"/>
	<path class="st29" d="M350.2,25.7l-2.1,0l2.1-0.9l0.2,0.2l0.2,0.5L350.2,25.7z"/>
	<path class="st6" d="M265.1,62.7l1.2-2L265.1,62.7z"/>
	<path class="st5" d="M250.1,25.1c-0.3,0.9-0.7,1.7-1,2.5C249.4,26.8,249.7,26,250.1,25.1z"/>
	<path class="st5" d="M263.1,25.8h2.2C264.5,26.7,263.8,27,263.1,25.8z"/>
	<path class="st33" d="M307.7,61.7l-2.6-0.9L307.7,61.7z"/>
	<path class="st31" d="M321.8,35.4l1.4-1.7l0.4,0.5c0.1,0.4,0.1,0.8,0,1.2c-0.2,0.3-0.6,0.6-0.9,0.7
		C322.3,36.1,321.9,35.9,321.8,35.4C321.9,35.5,321.8,35.4,321.8,35.4z"/>
	<path class="st33" d="M257,34.7l0.3-1.4c0.3,0.8,0.6,1.6,0.9,2.3L257,34.7z"/>
	<path class="st23" d="M405.2,62.8l-1.9,1.2c-0.1-0.2-0.3-0.4-0.4-0.6c0.2-0.7,0.9-1.2,1.7-1c0,0,0,0,0,0L405.2,62.8z"/>
	<path class="st7" d="M356.1,63.7l1.1,1.8C356.5,65.2,356.1,64.5,356.1,63.7z"/>
	<path class="st14" d="M402.2,29.7l0.1,1.1c0.2,0.3,0.1,0.7-0.2,0.9l-1.1-0.1C401,30.8,401.5,30.1,402.2,29.7z"/>
	<path class="st31" d="M326,31.5l2-1c0.1,0.2,0.2,0.3,0.3,0.5c0,1-0.6,1.3-1.5,1.3C326.4,32.1,326.1,31.9,326,31.5z"/>
	<path d="M264.1,45.7l1.3-0.2l0.9,1.1l-0.4,0.5c-0.4,0.2-0.8,0.2-1.2,0.1C264.1,46.9,263.8,46.4,264.1,45.7z"/>
	<path class="st46" d="M237.1,64.8c0,0.3,0,0.7,0,1l-2-1l0.4-0.5C236.1,64.1,236.8,64.3,237.1,64.8z"/>
	<path class="st44" d="M388,47.7h-0.8c-0.5-0.4-0.7-1.1-0.4-1.6l0.4-0.4L388,47.7z"/>
	<path class="st31" d="M324.2,32.8l1.8-1.3c0.1,0.2,0.2,0.3,0.4,0.5c-0.1,0.7-0.7,1.2-1.4,1.1c0,0,0,0-0.1,0L324.2,32.8z"/>
	<path class="st28" d="M389.3,51.6l1,2l-0.4,0.4l-0.5,0.1l-0.2-0.4l0,0c-0.6-0.4-0.7-1.2-0.3-1.8L389.3,51.6z"/>
	<path class="st29" d="M292.1,4.6l1-1l0.3,0.4c-0.1,0.4-0.3,0.8-0.7,0.9L292.1,4.6z"/>
	<path class="st29" d="M291.1,5.6l0.9-1.1l0.2,0.2c0,0.4-0.2,0.8-0.6,1L291.1,5.6z"/>
	<path class="st29" d="M290.2,6.7l0.9-1.1l0.2,0.2c0.1,0.6-0.2,1-0.8,1.1L290.2,6.7z"/>
	<path class="st5" d="M255.1,19.6l-1.2,1L255.1,19.6z"/>
	<path class="st5" d="M254.1,20.5l-1.1,1.2L254.1,20.5z"/>
	<path class="st5" d="M253.1,21.5l-1.1,1.2L253.1,21.5z"/>
	<path class="st5" d="M252.1,22.5l-1,1.2L252.1,22.5z"/>
	<path class="st29" d="M354.2,23.6l-1.1-0.1l1.1-0.7c0.3,0.2,0.3,0.4,0.3,0.5S354.3,23.6,354.2,23.6z"/>
	<path class="st20" d="M354.2,23.6c0-0.3,0-0.5,0-0.8l1-0.2L354.2,23.6z"/>
	<path class="st5" d="M251.1,23.6l-0.8,1L251.1,23.6z"/>
	<path class="st24" d="M300.2,24.8l0.9-1.1L300.2,24.8z"/>
	<path class="st14" d="M404.2,26.7l1-1v0.1C405.4,26.6,405.2,27,404.2,26.7L404.2,26.7z"/>
	<path class="st14" d="M410.1,25.6l-1,1c-0.1-0.2-0.1-0.4-0.2-0.5c0.1-0.4,0.4-0.6,0.8-0.7L410.1,25.6z"/>
	<path class="st14" d="M409.2,26.6c-0.3,0.4-0.5,0.8-0.7,1.2l-0.4-0.4c-0.1-0.5,0.2-1,0.7-1.1c0.1,0,0.1,0,0.2,0L409.2,26.6z"/>
	<path class="st24" d="M297.3,29.1l1-1.4C297.9,28.2,297.6,28.6,297.3,29.1z"/>
	<path class="st35" d="M282.2,45.8l-0.9,1.1l-0.4-0.5c0.1-0.4,0.5-0.8,0.9-0.8L282.2,45.8z"/>
	<path class="st20" d="M266.4,46.6l0.8,1.1l-0.2,0.2l-0.5,0.2l-0.5-0.3c-0.2-0.3-0.2-0.7-0.1-1C265.9,46.7,266.2,46.7,266.4,46.6z"
		/>
	<path class="st44" d="M271.2,53.7l-1.2-0.1l1.2-0.9l0.3,0.3C271.6,53.3,271.5,53.6,271.2,53.7C271.2,53.7,271.2,53.7,271.2,53.7z"
		/>
	<path class="st44" d="M271.1,56.6c-0.1-0.3-0.1-0.6-0.1-0.9l0.1,0l0.6-0.3l0.5,0.4L271.1,56.6z"/>
	<path class="st33" d="M260.1,40.7l0.2-1.4l1,1.3L260.1,40.7z"/>
	<path class="st11" d="M391.3,55.3l0.8,1.4l-0.5,0.2c-0.3-0.2-0.5-0.6-0.4-0.9C391.3,55.8,391.3,55.5,391.3,55.3z"/>
	<path class="st33" d="M301,57.8l-0.9-0.9L301,57.8z"/>
	<path class="st44" d="M273.1,53.6c0.3,0,0.7,0,1,0.1l-1,1l-0.3-0.3V54L273.1,53.6z"/>
	<path class="st35" d="M278.3,49.8l-1,1c-0.1-0.2-0.2-0.3-0.3-0.5c0.1-0.4,0.4-0.7,0.8-0.8L278.3,49.8z"/>
	<path class="st11" d="M392.2,56.7l1,1l-0.6,0.1C392.2,57.6,392,57.1,392.2,56.7z"/>
	<path class="st31" d="M321.1,36.6l0.7-1.3l0.5,0.4c0.1,0.7-0.2,1-0.8,1.1L321.1,36.6z"/>
	<path class="st33" d="M302,58.8l-0.9-0.8L302,58.8z"/>
	<path class="st11" d="M393.1,57.8l1,1l-0.6,0.1C393.1,58.6,393,58.2,393.1,57.8L393.1,57.8z"/>
	<path class="st44" d="M386.2,44.6l0.8,0.1c0.1,0.3,0.2,0.7,0.2,1l-0.4,0.2C386.1,45.8,385.7,45.4,386.2,44.6z"/>
	<path class="st38" d="M342.4,35.6l-1.2-1.2L342.4,35.6z"/>
	<path class="st6" d="M267.2,59.9l1.2-1.2L267.2,59.9z"/>
	<path class="st33" d="M303.1,59.7l-1-0.9L303.1,59.7z"/>
	<path class="st35" d="M279.2,48.8c-0.3,0.3-0.6,0.7-1,1l-0.3-0.3c0-0.4,0.3-0.8,0.7-1L279.2,48.8z"/>
	<path class="st11" d="M394.1,58.8l1.2,1c-0.2-0.1-0.4-0.1-0.6-0.1C394.2,59.6,394,59.2,394.1,58.8L394.1,58.8z"/>
	<path class="st6" d="M266.2,61l1.2-1.2C267,60.2,266.6,60.6,266.2,61z"/>
	<path class="st35" d="M274.8,49.4l1-1c0.4,0,0.7,0.3,0.7,0.6c0,0,0,0,0,0c-0.1,0.5-0.6,0.9-1.1,0.8c-0.1,0-0.1,0-0.2-0.1
		L274.8,49.4z"/>
	<path class="st31" d="M237.5,55.6l-1.4-0.8L237.5,55.6z"/>
	<path class="st35" d="M280.4,48l-1.1,0.8l-0.4-0.3c-0.1-0.4,0-0.8,0.3-1.1c0.4-0.2,0.8-0.2,1.1,0C280.3,47.6,280.3,47.8,280.4,48z"
		/>
	<path class="st35" d="M275.9,48.4l1-1c0.2,0.1,0.4,0.2,0.5,0.3c0,0.8-0.3,1.1-1.1,1L275.9,48.4z"/>
	<path class="st6" d="M262.1,61.7l-1.1-0.1c0.3-0.4,0.6-0.8,0.9-1.1l0.4,0.3c0.2,0.2,0.2,0.6,0,0.7
		C262.2,61.6,262.2,61.7,262.1,61.7z"/>
	<path class="st44" d="M273.1,54.7l-1,1l-0.3-0.3v-0.6l0.4-0.4h0.6L273.1,54.7z"/>
	<path class="st23" d="M291.2,61.7l0.9,1L291.2,61.7z"/>
	<path class="st35" d="M281.3,46.9l-0.9,1.1l-0.4-0.5c-0.1-0.7,0.3-1,1-0.9L281.3,46.9z"/>
	<path class="st23" d="M406.3,61.8l-1,1l-0.1-0.1c-0.2-0.8,0.2-1.2,1-1L406.3,61.8z"/>
	<path class="st31" d="M323.2,33.7l1-1l0.3,0.3c0.1,0.3,0,0.6-0.2,0.8l-0.4,0.2l-0.4-0.1L323.2,33.7z"/>
	<path class="st6" d="M264.2,64l0.9-1.3L264.2,64z"/>
	<path class="st23" d="M292.1,62.7l1,1.1L292.1,62.7z"/>
	<path class="st33" d="M311.1,63.6l0.9-0.9L311.1,63.6z"/>
	<path class="st46" d="M233.8,64l1.4-0.2l0.3,0.2v0.4l-0.4,0.4C234.6,64.5,234.2,64.2,233.8,64z"/>
	<path class="st14" d="M401.1,31.6l-0.7,1.1L401.1,31.6z"/>
	<path class="st35" d="M276.9,47.5l1.1-1.1c0,0.2,0.1,0.5,0.1,0.7c0,0.4-0.3,0.8-0.7,0.8c0,0-0.1,0-0.1,0
		C277.2,47.7,277.1,47.6,276.9,47.5z"/>
	<path class="st23" d="M403.4,64l-1.2,0.8l-0.2-0.5c0.2-0.6,0.5-1,1.2-0.5L403.4,64z"/>
	<path class="st35" d="M277.2,50.8l-1.1,0.9l-0.3-0.4c0.1-0.5,0.6-0.8,1.1-0.8L277.2,50.8z"/>
	<path class="st23" d="M402.2,64.8l-1.1,0.9l0,0C401,64.9,401.3,64.5,402.2,64.8L402.2,64.8z"/>
	<path class="st47" d="M96.2,37c-9.7,0.1-15.1,5.8-15.2,15.9c0,10,5,15.5,14.1,15.6c10,0.1,15.9-5.7,16-15.7
		C111.2,43.3,105.1,36.9,96.2,37z M101.7,60.9c-0.8,2.6-3.2,4.4-6,4.3c-2.6,0.2-4.9-1.6-5.5-4.1c-1.6-5.3-1.6-10.9,0.1-16.1
		c0.7-2.9,3.5-4.8,6.4-4.4c3.4,0.2,4.9,2.6,5.4,5.6c0.3,2.1,0.5,4.3,0.6,6.4C102.6,55.3,102.7,58.2,101.7,60.9z"/>
	<path class="st47" d="M164.7,37c-9.8-0.1-15.4,5.9-15.4,16.3c0,9.8,5.1,15.2,14.5,15.2c10,0.1,15.7-5.8,15.6-16
		C179.3,43,173.7,37.1,164.7,37z M169.8,61.3c-1,2.6-3.6,4.2-6.3,3.8c-3-0.1-4.6-2-5.2-4.6c-1.2-4.9-1.2-9.9-0.1-14.8
		c0.7-3.1,2.6-5.3,6.3-5.3c3.5,0,5.1,2.2,5.8,5.1c0.4,2.4,0.7,4.9,0.9,7.4C171,55.9,171,58.7,169.8,61.3z"/>
	<path class="st40" d="M26.1,54.4c2-9.3-1.1-15.2-8.2-16.8C6.1,34.8-2.4,44.9,0.6,57.8C3,67.9,16,72.2,24,65.6
		c0.9-0.8,1.2-1.6,0.4-3c-3.4-0.6-6.7,2.3-10.3,1.3c-4.5-1.3-5.5-4.6-4.9-9.5H26.1z M8.8,50.7c-0.2-3.8-0.4-7.2,2.9-9.6
		c1.4-1,3.3-1,4.7,0c3.1,2.3,3,5.5,2.2,9.4C15.3,51.1,12,51.2,8.8,50.7z"/>
	<path d="M196.1,41.7"/>
	<path class="st48" d="M341.2,38.7l1.3,0.1c-0.1,2-0.2,3.9-0.3,5.8v0.6c0.3,1.4-0.5,2.9,0,4.3c0,0.3,0,0.7,0,1
		c0.3,0.2,0.4,0.5,0.3,0.7s-0.2,0.3-0.3,0.3h0.1c-0.1,0.3-0.5,0.4-0.8,0.2c-0.1,0-0.2-0.1-0.2-0.2l-3-1c0.1-0.4,0-0.6-0.3-0.5
		c-0.3,0.1-0.5,0.3-0.5,0.6c-0.3,1.5-1.1,2.9-2.2,3.9c1.6-4.6,1.6-9.3,1-14h1.1c0.3,0.3,0.4,0.8,0.4,1.2c0,0,0,0.4,0,0.3
		s-0.1,0.3-0.1,0.3c0.1,0,0.2,0.1,0.3,0.1h0.3C339.4,41.5,341.2,40.8,341.2,38.7z"/>
	<path class="st14" d="M326.1,41.7c-0.9,4.6-1.2,9.3-0.7,14c-0.4,0.5-0.7,0.5-1.1,0l0,0c-2.4-2.5-1.2-5.6-1.5-8.5
		c0.1-2-0.4-4.2,1.7-5.6C324.9,41.4,325.6,41.4,326.1,41.7z"/>
	<path class="st25" d="M324.2,55.7h1.1c1.2,2.5,2.7,4.6,5.8,4.8C326.7,62,325.8,58.3,324.2,55.7z"/>
	<path class="st13" d="M326.1,41.7h-0.4h-0.5c-0.3,0.3-0.8,0.5-1.3,0.4c-0.7-0.2-1.3-0.8-1.6-1.5c-0.3-1.2,0.2-2.5,1.2-3.2
		c0.4-0.2,0.9-0.3,1.4-0.2c0.4,0.2,0.8,0.5,1,0.9c0.2,0.7,0.3,1.3,0.3,2c0,0.2,0,0.4,0.1,0.7C326.3,41.1,326.2,41.4,326.1,41.7z"/>
	<path class="st31" d="M325.1,38.7v-1c0.1-0.4,0.2-0.8,0.5-1.1l0.6-0.3l0.6,0.1l0.4,0.5c-0.1,0.6-0.2,1.2-0.3,1.8
		c-0.2,0.3-0.5,0.5-0.9,0.6C325.7,39.2,325.4,39,325.1,38.7z"/>
	<path class="st31" d="M328.4,34.9l-1.1,1.9l-0.5-0.4c-0.2-0.3-0.3-0.7-0.2-1.1c0.2-0.6,0.7-0.9,1.3-0.8L328.4,34.9z"/>
	<path class="st49" d="M326.1,38.6h1c-0.3,0.7-0.5,1.4-0.8,2.1l-0.4-0.2C325.6,39.9,325.6,39.2,326.1,38.6z"/>
	<path class="st31" d="M331.2,35.7c0,0.3,0,0.6,0,0.9c-0.1-0.2-0.3-0.4-0.4-0.7C330.9,35.9,331,35.8,331.2,35.7z"/>
	<path class="st48" d="M335.2,39.7l0.9,1.1L335.2,39.7z"/>
	<path class="st32" d="M293.1,30.6c-2.4,0.4-3.5,2.5-5,4.1c-2.8-0.1-2.4-2.1-2.3-4c0.1-4.1,0.7-8.3,1.7-12.3c0-0.8,0.2-1.6,0.6-2.3
		c0.3-0.4,0.5-0.9,0.6-1.4c0.2-0.7,0.5-1.4,0.9-2.1c0.4-0.4,0.9-0.6,1.4-0.6c0.5,0.1,1,0.3,1.4,0.7c2.1,3.9,0.3,8.1,0.8,12.2
		c0.2,1.4-0.1,2.9,0.3,4.4C293.6,29.7,293.5,30.3,293.1,30.6z"/>
	<path class="st5" d="M288.2,16.6c-0.2,6-2.4,12,0,18.1c-0.4,1.6-1.9,1.5-3,2c-0.3-1.6-0.5-3.2-0.8-4.8c0.4-0.7,0.1-1.7,0.9-2.3
		c0.1-2.3,0.2-4.5,0.3-6.8c0.8-1.2,1.1-2.6,1-4c0.2-0.7,0.5-1.4,0.7-2.1C287.5,16.3,287.8,16.2,288.2,16.6z"/>
	<path class="st36" d="M291.1,44.7h1c0.9,2.5,1.3,5.2,2.6,7.6c0.1,0.7-0.2,1.5-0.9,1.9c-0.6,0.3-1.4,0.3-2.1,0
		c-0.4-0.2-0.8-0.4-1.1-0.7c-0.7-0.8-0.3-2.3-1.5-2.8h-1c-0.8-0.5-0.3-1.5-1-2c1-2.8-0.6-6.2,1.9-8.6c1.4,0.7,1,1.8,1.1,2.7
		S290.3,44.3,291.1,44.7z"/>
	<path d="M294.2,52.7c-1.2-2.5-1.9-5.2-2-8c0-0.3,0-0.6,0-1c0.2,0.1,0.5,0.1,0.7,0.2c0.4,1.9,0.9,3.8,1.3,5.7l1.8,2.2l1.1,2.9l-1,1
		h-0.6c-0.4-0.2-0.7-0.4-0.9-0.7C294.1,54.3,294.8,53.4,294.2,52.7z"/>
	<path class="st23" d="M294.2,52.7l1,2l-0.3,0.5c-0.4,0.4-0.9,0.7-1.4,0.8c-0.1,0.1-0.3,0.1-0.5,0.2l-0.5,0.2l-0.4,0.3h-1
		c-0.4,0.5-1.2,0.6-1.8,0.1c-0.1,0-0.1-0.1-0.1-0.1h-0.1l-0.4-0.4l0.1-0.6c0.3-0.6,1.2-1.2,0.4-2v-2c1.1-0.6,1.6,0.2,2,1h1
		c0.3,0.4,0.7,0.6,1,1L294.2,52.7z"/>
	<path class="st20" d="M291.1,44.7c-0.1,0.7-0.2,1.5-0.3,2.5c-1.4-1.1-1.8-3.1-0.7-4.6L291.1,44.7z"/>
	<path class="st20" d="M291.1,52.7l-2-1c0-0.3,0-0.7,0-1c0.7-0.6,1.6-0.6,2.3-0.1C291.3,51.3,291.2,52,291.1,52.7z"/>
	<path d="M280.9,46.5l-1,0.9c-0.3,0.1-0.5,0.1-0.8,0.2c-0.4-0.2-0.5-0.4-0.4-0.7s0.2-0.3,0.3-0.3l3-3.1c0,0.3,0,0.7,0,1
		s-0.2,0.6-0.3,0.9L280.9,46.5z"/>
	<path class="st24" d="M293.1,30.6v-1.2c-1-1.9-0.1-2.7,1.6-3l0.6,0.4C294.6,28.1,293.8,29.4,293.1,30.6z"/>
	<path class="st24" d="M300.3,18.8c-0.1,1.5-0.8,3-2,4l-0.6-0.5c-0.9-2.1-0.3-3.4,2-3.9L300.3,18.8z"/>
	<path class="st24" d="M303.1,6.6c0.4,1,0.7,2.1,1.1,3.1c0.5,0.5,0.6,1.3,0.1,1.8c0,0-0.1,0.1-0.1,0.1l-0.7,0.2
		c-0.5-0.2-1-0.5-1.4-0.9C301.2,9.2,301.4,7.7,303.1,6.6z"/>
	<path class="st0" d="M287.1,48.7l1,2C286.1,50.9,287.6,49.3,287.1,48.7z"/>
	<path class="st24" d="M303.4,11.9l-1.1,3l-0.6-0.5c-0.5-1.4-0.6-2.5,1.2-2.9L303.4,11.9z"/>
	<path class="st36" d="M289.1,53.7c0.5,0.6,0.5,1.4,0,2c-0.3-0.2-0.4-0.4-0.3-0.7c0.1-0.2,0.2-0.3,0.3-0.3
		C289.1,54.4,289.1,54.1,289.1,53.7z"/>
	<path class="st40" d="M304.1,11.6l0.1-1.9c0.3,0,0.6-0.1,1-0.1c0,0.7,0,1.3,0,2H304.1z"/>
	<path class="st24" d="M302.3,14.8c-0.3,0.7-0.6,1.4-1,2c-0.4-0.1-0.7-0.4-0.8-0.8c0-0.9,0.3-1.5,1.3-1.6L302.3,14.8z"/>
	<path class="st24" d="M301.4,16.9c-0.4,0.6-0.7,1.3-1.1,1.9l-0.4-0.3c-0.4-1-0.2-1.8,1.1-2L301.4,16.9z"/>
	<path class="st24" d="M297.3,23.8l-1.1,2l-0.5-0.4c-0.2-0.6-0.1-1.3,0.4-1.7C296.5,23.5,297,23.5,297.3,23.8z"/>
	<path class="st24" d="M298.2,22.8l-0.9,1l-0.1-0.1c-0.4-0.8,0.1-1.1,0.8-1.2L298.2,22.8z"/>
	<path class="st24" d="M296.2,25.8l-0.9,1l-0.3-0.2c-0.2-0.7,0.2-1,0.8-1.2C296,25.5,296.1,25.6,296.2,25.8z"/>
	<path class="st50" d="M289.1,54.7v1l0,0c-0.4,0.5-0.7,0.4-0.9-0.2c0-0.3,0-0.5,0-0.8C288.5,54.8,288.8,54.7,289.1,54.7z"/>
	<path class="st33" d="M258.1,38.7c0,0.3,0,0.7,0,1c-2.2,1.1-3-0.7-4-2l0,0c-0.7-0.5-1.6-0.8-1-2l0,0c0.5-0.6,0.9-1.6,2-1
		L258.1,38.7z"/>
	<path class="st9" d="M255.1,34.7l-2,1c-0.2-1.5-0.3-3-0.5-4.8C254.5,31.9,254.4,33.6,255.1,34.7z"/>
	<path class="st9" d="M253.1,35.7c0.3,0.7,0.7,1.3,1,2C252.1,37.9,252.3,36.9,253.1,35.7z"/>
	<path class="st9" d="M255.1,27.7c0,0.3,0,0.6,0,1C254.9,28.4,254.9,28,255.1,27.7z"/>
	<path class="st20" d="M319.2,58.7c0-0.3,0-0.7,0-1c-1.1-2.5,0.6-3.2,2.5-3.8c0.5,0,1,0.1,1.5,0.4c0.4,0.3,0.4,0.9,0.1,1.3
		c0,0-0.1,0.1-0.1,0.1v3c-0.5,0.7-1.5,0.3-2,1l0,0c-0.2,0.3-0.6,0.3-0.9,0.1c-0.1,0-0.1-0.1-0.1-0.1l0,0
		C319.8,59.5,319.4,59.1,319.2,58.7z"/>
	<path class="st50" d="M327.9,65.6c-2.6,0.1-5.3,0.6-7.7-0.8C322.8,64.2,325.5,64.5,327.9,65.6z"/>
	<path class="st8" d="M323.2,55.7c0-0.3,0-0.7-0.1-1c-1.5-2.8-3.1-5.6,0.9-7.8c0,2.9,0,5.9,0.1,8.8L323.2,55.7z"/>
	<path class="st20" d="M337.3,50.8l0.2-1.8c1.4,0.3,0.7,1.1,0.7,1.7L337.3,50.8z"/>
	<path class="st50" d="M319.1,63.7c-0.3-0.7-0.7-1.3-1-2l1-2C319.1,61.1,319.1,62.4,319.1,63.7z"/>
	<path class="st25" d="M321.2,59.7l2-1l1,1H321.2z"/>
	<path class="st25" d="M319.2,58.7l1,1h-1C319.2,59.4,319.2,59.1,319.2,58.7z"/>
	<path class="st25" d="M320.2,59.7L320.2,59.7z"/>
	<path class="st25" d="M324.1,59.7L324.1,59.7z"/>
	<path d="M341.2,51.7c0.3,0,0.7,0,1,0L341.2,51.7z"/>
	<path d="M342.1,51.7c0-0.3,0-0.7,0-1l0.8,1H342.1z"/>
	<path class="st50" d="M320.1,64.7l-1-1L320.1,64.7z"/>
	<path class="st24" d="M361.2,60.7c-2.8,0-2.7-2.2-3-4c0.5-0.6,1.3-0.6,1.9-0.1c0,0,0.1,0.1,0.1,0.1L361.2,60.7z"/>
	<path class="st48" d="M360.1,56.7h-2c0-1,0-2,0-3c-0.4-0.5-0.6-1.2-0.4-1.8c0.3-0.4,0.7-0.6,1.1-0.6c0.7,0.2,1,0.8,1.2,1.4
		C360.1,54.1,360.1,55.4,360.1,56.7z"/>
	<path class="st33" d="M360.1,52.8l-1-1c-1.3-1.7-1.4-3.3,0-5l1.6,3c0,0.7,0,1.4,0,2.1C360.6,52.2,360.4,52.5,360.1,52.8z"/>
	<path class="st39" d="M359.2,46.8c0,1.7,0,3.3,0,5h-1c-0.6-0.9-1.6-1.7-1-3c0-0.3,0-0.6,0-0.9c0.7-0.6,0.3-1.7,0.9-2.3
		c0.4-0.2,0.8-0.1,1.1,0.3L359.2,46.8z"/>
	<path class="st20" d="M357.2,48.7c0.3,1,0.7,2,1,3c0,0.7,0,1.3,0,2C357.1,52.2,356.2,50.6,357.2,48.7z"/>
	<path class="st20" d="M358.2,45.7l-1,2.1c-0.2-1.7,0.1-3.5,0.8-5.1c0.4,0.2,0.7,0.6,0.6,1.1C358.6,44.5,358.8,45.2,358.2,45.7z"/>
	<path class="st29" d="M359,33.8l-0.8,3L359,33.8z"/>
	<path class="st51" d="M358.2,43.7c-0.1-0.3-0.1-0.7-0.2-1l0.3-0.9l0.9,1.9l0,0l-0.5,0.6L358.2,43.7z"/>
	<path class="st20" d="M350.2,25.7c0.1-0.3,0.1-0.5,0.2-0.8c0.3,0,0.6-0.1,0.8-0.1c0,0.3,0,0.5,0,0.8L350.2,25.7z"/>
	<path class="st8" d="M337.3,42.6c0-0.6-0.1-1.2-0.1-1.8l0.9,2l0,0.1l-0.6,0.6L337.3,42.6z"/>
	<path class="st25" d="M292.2,56.7c0-0.3,0-0.7,0-1c0.8-0.8,1.8-0.4,2.7-0.5c0.5,0,0.9,0.2,1.3,0.5l0,0c0.3,1.3,0.7,2.7,1,4
		c-0.4,0.8-1.4,0.4-2,1h-1c0.6-1.6-0.2-3.3-1.8-3.9C292.3,56.8,292.2,56.7,292.2,56.7z"/>
	<path class="st23" d="M295.1,60.7l2-1c0.7,2.3-0.2,3.8-2.2,4.9c-0.3-0.2-0.5-0.5-0.8-0.8C294.9,62.9,295.9,62.1,295.1,60.7z"/>
	<path d="M300.2,65.9l4.3-0.5C302.6,67,301.5,66.8,300.2,65.9z"/>
	<path class="st12" d="M299.7,63.4l0.1-0.8C300.7,62.9,299.9,63.1,299.7,63.4z"/>
	<path class="st47" d="M294.2,63.8l0.8,0.8c-0.2,0-0.4-0.1-0.6-0.2S294.3,64.1,294.2,63.8z"/>
	<path class="st6" d="M264.1,45.7l1,1c0.3,0.3,0.7,0.6,0.9,0.9l0.1,0.1l0.4,0.4c0,0.2,0,0.4,0,0.6c-0.1,0.4-0.3,0.7-0.4,1.1
		c-0.1,0.4-0.2,0.7-0.2,1.1c0.1,0.7,0.5,1.4,1.1,1.8c0,0.3,0,0.7,0,1c0.4,0.3,0.6,0.7,1,1l0,0l-1,1c-0.3,0.4-0.7,0.6-1,1
		c-1.2-0.2-2.3-1-3-2c0-0.6-0.5-0.8-1-1l0,0v-5c0.6-1-0.3-2.4,0.8-3.2C263.4,45.3,263.9,45.4,264.1,45.7L264.1,45.7z"/>
	<path class="st6" d="M253.1,68.7l-4-1c-1.7-1-2-2.2-0.7-3.7l0.7-0.3c2.2,0,3.5,2.5,5.9,1.7C254.8,67,252.5,66.9,253.1,68.7z"/>
	<path class="st9" d="M262.1,53.7c0.8-0.1,1.8-0.4,1,1L262.1,53.7z"/>
	<path class="st6" d="M254.1,62.9l2,0.9L254.1,62.9z"/>
	<path class="st9" d="M266.1,56.7c0.3-0.3,0.7-0.7,1-1C266.8,56.1,266.5,56.4,266.1,56.7z"/>
	<path class="st20" d="M272.1,54.6c-0.1,0.2-0.2,0.5-0.3,0.7c-0.2,0.1-0.5,0.1-0.7,0.2c0-0.3,0.1-0.6,0.1-0.9l0,0
		c0.1-0.3,0.4-0.4,0.7-0.2C272,54.5,272,54.6,272.1,54.6z"/>
	<path class="st6" d="M245.1,60.7c0,0.3,0,0.7,0,1l-0.5,0.3c-0.4,0-0.8-0.2-0.9-0.5c0-0.4,0.1-0.7,0.4-1
		C244.5,60.4,244.9,60.5,245.1,60.7L245.1,60.7z"/>
	<path class="st23" d="M245.2,61.7h1c0.2,0.1,0.4,0.4,0.4,0.7c0,0.3-0.1,0.4-0.1,0.4c-0.4,0.2-0.8,0.3-1.2,0.1
		c-0.2-0.2-0.3-0.4-0.3-0.7C244.9,61.9,245,61.8,245.2,61.7L245.2,61.7z"/>
	<path class="st6" d="M246.1,62.7c0-0.3,0-0.6,0-1l1,1l-0.5,0.3L246.1,62.7z"/>
	<path class="st23" d="M247.1,62.7h1c0.2,0.2,0.4,0.5,0.3,0.8c0,0.3-0.1,0.4-0.2,0.4C247.4,64,247,63.7,247.1,62.7L247.1,62.7z"/>
	<path class="st6" d="M248.1,63.7v-1l1,1l-0.1,0.1c-0.2,0.2-0.6,0.3-0.8,0C248.2,63.8,248.2,63.8,248.1,63.7z"/>
	<path class="st6" d="M258.1,63.7l1-0.8L258.1,63.7z"/>
	<path class="st9" d="M262.1,61.7c0-0.3,0.1-0.6,0.1-0.8l0.9-0.1L262.1,61.7z"/>
	<path class="st33" d="M263.1,45.7c0.1,1.2,0.5,2.4-1,3l-1-2c0.3-0.2,0.4-0.4,0.3-0.7s-0.2-0.3-0.3-0.3l-3-2h3c0.3-0.4,0.7-0.4,1,0
		l0,0l1,1l0,0c0.3,0.2,0.4,0.4,0.3,0.7S263.2,45.7,263.1,45.7z"/>
	<path class="st25" d="M258.1,43.7C257.8,43.5,257.5,43.3,258.1,43.7C257.7,43.1,257.9,43.4,258.1,43.7z"/>
	<path class="st20" d="M261.1,45.7c0,0.3,0,0.7,0,1C261.1,46.4,261.1,46,261.1,45.7z"/>
	<path d="M262.1,43.7h-1v-1L262.1,43.7z"/>
	<path d="M253.1,43.7"/>
	<path class="st52" d="M402.1,64.7l-1,1l-5.1,0.9c-0.5-0.6-1.4-0.3-1.9-0.9h-1l-1.1-0.1c-0.3-0.3-0.6-0.6-0.9-0.9
		c-0.3-1.3-0.7-2.7-1-4l0,0l-1.6,0.2c-0.6-1.2,0.3-1.6,0.7-2.2l-0.1-0.5c-0.1-0.3-0.1-0.7,0-1l0.1-0.5c0-1,0-2,0-3
		c0.2,0.1,0.5,0.2,0.7,0.3l1.4,2l0.9,0.8l1,1l1,1c0.1,0.3,0.3,0.6,0.6,0.8l2.5,2.1c2.2,0.2,2.9-1.2,3.3-3c2.3-0.4,5.2-3.9,6.6,1.1
		c-0.3,0.7-0.6,1.3-1,2l-1,1l-2,1L402.1,64.7z"/>
	<path class="st53" d="M404.1,54.8l-3.7,2.1v-2.5c0.1-0.4,0.4-0.7,0.9-0.8c1-0.5,2.3-0.1,2.8,1C404.1,54.7,404.1,54.8,404.1,54.8z"
		/>
	<path class="st27" d="M401.3,53.6l-0.9,0.8c0-0.6,0-1.1-0.1-1.7c0.2-0.4,0.5-0.5,0.8-0.1C401.2,53,401.2,53.4,401.3,53.6z"/>
	<path class="st14" d="M401.2,52.7c-0.3,0-0.5,0.1-0.8,0.1C400.5,52.6,400.8,52.5,401.2,52.7C401.1,52.7,401.1,52.7,401.2,52.7z"/>
	<path class="st14" d="M403.2,33.7l1-1L403.2,33.7z"/>
	<path class="st14" d="M404.2,32.7l0.9-1.1L404.2,32.7z"/>
	<path class="st12" d="M382.4,56.2c-0.3-0.8-0.6-1.6-1-2.5l0-1.1l0.5-0.7l0.4,0.8C382.9,53.9,383.3,55,382.4,56.2z"/>
	<path class="st52" d="M388.9,51.9l0.3,1.8h-1C388.3,53.1,386.4,51.6,388.9,51.9z"/>
	<path class="st27" d="M389.2,58.8c-1.4-0.7-1.5-1.3,0-2l0,0C389.7,57.3,389.8,58.2,389.2,58.8C389.2,58.7,389.2,58.7,389.2,58.8z"
		/>
	<path class="st44" d="M383.2,43.7c0.8,1.2,1.1,2.6,0.9,4L383.2,43.7z"/>
	<path class="st47" d="M381.2,48.7c-0.2-0.3-1-0.7,0-1V48.7z"/>
	<path class="st12" d="M381.3,51.8c0-0.7-0.1-1.4-0.1-2.1l1,2C381.9,52.2,381.6,52.2,381.3,51.8z"/>
	<path class="st44" d="M386.1,50.6c0,0.3,0,0.7,0,1l-2-1H386.1z"/>
	<path class="st1" d="M381.3,51.8l0.9-0.1c0,0.3,0,0.7,0,1l-0.9-0.1C381.3,52.4,381.3,52.1,381.3,51.8z"/>
	<path class="st44" d="M383,40.6c0,0.4-0.1,0.8-0.1,1.3l-0.6-0.3C382.5,41.3,382.7,40.9,383,40.6z"/>
	<path d="M391.2,64.8l0.9,0.8L391.2,64.8z"/>
	<path class="st44" d="M385.1,38.6l-1,0.9L385.1,38.6z"/>
	<path class="st54" d="M400.2,38.6v3C398.7,40.6,399.6,39.6,400.2,38.6z"/>
	<path class="st55" d="M245.1,61.8c0.1,0.3,0.1,0.6,0.1,0.8l0.4,0.5c0,0.4,0,0.8-0.2,1.2c-0.6,0.6-1.3,1-2.2,0.4c-1.9-2-4.8-1.7-7-3
		c-0.6,0-1-0.4-1-1c0,0,0,0,0-0.1l-1.1-1.9c0.8-0.8,2.2-0.8,3,0l0,0c2.1,1.6,4.5,2.3,7,3L245.1,61.8z"/>
	<path class="st28" d="M243.1,64.7l2-1l0,0l0.1-1.1h0.9l1,0.1l1,0.9l0.9,0.1c0,1.3,0,2.6,0,4C246.7,67.6,244.2,67.6,243.1,64.7z"/>
	<path class="st46" d="M235.2,60.6l1,1.1c0.3,0.7,0.6,1.4,1,2.1c-0.5,0.6-1.4,0.6-1.9,0.1c0,0-0.1-0.1-0.1-0.1l0,0c0-0.3,0-0.7,0-1
		c-0.5-0.4-0.6-1.2-0.2-1.7c0,0,0.1-0.1,0.1-0.1L235.2,60.6z"/>
	<path class="st37" d="M235.2,63.8h2c0,0.3,0,0.7,0,1l-1.7-0.4C235.3,64.2,235.3,64,235.2,63.8z"/>
	<path class="st29" d="M301.2,3.6c-3.7-0.7-5.6,1.9-7.7,4.2c-2-2.5,0.6-3,1.7-4.2l0,0c0.5-0.6,1.4-0.3,1.9-1h0.1L301.2,3.6z"/>
	<path class="st56" d="M374.1,52.7l1-1C375.7,52.9,375.4,53.3,374.1,52.7z"/>
	<path class="st31" d="M237.1,58.7h-3c-0.3,0-0.6-0.1-0.9-0.1l0,0l-2-2c0.3-0.3,0.4-0.5,0.3-0.7s-0.3-0.4-0.4-0.4
		c0.3-1.2,0.8-2.2,2.4-2L237.1,58.7z"/>
	<path class="st38" d="M244.1,61.7c-2.8,0-5.3-0.6-7-3l6,2c0.3-0.4,0.6-0.4,1,0C244.1,61.1,244.1,61.4,244.1,61.7z"/>
	<path d="M244.1,60.8h-1c0.6-0.5,1.4-0.5,2,0H244.1z"/>
	<path class="st20" d="M386.2,44.6c0.2,0.4,0.4,0.8,0.6,1.3c0.1,0.6,0.2,1.2,0.3,1.8c-0.3,0.6-0.6,1.3-0.9,1.9
		c0-0.6-0.1-1.3-0.1-1.9l-0.9-1.1v-2.9c0.3-0.4,0.6-0.4,0.9,0C386.2,44.1,386.2,44.4,386.2,44.6z"/>
	<path class="st44" d="M386.1,43.8h-0.5H386.1z"/>
	<path class="st44" d="M385.2,46.6l0.9,1.1L385.2,46.6z"/>
	<path class="st23" d="M408.9,26.4l-0.9,1.1l-1.8,1.2c0-0.4,0-0.7,0-1.1c-0.6-1.1,0.5-1.4,1-1.9l0,0c0.3-0.3,0.7-0.7,1-1l0,0
		c0.3-0.4,0.7-0.6,1-1l0,0l1-0.1c-0.1,0.6-0.3,1.1-0.4,1.7C409.5,25.7,409.2,26.1,408.9,26.4z"/>
	<path class="st14" d="M407.2,25.7l-1,2l-1.9,0.3c0-0.4,0-0.8,0-1.2l1-1L407.2,25.7z"/>
	<path class="st23" d="M406.2,28.7c0,0.3-0.1,0.7-0.1,1C406.1,29.3,406.2,29,406.2,28.7z"/>
	<path class="st7" d="M402.2,31.7c0-0.3,0.1-0.6,0.2-0.9C402.5,31.1,402.4,31.5,402.2,31.7z"/>
	<path class="st50" d="M279.1,46.6c0,0.3,0,0.7,0,1s-0.2,0.6-0.3,0.8l-0.9,1l-1,1c-0.4,0.3-0.7,0.6-1.1,0.8l-1.8,0.4l1.2-1.9l1-1
		l1-1l0.8-0.8L279.1,46.6z"/>
	<path class="st32" d="M285.1,29.7l-0.9,2.3c0-0.7,0-1.4,0-2.1L285.1,29.7z"/>
	<path class="st57" d="M235.1,60.9l0.1,1.8l-1.1-1L235.1,60.9z"/>
	<path class="st58" d="M233.2,58.7L233.2,58.7z"/>
	<path class="st6" d="M231.1,55.6l0.1,1.1L231.1,55.6z"/>
	<path class="st12" d="M322.1,54.7c-1.1,0.9-2.5,1.5-3,3c-1.3-2.2-0.9-4.7-1-7l0,0c1-1.2,0.2-2.8,0.7-4.1c1.4-1.2,0.8-3.9,3.1-4.6
		c0.5,0,1,0.1,1.4,0.4C323.7,46.6,320.6,50.5,322.1,54.7z"/>
	<path d="M289.2,56.8h1.9c0,0.3,0,0.7,0,1l-1.8-0.1C289.3,57.4,289.3,57.1,289.2,56.8z"/>
	<path class="st23" d="M294.1,60.7"/>
	<path class="st59" d="M343.2,46.7c-0.1,0.3-0.1,0.6-0.1,0.9l-0.1-0.2c-2.5-0.2-1.1-1.7-0.9-2.8l0,0L343.2,46.7z"/>
	<path class="st8" d="M420.2,16.6c-0.1,0.3-0.2,0.5-0.4,0.8l-0.6,0.1l-0.7-0.4l0.7-0.4l1-0.7l0.8,0.4L420.2,16.6z"/>
	<path class="st0" d="M419.2,16.6c0,0.3,0,0.6,0,0.9l-2,0.2V17L419.2,16.6z"/>
	<path class="st8" d="M415.1,20.6l-0.4-0.1L415.1,20.6L415.1,20.6z"/>
	<path class="st1" d="M322.1,42.7c-1,1.3-2,2.7-3,4c-0.6-0.5-0.6-1.4-0.1-1.9c0,0,0,0,0.1-0.1l0.1-3l1-2.5l1.2-2.2l0.8-1.1l1-1.2
		c0.2-0.4,0.5-0.6,0.8-0.8c0.2-0.2,0.3-0.5,0.5-0.7l1.8-1.1l2-1l2.2,0.4c-1.2,0.7-2.1,1.8-2.7,3.1l-1,1.3c-0.1,0.4-0.4,0.7-0.8,0.9
		l0,0c-0.5,0.6-1.5,0.4-2,1c-0.3,1-0.6,2-1,3l-0.1,0.6C322.9,41.8,322.6,42.3,322.1,42.7z"/>
	<path class="st0" d="M319.1,44.7c0,0.7,0,1.3,0,2c0.1,1.4-0.3,2.8-1,4C318.2,48.6,318,46.6,319.1,44.7z"/>
	<path class="st33" d="M265.1,49.7l1-1c1,0.8,0,2.2,1,3v1c-1.8,0.5-2.4-0.8-3-2C264.5,50.4,264.8,50,265.1,49.7z"/>
	<path class="st47" d="M272.1,54.6l-0.9,0.1v-1c0.1-0.2,0.2-0.5,0.3-0.7l1.7-0.4c0,0.3,0,0.7,0,1v0.1
		C272.9,54.1,272.5,54.4,272.1,54.6L272.1,54.6z"/>
	<path class="st0" d="M267.1,51.7c-0.3-1-0.6-2-1-3l0,0c0.4-0.5,0.7-0.4,0.8,0.2L267.1,51.7z"/>
	<path class="st33" d="M268.1,54.7l-1-1L268.1,54.7z"/>
	<path class="st33" d="M267,48.9c-0.3-0.1-0.6-0.1-0.8-0.2c0-0.3,0-0.7,0-1c0.3,0,0.5,0.1,0.8,0.2C267,48.2,267,48.6,267,48.9z"/>
	<path class="st21" d="M358.2,43.7h1c0,0.7,0,1.3,0,2h-1V43.7z"/>
	<path class="st0" d="M420.2,16.6v-0.7l1.6,0.4L420.2,16.6z"/>
	<path class="st50" d="M394.2,65.7l1.9,0.9L394.2,65.7z"/>
	<path class="st1" d="M295.2,3.6c-0.8,1.3-1.8,2.5-1.7,4.2V7.8c-1,0.3-0.7,1.4-1.2,2V9.7c-0.7,0.5-0.6,1.4-1,2.1v-0.1
		c-0.4,0.3-0.7,0.7-1.2,0.9c-0.1,0.3-0.1,0.6-0.1,1c-0.2,0.4-0.4,0.7-0.7,1c0,0.3-0.1,0.6-0.1,0.9c-0.3,0.5-0.6,0.5-0.9,0.1l0.4-4.1
		c0.3-0.9,0.6-1.8,0.9-2.8l1-2l0.8-1.1l1-1l1-0.9L295.2,3.6z"/>
	<path class="st20" d="M288.1,15.6l0.9-0.1c-0.3,0.4-0.6,0.7-0.9,1.1l-1,0L288.1,15.6z"/>
	<path class="st47" d="M263.1,44.7l-1-1L263.1,44.7z"/>
	<path d="M263.1,45.7c0-0.3,0-0.7,0-1l1,1H263.1z"/>
	<path class="st60" d="M342.2,44.7c0.3,0.9,0.6,1.9,0.9,2.8l-0.9,2.2C341,48.2,341,46.2,342.2,44.7z"/>
	<path class="st14" d="M409.2,23.7c-0.3,0.3-0.7,0.7-1,1C408.5,24.4,408.9,24,409.2,23.7z"/>
	<path class="st14" d="M408.2,24.7l-1,1L408.2,24.7z"/>
	<path class="st13" d="M297.1,2.6l-1.9,1L297.1,2.6z"/>
	<path class="st47" d="M273.1,52.7c0-0.3,0.1-0.6,0.2-0.9c0.3,0,0.6-0.1,0.9-0.1L273.1,52.7z"/>
	<path class="st36" d="M288.3,55.5c0.3,0.1,0.6,0.1,0.9,0.2c0,0.3,0,0.7,0,1c-0.3,0-0.6-0.1-0.8-0.2L288.3,55.5z"/>
	<path class="st61" d="M324.1,33.8l-0.8,0.8c0.1-0.2,0.1-0.4,0.2-0.6C323.7,34,323.9,33.9,324.1,33.8z"/>
	<path d="M266.1,47.6l-0.9-0.9l0.6,0C265.9,47.1,266,47.4,266.1,47.6z"/>
	<path class="st20" d="M272.1,54.6l0.9-0.9c-0.1,0.2-0.1,0.5-0.2,0.7C272.6,54.5,272.4,54.6,272.1,54.6z"/>
	<path class="st17" d="M337.3,42.6c0.3,0.1,0.6,0.1,0.9,0.2c0.3,1,0.7,2,1,3c0.3,0.2,0.4,0.5,0.3,0.7s-0.2,0.3-0.3,0.3
		C337.3,45.8,337.3,44.2,337.3,42.6z"/>
	<path class="st62" d="M339.1,46.7c0-0.3,0-0.6,0-1l0.4,0.8L339.1,46.7z"/>
	<path class="st29" d="M322.1,54.7c-4.2-4.4,0.5-8,1-12c-0.3-0.1-0.4-0.4-0.4-0.7c0.1-0.3,0.1-0.4,0.2-0.4c0.3-0.3,0.8-0.3,1.1,0
		c0,0,0.1,0.1,0.1,0.1h1c-0.4,1.8-0.7,3.5-1.1,5.2c-1.4,2.5-0.7,5.2-0.9,7.8L322.1,54.7z"/>
	<path class="st14" d="M326.1,38.6l-0.2,1.9l-0.8-1.9L326.1,38.6z"/>
	<path class="st43" d="M324.2,37.7l2-1l-1,1H324.2z"/>
	<path class="st14" d="M324.1,41.7h-0.9c-0.3-0.2-0.4-0.4-0.3-0.6s0.2-0.3,0.3-0.3l0,0L324.1,41.7z"/>
	<path class="st61" d="M326.1,36.7l0.8-0.9c0,0.2,0,0.4-0.1,0.7C326.6,36.5,326.4,36.6,326.1,36.7z"/>
	<path class="st29" d="M290.1,12.6l1.2-0.9c0.1,0.3,0.1,0.7-0.2,0.9C290.8,12.6,290.5,12.6,290.1,12.6z"/>
	<path class="st29" d="M289.2,14.6l0.8-1.1L289.2,14.6z"/>
	<path class="st25" d="M293.1,53.7l-1-1L293.1,53.7z"/>
	<path class="st6" d="M296.1,55.7h-1c-0.7-0.3-0.7-0.7,0-1l0,0L296.1,55.7z"/>
	<path class="st19" d="M295.1,54.7c0,0.3,0,0.7,0,1h-3c-0.2-0.1-0.3-0.4-0.2-0.7c0.1-0.2,0.1-0.3,0.2-0.3H295.1z"/>
	<path class="st36" d="M292.1,54.7L292.1,54.7z"/>
	<path class="st35" d="M265.1,49.7l-1,1L265.1,49.7z"/>
	<path class="st11" d="M389.2,58.7c0-0.7,0-1.3,0-2C389.7,57.3,389.7,58.2,389.2,58.7z"/>
	<path class="st11" d="M390.2,60.7L390.2,60.7z"/>
	<path class="st55" d="M245.1,63.7L245.1,63.7z"/>
	<path class="st29" d="M292.2,9.8l1.2-2C293.1,8.4,292.6,9.1,292.2,9.8z"/>
	<path class="st29" d="M291.3,11.8l1-2.1L291.3,11.8z"/>
	<path class="st43" d="M323.2,40.7c0,0.3,0,0.6,0,1s0,0.7-0.1,1h-1L323.2,40.7z"/>
</g>
</svg>
