<?xml version="1.0" encoding="utf-8"?>
<!-- Generator: Adobe Illustrator 22.1.0, SVG Export Plug-In . SVG Version: 6.00 Build 0)  -->
<svg version="1.1" id="Ebene_1" xmlns="http://www.w3.org/2000/svg" xmlns:xlink="http://www.w3.org/1999/xlink" x="0px" y="0px"
	 viewBox="0 0 85 59.5" style="enable-background:new 0 0 85 59.5;" xml:space="preserve">
<g>
	<path d="M80.1,7.9H3.9c-1.8,0-3.3-1.5-3.3-3.3c0-1.8,1.5-3.3,3.3-3.3h76.2c1.8,0,3.3,1.5,3.3,3.3C83.4,6.4,81.9,7.9,80.1,7.9z"/>
	<path d="M80.1,33.3H3.9c-1.8,0-3.3-1.5-3.3-3.3c0-1.8,1.5-3.3,3.3-3.3h76.2c1.8,0,3.3,1.5,3.3,3.3C83.4,31.8,81.9,33.3,80.1,33.3z"
		/>
	<path d="M80.1,58.7H3.9c-1.8,0-3.3-1.5-3.3-3.3c0-1.8,1.5-3.3,3.3-3.3h76.2c1.8,0,3.3,1.5,3.3,3.3C83.4,57.2,81.9,58.7,80.1,58.7z"
		/>
</g>
</svg>
