<?xml version="1.0" encoding="utf-8"?>
<!-- Generator: Adobe Illustrator 24.2.1, SVG Export Plug-In . SVG Version: 6.00 Build 0)  -->
<svg version="1.1"
	 id="svg3201" xmlns:cc="http://creativecommons.org/ns#" xmlns:dc="http://purl.org/dc/elements/1.1/" xmlns:inkscape="http://www.inkscape.org/namespaces/inkscape" xmlns:rdf="http://www.w3.org/1999/02/22-rdf-syntax-ns#" xmlns:sodipodi="http://sodipodi.sourceforge.net/DTD/sodipodi-0.dtd" xmlns:svg="http://www.w3.org/2000/svg"
	 xmlns="http://www.w3.org/2000/svg" xmlns:xlink="http://www.w3.org/1999/xlink" x="0px" y="0px" viewBox="0 0 2439.3 495.4"
	 style="enable-background:new 0 0 2439.3 495.4;" xml:space="preserve">
<g id="layer1" transform="translate(-136.56795,-15.748484)" inkscape:groupmode="layer" inkscape:label="Ebene 1">
	<g id="g116" transform="matrix(13.038048,0,0,-13.038048,507.74488,510.37943)">
		<path id="path118" inkscape:connector-curvature="0" d="M0,0v28.8L-10.4,6h-3.5l-10.5,22.8V0h-4v37.9h4L-12,11L0,37.9h4V0H0z"/>
	</g>
	<g id="g124" transform="matrix(13.038048,0,0,-13.038048,885.66313,352.945)">
		<path id="path126" inkscape:connector-curvature="0" d="M0,0h-14.2L-7,20L0,0z M8.5-12.1L-5.4,25.8h-3.4l-13.9-37.9h4.3l3,8.6H1.2
			l3-8.6L8.5-12.1L8.5-12.1z"/>
	</g>
	<g id="g140" transform="translate(413.5326,372.4321)">
		<path id="path142" inkscape:connector-curvature="0" d="M894.8-114.5c0,60.3,1.4,133.9-32.6,169.2c-25.7,26.3-59,36.1-97.1,36.1
			H657.6v-399.5h107.5c38.1,0,71.4,9.7,97.1,36.1C896.2-237.3,894.8-174.8,894.8-114.5 M947.5-114.5c0-68.7,2.8-144.3-48.6-195.6
			c-29.8-29.8-73.5-45.8-124.9-45.8H604.8V138h169.2c51.3,0,95-16,124.9-45.8C950.3,40.9,947.5-45.8,947.5-114.5"/>
	</g>
	<g id="g148" transform="matrix(13.038048,0,0,-13.038048,1649.6158,352.945)">
		<path id="path150" inkscape:connector-curvature="0" d="M0,0h-14.2L-7,20L0,0z M8.5-12.1L-5.4,25.8h-3.4l-13.9-37.9h4.3l3,8.6H1.2
			l3-8.6L8.5-12.1L8.5-12.1z"/>
	</g>
	<g id="g156" transform="matrix(13.038048,0,0,-13.038048,2156.3461,510.37943)">
		<path id="path158" inkscape:connector-curvature="0" d="M0,0v28.8L-10.4,6h-3.5l-10.5,22.8V0h-4v37.9h4L-12,11L0,37.9h4V0H0z"/>
	</g>
	<g id="g164" transform="matrix(13.038048,0,0,-13.038048,2268.6337,510.37943)">
		<path id="path166" inkscape:connector-curvature="0" d="M0,0v37.9h23.5v-3.6H4V20.9h16.6v-3.6H4V3.6h19.5V0H0z"/>
	</g>
</g>
</svg>
