<?xml version="1.0" encoding="utf-8"?>
<!-- Generator: Adobe Illustrator 24.2.1, SVG Export Plug-In . SVG Version: 6.00 Build 0)  -->
<svg version="1.1" id="svg8300" xmlns:svg="http://www.w3.org/2000/svg"
	 xmlns="http://www.w3.org/2000/svg" xmlns:xlink="http://www.w3.org/1999/xlink" x="0px" y="0px" viewBox="0 0 885.8 128.3"
	 style="enable-background:new 0 0 885.8 128.3;" xml:space="preserve">
<style type="text/css">
	.st0{fill-rule:evenodd;clip-rule:evenodd;}
</style>
<path id="_105394392" class="st0" d="M60.1,1.7c4.5,0.6,8.4,5.2,8.4,8.4v22.2c0,3.8,4.7,5.1,6.7,5.9c-6,3.1-8.6,7-8.6,11.3v29.3
	c0,5.2,2.2,7,5.1,7.5c3.6,0.6,5.1-5.8,6.2-4.8c1.1,1-2.8,5.2-5.9,8.7c-3.4,3.7-5.6,9.2-5.7,9.1c0,0-5.4-3.5-8-6.8
	c-2.4-2.9-4.4-7-4.4-11.9V55.1c0-9.7,11-14.8,14.1-15.9c-2.5-0.2-12.7-1.7-12.7-9.7V12.2c0-2.3-0.6-5.7-3-5.7
	c-4.6-0.1-8.8,6.4-8.8,13.5v49.7c0,0.2-1,5.5-11.6,15.6c-5.5,5.2-8.7,14.6-9.6,15.6c-0.7-1.6-4.4-13.2-13.1-12.2
	c-8.8,1-8.1,10.9-8.9,11c-0.2,0-0.3-0.5-0.3-1.3v-0.1v-0.1c0-1.3,0.1-3.3,0-5.4l0-0.1v-0.6C0.3,87.2,6,80,12.3,78.5
	c9.9-2.4,16.2,7,17,7c0,0,1.5-1.2,1.5-2.2V10c0-3.7-2.4-6.2-5.3-6.2c-6.5-0.1-8.8,3.2-7.8,8.5c1.1,6.3,11.3,17.6,9.8,27.2
	c-0.8,5-5,10-11.5,9.8C8,49.1,3.7,36.1,5,35.6c0.9-0.4,1.3,6.6,5.9,6.6c2.1,0,3.3-2,4-3.9C16,35,7.7,28.1,7.5,20.5
	C7.3,10.7,12.4,4.2,21,2.3c7.8-1.7,17.2,3,21.7,11.6C42.7,13.9,48.9,0.3,60.1,1.7L60.1,1.7z M155.4,30.4c3.5,7,7.3,10.6,9.8,12.2
	c-3.1,1.3-4.2,3.5-4.2,5.8l0,34.6c0,2,1.5,3.8,2.5,3.6c4.8-1,5-6.4,6.4-4.9c0.5,0.6-2,4.3-3.3,5.3c-2.7,2.1-8.9,8.2-11,12.3
	c-3.2-5.1-6.6-8.6-6.6-10.4c0-0.2,0.1-1.9,0-6.8c0,0-16.6,8.7-18.1,17.1c-1.5-6.2-4.9-10.9-10-13.2c1.5-1.4,4.5-3.5,4.5-6.6V48.7
	c0-3.1-1.4-4.6-3.8-5.2c-2.4-0.5-4.4,3.9-5.6,2.6c-0.6-0.6,5.7-6,9.8-10.7c2.5-2.9,4.1-5,4.1-5c4.6,1.5,7.8,5.8,7.8,9.3v39.1
	c0,2.5,0.5,6.5,4.1,6.1c1.1-0.1,2.7-1.2,7.3-4.2l0-30.1c0-5-0.6-5.6-4.1-8.2C148.9,40.4,152,37.3,155.4,30.4z M276.6,2.2
	c12.9,0.3,24.6,7.4,25.5,20.8c0.5,7.4-3.3,13.3-7.2,17.1c-4.8,4.7-8.2,5.8-14.8,7.5c10.5,0.5,23.2,10.4,21.7,24.8
	c-2.3,20.9-24.8,34.4-39,26.4c-7.7-4.4-7.2-15.8-15.7-16.5c-8.2-0.6-13,5.7-11.7,12.1c1.3,6.1,5.4,10,13.6,7c0,0,1.1-0.7,1.4-0.1
	c0.3,0.6-0.8,1.3-0.8,1.3c-8.6,3.1-13.1-0.5-15.1-5.9c-3.5-9.7,6.1-19.7,19-21.4c13.1-1.7,16.7,14.7,20.1,19.4
	c1.8,2.6,4.2,3.3,5.9,3.2c5-0.4,6.7-4.7,6.7-7.4V58.2c0-4.8-3.8-9.5-8.4-9.5c-8.6,0.1-10.6,8-11.7,7c-1-0.9,3.4-8,11.5-8.1
	c-7,0-12.7-6.7-12.7-11.4c0-5.3,3.2-7.1,6.6-7.6c4.2-0.6,8,2.3,8.1,6.6c0.1,5.9-5.8,6.5-7.8,6.5c0,3.6,4.7,5.1,7.3,4.6
	c2.5-0.5,7.2-2.5,7.2-8.3V15.7c0-5.2-3.5-11.4-12.8-11.5c-9.9-0.1-16.9,6.3-17.2,14.4c0,0.3,0.1,3.3-0.7,3.2
	c-0.8-0.1-0.8-3.1-0.8-3.2C254.7,8.3,263,1.9,276.6,2.2L276.6,2.2z M342.1,30.4c3.5,7,7.3,10.6,9.8,12.2c-3.1,1.3-4.2,3.5-4.2,5.8
	l0,34.6c0,2,1.5,3.8,2.5,3.6c4.8-1,5-6.4,6.4-4.9c0.5,0.6-2,4.3-3.3,5.3c-2.7,2.1-8.9,8.2-11,12.3c-3.2-5.1-6.6-8.6-6.6-10.3
	c0-0.2,0.1-1.9,0-6.8c0,0-16.6,8.7-18.1,17.1c-1.5-6.1-4.9-10.9-10-13.2c1.5-1.4,4.5-3.5,4.5-6.6V48.6c0-3.1-1.3-4.6-3.8-5.2
	c-2.3-0.5-4.4,3.9-5.6,2.6c-0.6-0.6,5.7-6,9.8-10.7c2.5-2.9,4.1-5,4.1-5c4.6,1.5,7.8,5.8,7.8,9.3v39.1c0,2.5,0.5,6.5,4.1,6.1
	c1.1-0.1,2.8-1.1,7.3-4l0-29.8c0-5-0.6-5.9-4.2-8.5C335.6,40.3,338.7,37.3,342.1,30.4z M321.7,3.8c3.2,0,6.1,2.7,6,6
	c-0.2,5.3-6,14.9-6,14.9c0-0.1-5.9-9.9-5.9-15C315.7,6.4,319,3.8,321.7,3.8z M341.9,3.7c3.2,0,6.1,2.7,6,6c-0.2,5.3-6,14.9-6,14.9
	c0-0.1-5.9-9.9-5.9-15C335.9,6.3,339.2,3.7,341.9,3.7z M370.1,30.3c6.5,1.9,8.2,8.3,8,12.7c2.1-1.7,6.5-6,9.3-8.9
	c2.2-2.2,3.1-3.7,3.2-3.7l8.1,12.1l-9.4,8.3c-1.7-1.6-6.5-8.5-7.4-9.2c0,0-3.9,2.2-3.9,3.5l0,37.6c-0.1,2.4,0.3,3.8,1.6,3.8
	c3.1,0,4.1-5.5,5.2-4.3c0.3,0.3,0,1.9-1.8,3.9c-2.8,3.2-8.2,7.2-11.4,13.1c-1.9-4.7-5.9-11.2-10.1-13.1c1.8-1.1,3.8-3.2,3.8-6.5
	l0-33.9c0-2-2-3.6-3.4-3.6c-1.6,0-3.7,3.7-4.6,2.4c-0.5-0.7,3.6-3.4,7.4-7.7C369.1,32,370,30.3,370.1,30.3z M428.9,43L422,30.6
	c-5.3,4.1-2.2,1.9-12.5,9.7c-5.4,4.1-10.4,6.7-10.4,11.7l0,33.3c0,7.9,14,14.4,14,14.4c1.4-7.7,4.4-12,11.7-12.3
	c5.7-0.2,9.5,4.6,10.6,12.2c2.1-7.9,6.5-10.8,9.5-13.3c-1.1-1-3.5-1.8-3.5-7V47.6c0-1.6,6.9-7.4,7.5-7.4c0.4,0,3,2.2,2.9,5.5l0,50.9
	c-0.9,4.2-2.8,5.8-2.4,6.3c0.5,0.5,1.8-2.1,7.4-8c4.8-5.1,7.2-6.3,7.2-8V41.4c0-4.2-4.8-10.1-6.6-11l-16,14.5V22.2
	c0-5.5,4.1-16.8,8.3-20.1c-7.9-0.2-13.4,12.2-15.4,16.7c-3.1-5.1-8-7.8-12.3-7.4c4.9,3.2,7.7,7,7.7,13.5v53.5c0,3.5-1.5,8.5-9.9,8.6
	c-5,0.1-8.2-3.7-8.2-8.2V42.9c0-0.7,0.4-3.4,2.2-3.7c1.8-0.3,6,9.1,7,10C424.9,46.2,425.4,45.5,428.9,43z M521.6,30.5
	c5.3,2,8.1,8.1,7.9,12.6c2.1-1.7,6.5-6,9.4-8.9c2.2-2.3,2.7-3.5,2.8-3.5l9,13.2l-10.6,8.5c-1.6-2-6.4-9.4-7.3-10
	c0,0-3.3,1.9-3.3,3.2l0,37.2c-0.1,2.4,1.4,3.7,2.7,3.6c4.9-0.3,5.3-5.6,6.8-4.6c0.6,0.4-1,3.1-3,4.8c-3.2,2.8-9.7,7-12.9,12.8
	c-1.9-4.7-5.9-11.2-10.2-13.1c1.8-1.1,4.6-3.1,4.6-6.3V46.7c0-2-2.4-4.5-4.7-4.1c-1.6,0.2-4.5,4-5.1,2.6c-0.5-1.1,4.6-4,8.4-8.3
	C520.5,32,521.5,30.5,521.6,30.5L521.6,30.5z M613.6,0c12.9,0.3,24.6,7.4,25.5,20.8c0.5,7.4-3.4,13.3-7.2,17.1
	c-4.8,4.7-8.2,5.8-14.8,7.6c10.5,0.5,23.2,10.4,21.7,24.7c-2.3,20.9-24.8,34.4-39,26.4c-7.7-4.4-7.2-15.8-15.7-16.5
	c-8.2-0.6-13,5.7-11.7,12.1c1.3,6.1,5.4,10,13.6,7c0,0,1-0.7,1.4-0.1c0.3,0.6-0.8,1.3-0.8,1.3c-8.7,3.1-13.1-0.5-15.1-5.9
	c-3.5-9.7,6.1-19.7,19-21.3c13.1-1.7,16.7,14.7,20.1,19.4c1.8,2.6,4.2,3.3,5.9,3.2c5-0.4,6.7-4.7,6.7-7.4V55.9
	c0-4.8-3.8-9.5-8.4-9.5c-8.6,0.1-10.6,8-11.7,7c-1-0.9,3.4-8,11.5-8.1c-7,0-12.7-6.7-12.7-11.4c0-5.3,3.2-7.1,6.6-7.6
	c4.2-0.7,8,2.3,8.1,6.6c0.1,5.9-5.8,6.5-7.8,6.5c0,3.6,4.7,5.1,7.3,4.6c2.5-0.5,7.1-2.4,7.1-8.3V13.5c0-5.2-3.5-11.4-12.8-11.5
	c-9.9-0.1-16.9,6.3-17.2,14.4c0,0.3,0.1,3.3-0.7,3.2c-0.8-0.1-0.8-3.1-0.8-3.2C591.8,6,600.1-0.3,613.6,0z M697.3,49.3v31.9
	c-0.1,2.4,1.5,4,2.8,4.1c3.1,0,3.8-5.1,4.9-3.9c0.2,0.3,0.1,1.9-1.8,4c-2.8,3.2-9.9,7.2-13,13.5c-1.9-4.7-4.6-10.6-8.8-12.5
	c1.8-1.1,4.3-3.3,4.3-6.5l0-33.9c0-2-1.2-3.6-2.6-3.6c-1.6,0-3.2,3.5-4.2,2.8c-1.3-1.1,5.9-6.2,10.2-10.4c1.6-1.6,1.6-1.6,4-4.5
	c1,2.5,4.8,9.5,9.2,12C698.6,44.3,697.3,46.2,697.3,49.3L697.3,49.3z M693.1,3.1c3.2,0,6.1,2.7,6,6.1c-0.2,5.3-6,14.9-6,14.9
	c0-0.1-5.9-9.9-5.9-15C687.1,5.8,690.4,3.1,693.1,3.1z M726.5,14v24.5c0,1.8,5.1,0.2,5.1,1.1v1.1c0,1.1-5.1-0.2-5.2,1v39.3
	c0,0.1-0.6,4.5,2.7,4.6c3,0.1,4.5-5.7,5.5-5c1.1,0.7-0.9,4.1-7.2,9.6c-5.8,5.1-5.4,4.5-8,8.6c-1.8-3.6-5.6-10.1-9.9-12.8
	c1.3-0.7,4.7-3.1,4.7-7.2c0,0,0-30,0-36.9c0-2-4.8,0.1-4.5-1.3c0.2-0.8-0.1-0.8,0-0.8C716.7,36.6,724,22.3,726.5,14z M800.6,30.3
	c3.7,2,7.7,5.7,8.7,15.2c6.5-6.4,15.2-15.3,15.2-15.2c2.1,5,7,10,9.2,11.6c0,0-3,3.7-3,6.4v34.8c0,1.9,1.4,3.7,2.8,3.7
	c2.6-0.1,3.6-3.7,4-3.5c0.7,0.5,0.3,2-1.4,3.8c-3.2,3.5-8.7,8.1-10.4,12.1c-2.4-1.6-6.9-6.6-6.9-10.9l0-40.6c0-3.2-1.2-5.1-3.8-4.8
	c-1.8,0.2-6,4-6,6.6l0,30.4c0,4.2,2.2,5.7,3.5,6.3c-5.6,4.4-9.5,10.7-10.2,13.2c-2.2-6.7-7.3-11.6-9.2-13.4c0,0,3.7-3.4,3.7-7.3
	V49.4c0-2.9-0.6-6.6-3.5-6.6c-3.3,0-5,4.8-5.9,3.4c-0.7-1,7.5-8.6,10.4-11.9C799.1,32.9,798.8,33,800.6,30.3z M767.8,81.1l0-30.4
	c0-5-0.6-5.6-4.1-8.2c4.2-2.2,7.3-5.2,10.7-12.1c3.5,7,7.3,10.6,9.8,12.2c-3.1,1.3-4.2,3.5-4.2,5.8l0,34.6c0,2,1.5,3.8,2.5,3.6
	c4.8-1,5-6.4,6.4-4.9c0.5,0.6-2,4.3-3.3,5.3c-2.7,2.1-8.9,8.2-11,12.3c-3.2-5.1-6.6-8.6-6.6-10.4c0-0.2,0.1-1.3,0-6.2
	c0,0-15.8,8.1-17.2,16.5c-1.5-6.1-4.9-10.9-10-13.2c1.5-1.4,4.5-3.5,4.5-6.6V48.7c0-3.1-1.2-5.2-3.6-5.8c-2.4-0.5-4.5,4.5-5.8,3.2
	c-0.6-0.6,5.7-6,9.8-10.7c2.5-2.9,4.1-5,4.1-5c4.6,1.5,7.8,5.8,7.8,9.3v39.1c0,2.5,0.5,6.5,4.1,6.1
	C762.5,84.8,763.3,84.1,767.8,81.1z M188,39.9c0.1,1.9,0,23,0,23c1.9-1.1,7.9-6,9.3-7c0,0-3-5.6-5.6-10.4
	C189.7,41.7,187.9,38.4,188,39.9L188,39.9z M198.2,30.3c0.6,1.2,4.2,7.8,6.9,12.9c1.9,3.5,3.4,6.2,3.1,6.3L188,64.8l0,16
	c0,3.6,2.2,6.3,5.1,6.6c5.2,0.5,5.7-6.7,7.2-5.4c1.1,1-2.9,6.6-6.5,9.5c-3.4,2.8-7.2,7.9-7.2,7.9s-11.2-5.6-11.2-14.2V54.5
	c0-4.5,0.7-8.2,6.6-12.3C188.9,37.7,198.2,30.3,198.2,30.3L198.2,30.3z M94.2,40c0.1,1.9,0,23,0,23c1.9-1.1,7.9-6,9.3-7
	c0,0-3-5.6-5.6-10.4C95.9,41.8,94.1,38.6,94.2,40L94.2,40z M104.4,30.5c0.6,1.2,4.2,7.8,6.9,12.9c1.9,3.5,3.5,6.2,3.1,6.3L94.2,64.9
	l0,16c0,3.6,1.4,5.7,4.3,6c4.8,0.5,5.8-6.5,7.3-5.2c1.1,1-3.3,6.1-6.9,9.1c-3.4,2.8-6.6,8.5-6.6,8.5s-10.7-5.4-10.7-14V54.6
	c0-4.5,0.6-8.3,6.6-12.2C95.1,38,104.4,30.5,104.4,30.5L104.4,30.5z M485.7,40.2c0.1,1.9,0,23,0,23c1.9-1.1,7.9-6,9.3-7
	c0,0-3-5.6-5.6-10.4C487.3,42,485.6,38.7,485.7,40.2z M495.9,30.6c0.6,1.2,4.2,7.8,6.9,12.9c1.9,3.5,3.5,6.2,3.1,6.3l-20.2,15.2
	l0.1,16c0,3.6,2.2,6.3,5.1,6.6c5.2,0.5,5.7-6.7,7.2-5.4c1.1,1-2.9,6.6-6.5,9.5c-3.4,2.8-7.2,7.9-7.2,7.9s-11.2-5.6-11.2-14.2V54.8
	c0-4.5,0.7-8.2,6.6-12.3C486.5,38,495.9,30.6,495.9,30.6z M858.2,39.9c-4.6,1.4-4.7,4.6-4.7,4.6v37c0,0.3,2.2,5.8,5.4,6.4
	c2,0.4,5.9-4.4,5.9-4.7V44.8C861.9,42.3,861,41.8,858.2,39.9z M866.7,30.3c5.6,7.3,13.8,12.4,13.8,12.4c-1.3,2.1-3.4,2.5-3.4,9v31.8
	c3.1,4.1,8.6,11.6,8.7,19.9v0.6c0,0.6,0,1.1-0.1,1.7c-1.6,14.2-15.4,23.2-28.8,22.6c-13.2-0.6-18.3-10.9-17-18.1
	c0.9-5,5.2-6.7,8.3-6c2.6,0.6,5,3.4,4.3,6.7c-0.7,3.5-5.1,5.5-8.2,3.8c-0.9,0.2-1.7,2.7-1.1,4.1c2.8,6.6,9.6,7.3,14.7,7.2
	c7.2-0.2,15.2-6.4,16.4-15.3c1.8-12.1-9-14.8-9.4-25.6l-13.9,14.2c-2.4-0.8-9.5-7.8-9.7-12.6c-0.1-1.8,0-15.2,0-32
	c0-5.1,2.4-7.2,10.4-12.8C861,35.4,862.1,35.3,866.7,30.3z M657.4,39.9c0.1,1.9,0,23,0,23c1.9-1.1,7.9-6,9.3-7c0,0-3-5.6-5.6-10.4
	C659.1,41.7,657.4,38.4,657.4,39.9z M667.6,30.3c0.6,1.2,4.2,7.8,6.9,12.9c1.9,3.5,3.5,6.2,3.1,6.4l-20.2,15.2l0,16
	c0,3.6,2.2,6.3,5.1,6.6c5.2,0.5,5.7-6.7,7.2-5.4c1.1,1-2.9,6.6-6.5,9.5c-3.4,2.8-7.2,7.9-7.2,7.9s-11.2-5.7-11.2-14.2V54.5
	c0-4.5,0.7-8.2,6.7-12.3C658.3,37.7,667.6,30.3,667.6,30.3z"/>
</svg>
