<?xml version="1.0" encoding="utf-8"?>
<!-- Generator: Adobe Illustrator 24.0.2, SVG Export Plug-In . SVG Version: 6.00 Build 0)  -->
<svg version="1.1" id="Ebene_1" xmlns="http://www.w3.org/2000/svg" xmlns:xlink="http://www.w3.org/1999/xlink" x="0px" y="0px"
	 viewBox="0 0 143.5 41.5" style="enable-background:new 0 0 143.5 41.5;" xml:space="preserve">
<style type="text/css">
	.st0{clip-path:url(#SVGID_2_);fill:#FFFFFF;}
	.st1{clip-path:url(#SVGID_4_);fill:#FFFFFF;}
	.st2{clip-path:url(#SVGID_6_);}
	.st3{clip-path:url(#SVGID_8_);}
	.st4{clip-path:url(#SVGID_10_);}
	.st5{clip-path:url(#SVGID_12_);}
	.st6{clip-path:url(#SVGID_14_);}
	.st7{clip-path:url(#SVGID_16_);}
	.st8{clip-path:url(#SVGID_18_);}
	.st9{clip-path:url(#SVGID_20_);}
	.st10{clip-path:url(#SVGID_22_);}
	.st11{clip-path:url(#SVGID_24_);}
	.st12{clip-path:url(#SVGID_26_);}
	.st13{clip-path:url(#SVGID_28_);}
	.st14{clip-path:url(#SVGID_30_);fill:#FFFFFF;}
	.st15{clip-path:url(#SVGID_32_);fill:#FFFFFF;}
	.st16{clip-path:url(#SVGID_34_);fill:#FFFFFF;}
	.st17{clip-path:url(#SVGID_36_);fill:#FFFFFF;}
	.st18{clip-path:url(#SVGID_38_);fill:#FFFFFF;}
	.st19{clip-path:url(#SVGID_40_);fill:#FFFFFF;}
	.st20{clip-path:url(#SVGID_42_);fill:#FFFFFF;}
	.st21{clip-path:url(#SVGID_44_);fill:#FFFFFF;}
	.st22{clip-path:url(#SVGID_46_);fill:#FFFFFF;}
	.st23{clip-path:url(#SVGID_48_);fill:#B78F5E;}
	.st24{clip-path:url(#SVGID_50_);fill:#FFFFFF;}
	.st25{clip-path:url(#SVGID_52_);fill:#FFFFFF;}
	.st26{clip-path:url(#SVGID_54_);fill:#FFFFFF;}
	.st27{clip-path:url(#SVGID_56_);fill:#FFFFFF;}
</style>
<g>
	<defs>
		<polygon id="SVGID_1_" points="0,0.2 0,41.3 118.7,41.3 120.5,22.3 143.5,22 143.5,0.2 		"/>
	</defs>
	<clipPath id="SVGID_2_">
		<use xlink:href="#SVGID_1_"  style="overflow:visible;"/>
	</clipPath>
	<path class="st0" d="M54.3,12.6c-0.4-0.7-0.8-1.2-1.4-1.7s-1.2-0.8-2-1.1c-0.7-0.3-1.5-0.6-2.3-0.8s-1.5-0.5-2.3-0.7
		c-0.7-0.2-1.4-0.5-2-0.8s-1-0.7-1.4-1.1s-0.5-1-0.5-1.7c0-0.4,0.1-0.9,0.3-1.3s0.5-0.8,0.9-1.2c0.4-0.3,0.9-0.6,1.5-0.8
		s1.3-0.3,2-0.3c0.9,0,1.7,0.2,2.3,0.5s1.1,0.8,1.5,1.3s0.7,1.1,1,1.8s0.5,1.3,0.7,2H53V1h-0.5c-0.1,0.2-0.2,0.4-0.3,0.5
		s-0.3,0.1-0.5,0.1s-0.5-0.1-0.8-0.2s-0.6-0.2-1-0.4c-0.4-0.1-0.8-0.2-1.3-0.4c-0.5-0.1-1-0.2-1.7-0.2c-1,0-1.9,0.2-2.8,0.5
		s-1.6,0.8-2.2,1.3c-0.6,0.5-1.1,1.2-1.4,1.9C40.2,4.8,40,5.5,40,6.3c0,1,0.2,1.9,0.5,2.6s0.8,1.3,1.3,1.7c0.6,0.5,1.2,0.9,1.9,1.2
		s1.4,0.6,2.2,0.8c0.7,0.2,1.5,0.4,2.2,0.6c0.7,0.2,1.3,0.5,1.9,0.8c0.6,0.3,1,0.7,1.3,1.2s0.5,1,0.5,1.8c0,0.4-0.1,0.8-0.2,1.3
		c-0.2,0.5-0.4,1-0.8,1.5c-0.4,0.5-0.9,0.8-1.5,1.2c-0.7,0.3-1.5,0.5-2.5,0.5c-0.1,0-0.2,0-0.3,0v0.4l0,0c1.2,0,2.3-0.2,3.2-0.6
		c1-0.4,1.8-0.9,2.5-1.5s1.2-1.4,1.6-2.2c0.4-0.8,0.6-1.7,0.6-2.7C54.8,14,54.6,13.2,54.3,12.6"/>
</g>
<g>
	<defs>
		<polygon id="SVGID_3_" points="0,0.2 0,41.3 118.7,41.3 120.5,22.3 143.5,22 143.5,0.2 		"/>
	</defs>
	<clipPath id="SVGID_4_">
		<use xlink:href="#SVGID_3_"  style="overflow:visible;"/>
	</clipPath>
	<path class="st1" d="M113.7,31.9c-0.4-0.7-0.8-1.2-1.4-1.7s-1.2-0.8-2-1.1c-0.7-0.3-1.5-0.6-2.3-0.8c-0.8-0.2-1.5-0.5-2.3-0.7
		c-0.7-0.2-1.4-0.5-2-0.8s-1-0.7-1.4-1.1s-0.5-1-0.5-1.7c0-0.4,0.1-0.9,0.3-1.3c0.2-0.4,0.5-0.8,0.9-1.2c0.4-0.3,0.9-0.6,1.5-0.8
		c0.6-0.2,1.3-0.3,2-0.3c0.2,0,0.3,0,0.5,0V20c-0.2,0-0.3,0-0.5,0c-1,0-1.9,0.2-2.8,0.5s-1.6,0.8-2.2,1.3s-1.1,1.2-1.4,1.9
		c-0.3,0.7-0.5,1.5-0.5,2.2c0,1,0.2,1.9,0.5,2.6s0.8,1.3,1.3,1.7c0.6,0.5,1.2,0.9,1.9,1.2c0.7,0.3,1.4,0.6,2.2,0.8
		c0.7,0.2,1.5,0.4,2.2,0.6c0.7,0.2,1.3,0.5,1.9,0.8s1,0.7,1.3,1.2s0.5,1,0.5,1.8c0,0.4-0.1,0.8-0.2,1.3c-0.2,0.5-0.4,1-0.8,1.5
		s-0.9,0.8-1.5,1.2c-0.7,0.3-1.5,0.5-2.5,0.5c-0.3,0-0.6,0-0.9,0s-0.7-0.1-1.1-0.2c-0.4-0.1-0.8-0.3-1.2-0.5s-0.8-0.6-1.3-1
		c-0.4-0.4-0.7-0.8-1-1.3s-0.5-0.9-0.7-1.3c-0.2-0.4-0.3-0.8-0.4-1.2s-0.2-0.7-0.2-0.9h-0.4v6.4h0.5c0.1-0.3,0.2-0.4,0.3-0.5
		c0.1-0.1,0.3-0.1,0.6-0.1c0.2,0,0.5,0.1,0.9,0.2c0.4,0.1,0.8,0.2,1.4,0.4c0.5,0.1,1.1,0.2,1.6,0.4c0.6,0.1,1.2,0.2,1.8,0.2
		c1.2,0,2.3-0.2,3.2-0.6c1-0.4,1.8-0.9,2.5-1.5s1.2-1.4,1.6-2.2s0.6-1.7,0.6-2.7C114.2,33.3,114,32.5,113.7,31.9"/>
</g>
<g>
	<defs>
		<polygon id="SVGID_5_" points="0,0.2 0,41.3 118.7,41.3 120.5,22.3 143.5,22 143.5,0.2 		"/>
	</defs>
	<clipPath id="SVGID_6_">
		<use xlink:href="#SVGID_5_"  style="overflow:visible;"/>
	</clipPath>
	<path class="st2" d="M123.4,24.4h0.6l2.1,5.3h-0.5l-0.6-1.6h-2.4l-0.6,1.6h-0.5L123.4,24.4z M122.6,27.6h2.1l-1-2.7L122.6,27.6z"/>
</g>
<g>
	<defs>
		<polygon id="SVGID_7_" points="0,0.2 0,41.3 118.7,41.3 120.5,22.3 143.5,22 143.5,0.2 		"/>
	</defs>
	<clipPath id="SVGID_8_">
		<use xlink:href="#SVGID_7_"  style="overflow:visible;"/>
	</clipPath>
	<path class="st3" d="M126.7,24.4h0.5v3.3c0,1.2,0.6,1.7,1.5,1.7c1,0,1.6-0.5,1.6-1.7v-3.3h0.5v3.4c0,1.1-0.6,2-2.1,2s-2-0.9-2-2
		V24.4z"/>
</g>
<g>
	<defs>
		<polygon id="SVGID_9_" points="0,0.2 0,41.3 118.7,41.3 120.5,22.3 143.5,22 143.5,0.2 		"/>
	</defs>
	<clipPath id="SVGID_10_">
		<use xlink:href="#SVGID_9_"  style="overflow:visible;"/>
	</clipPath>
	<path class="st4" d="M132.2,28c0,1.1,0.8,1.4,1.7,1.4c0.6,0,1.4-0.3,1.4-1.1c0-0.6-0.6-0.8-1.1-1L133,27c-0.6-0.2-1.2-0.5-1.2-1.3
		c0-0.5,0.3-1.5,1.8-1.5c1,0,2,0.6,2,1.6h-0.5c0-0.8-0.7-1.2-1.4-1.2s-1.3,0.3-1.3,1.1c0,0.5,0.4,0.7,0.8,0.8l1.3,0.3
		c0.7,0.2,1.4,0.5,1.4,1.4c0,0.4-0.1,1.5-2,1.5c-1.3,0-2.2-0.6-2.1-1.8h0.4V28z"/>
</g>
<g>
	<defs>
		<polygon id="SVGID_11_" points="0,0.2 0,41.3 118.7,41.3 120.5,22.3 143.5,22 143.5,0.2 		"/>
	</defs>
	<clipPath id="SVGID_12_">
		<use xlink:href="#SVGID_11_"  style="overflow:visible;"/>
	</clipPath>
	<polygon class="st5" points="136.5,24.4 140.3,24.4 140.3,24.9 136.8,29.3 140.4,29.3 140.4,29.7 136.2,29.7 136.2,29.3 
		139.7,24.8 136.5,24.8 	"/>
</g>
<g>
	<defs>
		<polygon id="SVGID_13_" points="0,0.2 0,41.3 118.7,41.3 120.5,22.3 143.5,22 143.5,0.2 		"/>
	</defs>
	<clipPath id="SVGID_14_">
		<use xlink:href="#SVGID_13_"  style="overflow:visible;"/>
	</clipPath>
	<polygon class="st6" points="141.1,24.4 144.8,24.4 144.8,24.8 141.6,24.8 141.6,26.8 144.6,26.8 144.6,27.2 141.6,27.2 
		141.6,29.3 144.8,29.3 144.8,29.7 141.1,29.7 	"/>
</g>
<g>
	<defs>
		<polygon id="SVGID_15_" points="0,0.2 0,41.3 118.7,41.3 120.5,22.3 143.5,22 143.5,0.2 		"/>
	</defs>
	<clipPath id="SVGID_16_">
		<use xlink:href="#SVGID_15_"  style="overflow:visible;"/>
	</clipPath>
	<rect x="145.7" y="24.4" class="st7" width="0.5" height="5.3"/>
</g>
<g>
	<defs>
		<polygon id="SVGID_17_" points="0,0.2 0,41.3 118.7,41.3 120.5,22.3 143.5,22 143.5,0.2 		"/>
	</defs>
	<clipPath id="SVGID_18_">
		<use xlink:href="#SVGID_17_"  style="overflow:visible;"/>
	</clipPath>
	<polygon class="st8" points="146.9,24.4 151.1,24.4 151.1,24.8 149.2,24.8 149.2,29.7 148.7,29.7 148.7,24.8 146.9,24.8 	"/>
</g>
<g>
	<defs>
		<polygon id="SVGID_19_" points="0,0.2 0,41.3 118.7,41.3 120.5,22.3 143.5,22 143.5,0.2 		"/>
	</defs>
	<clipPath id="SVGID_20_">
		<use xlink:href="#SVGID_19_"  style="overflow:visible;"/>
	</clipPath>
	<path class="st9" d="M157.8,26c-0.2-0.8-0.9-1.3-1.6-1.3c-1.4,0-2,1.2-2,2.3c0,1.2,0.6,2.3,2,2.3c1,0,1.6-0.8,1.7-1.7h0.5
		c-0.1,1.3-1,2.1-2.2,2.1c-1.7,0-2.5-1.3-2.5-2.8c0-1.4,0.8-2.8,2.5-2.8c1,0,2,0.6,2.1,1.7h-0.5V26z"/>
</g>
<g>
	<defs>
		<polygon id="SVGID_21_" points="0,0.2 0,41.3 118.7,41.3 120.5,22.3 143.5,22 143.5,0.2 		"/>
	</defs>
	<clipPath id="SVGID_22_">
		<use xlink:href="#SVGID_21_"  style="overflow:visible;"/>
	</clipPath>
	<path class="st10" d="M161.4,24.3c1.7,0,2.5,1.3,2.5,2.8c0,1.4-0.8,2.8-2.5,2.8s-2.5-1.3-2.5-2.8C158.9,25.6,159.8,24.3,161.4,24.3
		 M161.4,29.4c1.4,0,2-1.2,2-2.3c0-1.2-0.6-2.3-2-2.3s-2,1.2-2,2.3C159.4,28.2,160,29.4,161.4,29.4"/>
</g>
<g>
	<defs>
		<polygon id="SVGID_23_" points="0,0.2 0,41.3 118.7,41.3 120.5,22.3 143.5,22 143.5,0.2 		"/>
	</defs>
	<clipPath id="SVGID_24_">
		<use xlink:href="#SVGID_23_"  style="overflow:visible;"/>
	</clipPath>
	<path class="st11" d="M166.3,24.4h0.6l2.1,5.3h-0.5l-0.6-1.6h-2.4l-0.6,1.6h-0.5L166.3,24.4z M165.5,27.6h2.1l-1-2.7L165.5,27.6z"
		/>
</g>
<g>
	<defs>
		<polygon id="SVGID_25_" points="0,0.2 0,41.3 118.7,41.3 120.5,22.3 143.5,22 143.5,0.2 		"/>
	</defs>
	<clipPath id="SVGID_26_">
		<use xlink:href="#SVGID_25_"  style="overflow:visible;"/>
	</clipPath>
	<path class="st12" d="M173.4,26c-0.2-0.8-0.9-1.3-1.6-1.3c-1.4,0-2,1.2-2,2.3c0,1.2,0.6,2.3,2,2.3c1,0,1.6-0.8,1.7-1.7h0.5
		c-0.1,1.3-1,2.1-2.2,2.1c-1.7,0-2.5-1.3-2.5-2.8c0-1.4,0.8-2.8,2.5-2.8c1,0,2,0.6,2.1,1.7h-0.5V26z"/>
</g>
<g>
	<defs>
		<polygon id="SVGID_27_" points="0,0.2 0,41.3 118.7,41.3 120.5,22.3 143.5,22 143.5,0.2 		"/>
	</defs>
	<clipPath id="SVGID_28_">
		<use xlink:href="#SVGID_27_"  style="overflow:visible;"/>
	</clipPath>
	<polygon class="st13" points="174.8,24.4 175.3,24.4 175.3,26.7 178.4,26.7 178.4,24.4 178.9,24.4 178.9,29.7 178.4,29.7 
		178.4,27.1 175.3,27.1 175.3,29.7 174.8,29.7 	"/>
</g>
<g>
	<defs>
		<polygon id="SVGID_29_" points="0,0.2 0,41.3 118.7,41.3 120.5,22.3 143.5,22 143.5,0.2 		"/>
	</defs>
	<clipPath id="SVGID_30_">
		<use xlink:href="#SVGID_29_"  style="overflow:visible;"/>
	</clipPath>
	<path class="st14" d="M26,21.4h-3.5c0.2,0.2,0.4,0.4,0.6,0.6c0.6,0.9,1,2.2,1,3.8c0,1.8-0.4,3-1.1,3.8c-0.7,0.7-1.9,1.1-3.5,1.1
		h-0.9v-9.3h-4.2v19h-2.6v0.4h9.5v-0.4h-2.7V31h1.2c1.5,0,2.9-0.1,4-0.4s2.1-0.7,2.8-1.2c0.7-0.5,1.3-1.1,1.7-1.7
		c0.4-0.7,0.5-1.4,0.5-2.1c0-1.1-0.3-2-0.8-2.7C27.4,22.3,26.8,21.8,26,21.4"/>
</g>
<g>
	<defs>
		<polygon id="SVGID_31_" points="0,0.2 0,41.3 118.7,41.3 120.5,22.3 143.5,22 143.5,0.2 		"/>
	</defs>
	<clipPath id="SVGID_32_">
		<use xlink:href="#SVGID_31_"  style="overflow:visible;"/>
	</clipPath>
	<path class="st15" d="M47.9,40.3c-0.2,0.2-0.6,0.3-1,0.3c-0.3,0-0.6-0.1-0.8-0.2c-0.2-0.1-0.3-0.4-0.4-0.8s-0.2-1-0.2-1.7
		c-0.1-0.7-0.1-1.7-0.2-2.9c-0.1-1-0.3-1.9-0.6-2.5c-0.3-0.6-0.7-1.1-1.3-1.4c-0.5-0.3-1.2-0.6-1.9-0.8c-0.7-0.2-1.6-0.3-2.5-0.5
		v-0.1c0.7-0.1,1.3-0.2,2-0.4c0.7-0.2,1.3-0.4,1.8-0.8c0.5-0.3,1-0.8,1.3-1.3s0.5-1.2,0.5-2c0-1-0.2-1.8-0.7-2.4
		c-0.4-0.6-0.9-1-1.5-1.4H39c0.1,0.1,0.3,0.3,0.4,0.4c0.3,0.4,0.5,0.9,0.6,1.5s0.2,1.3,0.2,2.2c0,0.5,0,1-0.1,1.5s-0.2,0.9-0.5,1.3
		c-0.2,0.4-0.6,0.7-1.1,0.9c-0.5,0.2-1.2,0.3-2,0.3h-1.2v-8.2h-4.2v19h-2.6v0.4H38v-0.4h-2.6V30h1.9c0.9,0,1.6,0.2,2.1,0.5
		s0.9,0.8,1.1,1.4c0.2,0.6,0.4,1.2,0.5,2c0.1,0.7,0.1,1.5,0.2,2.3c0,0.5,0.1,1.1,0.1,1.7c0.1,0.6,0.2,1.1,0.5,1.6s0.7,0.9,1.3,1.3
		c0.6,0.3,1.4,0.5,2.5,0.5c0.5,0,1,0,1.3-0.1s0.6-0.2,0.9-0.3c0.2-0.1,0.5-0.3,0.6-0.4c0.2-0.2,0.4-0.3,0.6-0.5l-0.3-0.3
		C48.4,39.8,48.1,40.1,47.9,40.3"/>
</g>
<g>
	<defs>
		<polygon id="SVGID_33_" points="0,0.2 0,41.3 118.7,41.3 120.5,22.3 143.5,22 143.5,0.2 		"/>
	</defs>
	<clipPath id="SVGID_34_">
		<use xlink:href="#SVGID_33_"  style="overflow:visible;"/>
	</clipPath>
	<path class="st16" d="M67.2,36.8c-0.4,0.7-0.8,1.3-1.4,1.9c-0.5,0.5-1.2,1-1.9,1.3c-0.7,0.3-1.5,0.4-2.4,0.4h-4.7V30h1.9
		c0.7,0,1.2,0.1,1.7,0.3c0.5,0.2,0.8,0.5,1.1,0.9s0.6,0.8,0.7,1.4c0.2,0.5,0.3,1.1,0.5,1.6h0.4v-9h-0.4c-0.1,0.7-0.3,1.2-0.5,1.8
		c-0.2,0.5-0.5,1-0.8,1.4s-0.7,0.7-1.2,0.9c-0.5,0.2-1.1,0.3-1.8,0.3h-1.6v-8.2h-4.2v19H50v0.4h18.4v-6.3H68
		C67.8,35.4,67.6,36.1,67.2,36.8"/>
</g>
<g>
	<defs>
		<polygon id="SVGID_35_" points="0,0.2 0,41.3 118.7,41.3 120.5,22.3 143.5,22 143.5,0.2 		"/>
	</defs>
	<clipPath id="SVGID_36_">
		<use xlink:href="#SVGID_35_"  style="overflow:visible;"/>
	</clipPath>
	<path class="st17" d="M34.9,15c0,0.3,0,0.6,0,1.1c0,0.4-0.1,0.9-0.2,1.4c-0.1,0.5-0.3,1-0.5,1.5s-0.6,0.9-1.1,1.3
		c-0.2,0.1-0.4,0.3-0.6,0.4h0.7l0.1-0.1c0.5-0.4,0.9-0.9,1.2-1.4s0.5-1,0.6-1.6c0.1-0.5,0.2-1,0.2-1.5s0-0.9,0-1.2V1.4H38V1h-5.8
		v0.4h2.6L34.9,15L34.9,15z"/>
</g>
<g>
	<defs>
		<polygon id="SVGID_37_" points="0,0.2 0,41.3 118.7,41.3 120.5,22.3 143.5,22 143.5,0.2 		"/>
	</defs>
	<clipPath id="SVGID_38_">
		<use xlink:href="#SVGID_37_"  style="overflow:visible;"/>
	</clipPath>
	<path class="st18" d="M19.4,14.9c0,0.9,0.1,1.7,0.3,2.6c0.2,0.8,0.6,1.6,1.2,2.3c0.3,0.3,0.7,0.6,1.1,0.9h3.3
		c-0.4-0.4-0.8-0.8-1-1.3c-0.3-0.7-0.5-1.4-0.6-2.3s-0.1-1.7-0.1-2.6V1.4h2.7V1h-9.5v0.4h2.7v13.5H19.4z"/>
</g>
<g>
	<defs>
		<polygon id="SVGID_39_" points="0,0.2 0,41.3 118.7,41.3 120.5,22.3 143.5,22 143.5,0.2 		"/>
	</defs>
	<clipPath id="SVGID_40_">
		<use xlink:href="#SVGID_39_"  style="overflow:visible;"/>
	</clipPath>
	<polygon class="st19" points="100.2,20.6 100.7,20.6 100.7,3.1 100.7,3.1 113.1,20.6 114.5,20.6 114.5,1.4 117.1,1.4 117.1,1 
		111.4,1 111.4,1.4 114,1.4 114,14.7 114,14.7 104.4,1 97.6,1 97.6,1.4 100.2,1.4 	"/>
</g>
<g>
	<defs>
		<polygon id="SVGID_41_" points="0,0.2 0,41.3 118.7,41.3 120.5,22.3 143.5,22 143.5,0.2 		"/>
	</defs>
	<clipPath id="SVGID_42_">
		<use xlink:href="#SVGID_41_"  style="overflow:visible;"/>
	</clipPath>
	<path class="st20" d="M134.6,19.4c-0.5,0.5-1.1,0.9-1.8,1.2h4.3v-5.4h-0.4c-0.2,0.8-0.5,1.6-0.8,2.3
		C135.6,18.3,135.1,18.9,134.6,19.4"/>
</g>
<g>
	<defs>
		<polygon id="SVGID_43_" points="0,0.2 0,41.3 118.7,41.3 120.5,22.3 143.5,22 143.5,0.2 		"/>
	</defs>
	<clipPath id="SVGID_44_">
		<use xlink:href="#SVGID_43_"  style="overflow:visible;"/>
	</clipPath>
	<path class="st21" d="M121.4,20.6h4.2v-9.9h1.9c0.7,0,1.2,0.1,1.7,0.3s0.8,0.5,1.1,0.9s0.6,0.9,0.7,1.4c0.2,0.5,0.3,1.1,0.5,1.6
		h0.4V6h-0.4c-0.1,0.7-0.3,1.2-0.5,1.8s-0.5,1-0.8,1.4s-0.7,0.7-1.2,0.9s-1.1,0.3-1.8,0.3h-1.6v-9h4.6c0.9,0,1.7,0.2,2.4,0.5
		c0.7,0.4,1.2,0.8,1.6,1.3c0.4,0.5,0.7,1,1,1.5c0.2,0.5,0.4,0.9,0.5,1.3h0.4V1h-17.2v0.4h2.7v19.2H121.4z"/>
</g>
<g>
	<defs>
		<polygon id="SVGID_45_" points="0,0.2 0,41.3 118.7,41.3 120.5,22.3 143.5,22 143.5,0.2 		"/>
	</defs>
	<clipPath id="SVGID_46_">
		<use xlink:href="#SVGID_45_"  style="overflow:visible;"/>
	</clipPath>
	<path class="st22" d="M96.1,31.9c-0.4-0.7-0.8-1.2-1.4-1.7s-1.2-0.8-2-1.1c-0.7-0.3-1.5-0.6-2.3-0.8c-0.8-0.2-1.5-0.5-2.3-0.7
		c-0.7-0.2-1.4-0.5-2-0.8s-1-0.7-1.4-1.1s-0.5-1-0.5-1.7c0-0.4,0.1-0.9,0.3-1.3c0.2-0.4,0.5-0.8,0.9-1.2c0.4-0.3,0.9-0.6,1.5-0.8
		c0.6-0.2,1.3-0.3,2-0.3c0.2,0,0.3,0,0.5,0V20c-0.2,0-0.3,0-0.5,0c-1,0-1.9,0.2-2.8,0.5s-1.6,0.8-2.2,1.3s-1.1,1.2-1.4,1.9
		c-0.3,0.7-0.5,1.5-0.5,2.2c0,1,0.2,1.9,0.5,2.6s0.8,1.3,1.3,1.7c0.6,0.5,1.2,0.9,1.9,1.2c0.7,0.3,1.4,0.6,2.2,0.8
		c0.7,0.2,1.5,0.4,2.2,0.6c0.7,0.2,1.3,0.5,1.9,0.8s1,0.7,1.3,1.2s0.5,1,0.5,1.8c0,0.4-0.1,0.8-0.2,1.3c-0.2,0.5-0.4,1-0.8,1.5
		s-0.9,0.8-1.5,1.2c-0.7,0.3-1.5,0.5-2.5,0.5c-0.3,0-0.6,0-0.9,0s-0.7-0.1-1.1-0.2c-0.4-0.1-0.8-0.3-1.2-0.5s-0.8-0.6-1.3-1
		c-0.4-0.4-0.7-0.8-1-1.3s-0.5-0.9-0.7-1.3c-0.2-0.4-0.3-0.8-0.4-1.2S82,34.9,82,34.7h-0.4v6.4h0.5c0.1-0.3,0.2-0.4,0.3-0.5
		c0.1-0.1,0.3-0.1,0.6-0.1c0.2,0,0.5,0.1,0.9,0.2c0.4,0.1,0.8,0.2,1.4,0.4c0.5,0.1,1.1,0.2,1.6,0.4c0.6,0.1,1.2,0.2,1.8,0.2
		c1.2,0,2.3-0.2,3.2-0.6c1-0.4,1.8-0.9,2.5-1.5s1.2-1.4,1.6-2.2s0.6-1.7,0.6-2.7C96.7,33.3,96.5,32.5,96.1,31.9"/>
</g>
<g>
	<defs>
		<polygon id="SVGID_47_" points="0,0.2 0,41.3 118.7,41.3 120.5,22.3 143.5,22 143.5,0.2 		"/>
	</defs>
	<clipPath id="SVGID_48_">
		<use xlink:href="#SVGID_47_"  style="overflow:visible;"/>
	</clipPath>
	<path class="st23" d="M75,16.4c-2.5,0-4.6,2.1-4.6,4.6s2.1,4.6,4.6,4.6s4.6-2.1,4.6-4.6S77.5,16.4,75,16.4"/>
</g>
<g>
	<defs>
		<polygon id="SVGID_49_" points="0,0.2 0,41.3 118.7,41.3 120.5,22.3 143.5,22 143.5,0.2 		"/>
	</defs>
	<clipPath id="SVGID_50_">
		<use xlink:href="#SVGID_49_"  style="overflow:visible;"/>
	</clipPath>
	<path class="st24" d="M14,12.6c-0.4-0.7-0.8-1.2-1.4-1.7s-1.2-0.8-2-1.1C9.9,9.4,9.2,9.2,8.4,8.9C7.6,8.7,6.8,8.4,6.1,8.2
		s-1.4-0.5-2-0.8c-0.6-0.3-1-0.7-1.4-1.1s-0.5-1-0.5-1.7c0-0.4,0.1-0.9,0.3-1.3C2.7,2.9,3,2.5,3.4,2.1c0.4-0.3,0.9-0.6,1.5-0.8
		S6.2,1,7,1c0.9,0,1.7,0.2,2.3,0.5s1.1,0.8,1.5,1.3s0.7,1.1,1,1.8s0.5,1.3,0.7,2h0.4V1h-0.5c-0.1,0.2-0.2,0.4-0.3,0.5
		s-0.3,0.1-0.5,0.1s-0.5-0.1-0.8-0.2s-0.6-0.2-1-0.4C9.6,1,9.1,0.9,8.7,0.7C8.2,0.6,7.6,0.6,7,0.6c-1,0-1.9,0.2-2.8,0.5
		C3.4,1.4,2.6,1.9,2,2.4S0.9,3.6,0.6,4.3C0.2,5,0,5.7,0,6.5c0,1,0.2,1.9,0.5,2.6c0.3,0.7,0.8,1.3,1.3,1.7C2.4,11.3,3,11.7,3.7,12
		s1.4,0.6,2.2,0.8c0.7,0.2,1.5,0.4,2.2,0.6c0.7,0.2,1.3,0.5,1.9,0.8c0.6,0.3,1,0.7,1.3,1.2s0.5,1,0.5,1.8c0,0.4-0.1,0.8-0.2,1.3
		c-0.2,0.5-0.4,1-0.8,1.5c-0.4,0.5-0.9,0.8-1.5,1.2c-0.7,0.3-1.5,0.5-2.5,0.5c-0.1,0-0.2,0-0.3,0v0.4l0,0c1.2,0,2.3-0.2,3.2-0.6
		c1-0.4,1.8-0.9,2.5-1.5s1.2-1.4,1.6-2.2c0.4-0.8,0.6-1.7,0.6-2.7C14.6,14,14.4,13.2,14,12.6"/>
</g>
<g>
	<defs>
		<polygon id="SVGID_51_" points="0,0.2 0,41.3 118.7,41.3 120.5,22.3 143.5,22 143.5,0.2 		"/>
	</defs>
	<clipPath id="SVGID_52_">
		<use xlink:href="#SVGID_51_"  style="overflow:visible;"/>
	</clipPath>
	<path class="st25" d="M72.7,25.6v14.8H70v0.4h9.5v-0.4h-2.6V25.7c-0.6,0.3-1.3,0.4-2,0.4C74.2,26.1,73.4,25.9,72.7,25.6"/>
</g>
<g>
	<defs>
		<polygon id="SVGID_53_" points="0,0.2 0,41.3 118.7,41.3 120.5,22.3 143.5,22 143.5,0.2 		"/>
	</defs>
	<clipPath id="SVGID_54_">
		<use xlink:href="#SVGID_53_"  style="overflow:visible;"/>
	</clipPath>
	<path class="st26" d="M73.3,16.2l-6.9-16h-0.8l-8.4,20.4h0.5l3-7.2h6.9l2.5,5.8C70.7,17.8,71.9,16.6,73.3,16.2 M60.9,13l3.2-7.9
		l3.4,7.9H60.9z"/>
</g>
<g>
	<defs>
		<polygon id="SVGID_55_" points="0,0.2 0,41.3 118.7,41.3 120.5,22.3 143.5,22 143.5,0.2 		"/>
	</defs>
	<clipPath id="SVGID_56_">
		<use xlink:href="#SVGID_55_"  style="overflow:visible;"/>
	</clipPath>
	<path class="st27" d="M90.3,1v0.4h2.6v13.3h-0.1L83.3,1h-6.8v0.4h2.7v16.7c0.2,0.3,0.3,0.5,0.5,0.8V3.1h0.1L92,20.6h1.4V1.4H96V1
		H90.3z"/>
</g>
</svg>
