<?xml version="1.0" encoding="utf-8"?>
<!-- Generator: Adobe Illustrator 24.1.1, SVG Export Plug-In . SVG Version: 6.00 Build 0)  -->
<svg version="1.1" id="Ebene_1" xmlns="http://www.w3.org/2000/svg" xmlns:xlink="http://www.w3.org/1999/xlink" x="0px" y="0px"
	 viewBox="0 0 26.9 14.8" style="enable-background:new 0 0 26.9 14.8;" xml:space="preserve">
<style type="text/css">
	.st0{clip-path:url(#SVGID_2_);}
</style>
<g>
	<defs>
		<rect id="SVGID_1_" y="0" width="26.9" height="14.8"/>
	</defs>
	<clipPath id="SVGID_2_">
		<use xlink:href="#SVGID_1_"  style="overflow:visible;"/>
	</clipPath>
	<g class="st0">
		<path d="M22.4,4.3C20.9,3,19.6,1.6,18.5,0c0,1.3,0.2,2.5,0.6,3.7c0.4,1.1,1,2.2,1.7,3.2h-2.9c-2.7,0-4.6-0.5-5.8-1.4
			c-1.3-1.2-2.1-2.9-2-4.6H0c0.1,1.4,0.5,2.8,1.2,4C2,6,3.1,6.8,4.4,7.4C3.1,8,2,8.9,1.3,10c-0.8,1.2-1.2,2.6-1.3,4h10
			c0-1.8,0.7-3.5,2-4.6c1.2-0.9,3.2-1.4,5.8-1.4h3c-0.7,1-1.3,2-1.7,3.2c-0.4,1.2-0.6,2.5-0.6,3.7c1.1-1.6,2.4-3,3.9-4.3
			c1.4-1.2,2.9-2.3,4.6-3.1C25.3,6.6,23.7,5.5,22.4,4.3"/>
	</g>
</g>
</svg>
